<?xml version="1.0" encoding="UTF-8" standalone="no"?>
<svg
   xmlns:dc="http://purl.org/dc/elements/1.1/"
   xmlns:cc="http://creativecommons.org/ns#"
   xmlns:rdf="http://www.w3.org/1999/02/22-rdf-syntax-ns#"
   xmlns:svg="http://www.w3.org/2000/svg"
   xmlns="http://www.w3.org/2000/svg"
   xmlns:sodipodi="http://sodipodi.sourceforge.net/DTD/sodipodi-0.dtd"
   xmlns:inkscape="http://www.inkscape.org/namespaces/inkscape"
   version="1.1"
   x="0px"
   y="0px"
   width="512px"
   height="512px"
   viewBox="0 0 512 512"
   style="enable-background:new 0 0 512 512;"
   xml:space="preserve"
   id="svg4141"
   inkscape:version="0.91+devel+osxmenu r12922"
   sodipodi:docname="basket.svg"
   inkscape:export-filename="/Users/golui/git/ujio2018/Android/app/src/main/res/mipmap-mdpi/jur_logo.png"
   inkscape:export-xdpi="60.000004"
   inkscape:export-ydpi="60.000004"><metadata
     id="metadata4152"><rdf:RDF><cc:Work
         rdf:about=""><dc:format>image/svg+xml</dc:format><dc:type
           rdf:resource="http://purl.org/dc/dcmitype/StillImage" /><dc:title></dc:title></cc:Work></rdf:RDF></metadata><defs
     id="defs4150" /><sodipodi:namedview
     pagecolor="#000000"
     bordercolor="#666666"
     borderopacity="1"
     objecttolerance="10"
     gridtolerance="10"
     guidetolerance="10"
     inkscape:pageopacity="0"
     inkscape:pageshadow="2"
     inkscape:window-width="1185"
     inkscape:window-height="624"
     id="namedview4148"
     showgrid="true"
     inkscape:snap-bbox="true"
     inkscape:bbox-nodes="true"
     inkscape:bbox-paths="true"
     inkscape:snap-nodes="true"
     inkscape:snap-center="true"
     showguides="true"
     inkscape:guide-bbox="true"
     inkscape:zoom="0.94284916"
     inkscape:cx="214.38847"
     inkscape:cy="250.17398"
     inkscape:window-x="85"
     inkscape:window-y="179"
     inkscape:window-maximized="0"
     inkscape:current-layer="svg4141"><inkscape:grid
       type="xygrid"
       id="grid4154" /></sodipodi:namedview><path
     style="color:#000000;font-style:normal;font-variant:normal;font-weight:normal;font-stretch:normal;font-size:medium;line-height:normal;font-family:sans-serif;font-variant-ligatures:none;font-variant-position:normal;font-variant-caps:normal;font-variant-numeric:normal;font-variant-alternates:normal;font-feature-settings:normal;text-indent:0;text-align:start;text-decoration:none;text-decoration-line:none;text-decoration-style:solid;text-decoration-color:#000000;letter-spacing:normal;word-spacing:normal;text-transform:none;direction:ltr;block-progression:tb;writing-mode:lr-tb;baseline-shift:baseline;text-anchor:start;white-space:normal;shape-padding:0;clip-rule:nonzero;display:inline;overflow:visible;visibility:visible;opacity:1;isolation:auto;mix-blend-mode:normal;color-interpolation:sRGB;color-interpolation-filters:linearRGB;solid-color:#000000;solid-opacity:1;fill:#ffffff;fill-opacity:1;fill-rule:evenodd;stroke:none;stroke-width:60.47244263;stroke-linecap:butt;stroke-linejoin:round;stroke-miterlimit:4;stroke-dasharray:none;stroke-dashoffset:0;stroke-opacity:1;color-rendering:auto;image-rendering:auto;shape-rendering:auto;text-rendering:auto;enable-background:accumulate"
     d="M 48 177.76367 A 30.239245 30.239245 0 0 0 18.666016 215.33398 L 66.666016 407.33398 A 30.239245 30.239245 0 0 0 96 430.23633 L 432 430.23633 A 30.239245 30.239245 0 0 0 461.33398 407.33398 L 509.33398 215.33398 A 30.239245 30.239245 0 0 0 480 177.76367 L 285.90234 177.76367 A 30.239245 30.239245 0 0 1 242.95508 211.27734 L 172.88086 177.76367 L 48 177.76367 z M 111.80078 252.8457 A 18.899528 18.899528 0 0 1 130.10156 266.57031 L 154.10156 346.57031 A 18.899528 18.899528 0 1 1 117.89844 357.42969 L 93.898438 277.42969 A 18.899528 18.899528 0 0 1 111.80078 252.8457 z M 199.80078 252.8457 A 18.899528 18.899528 0 0 1 218.10156 266.57031 L 242.10156 346.57031 A 18.899528 18.899528 0 1 1 205.89844 357.42969 L 181.89844 277.42969 A 18.899528 18.899528 0 0 1 199.80078 252.8457 z M 321.63086 252.84961 A 18.899528 18.899528 0 0 1 340.10156 277.42969 L 316.10156 357.42969 A 18.899528 18.899528 0 1 1 279.89844 346.57031 L 303.89844 266.57031 A 18.899528 18.899528 0 0 1 321.63086 252.84961 z M 409.63086 252.84961 A 18.899528 18.899528 0 0 1 428.10156 277.42969 L 404.10156 357.42969 A 18.899528 18.899528 0 1 1 367.89844 346.57031 L 391.89844 266.57031 A 18.899528 18.899528 0 0 1 409.63086 252.84961 z "
     id="path4347" /><path
     style="fill:#ffffff;fill-rule:evenodd;stroke:#ffffff;stroke-width:37.79527559;stroke-linecap:round;stroke-linejoin:miter;stroke-opacity:1;stroke-miterlimit:4;stroke-dasharray:none"
     d="m 72,96 184,88"
     id="path4327"
     inkscape:connector-curvature="0" /></svg>