<?xml version="1.0" encoding="UTF-8" standalone="no"?>
<svg
   xmlns:dc="http://purl.org/dc/elements/1.1/"
   xmlns:cc="http://creativecommons.org/ns#"
   xmlns:rdf="http://www.w3.org/1999/02/22-rdf-syntax-ns#"
   xmlns:svg="http://www.w3.org/2000/svg"
   xmlns="http://www.w3.org/2000/svg"
   xmlns:sodipodi="http://sodipodi.sourceforge.net/DTD/sodipodi-0.dtd"
   xmlns:inkscape="http://www.inkscape.org/namespaces/inkscape"
   version="1.1"
   x="0px"
   y="0px"
   width="512px"
   height="512px"
   viewBox="0 0 512 512"
   style="enable-background:new 0 0 512 512;"
   xml:space="preserve"
   id="svg4141"
   inkscape:version="0.91+devel+osxmenu r12922"
   sodipodi:docname="colddrink_glass.svg"
   inkscape:export-filename="/Users/golui/git/ujio2018/Android/app/src/main/res/mipmap-mdpi/spoon_and_fork.png"
   inkscape:export-xdpi="6.0000005"
   inkscape:export-ydpi="6.0000005"><metadata
     id="metadata4152"><rdf:RDF><cc:Work
         rdf:about=""><dc:format>image/svg+xml</dc:format><dc:type
           rdf:resource="http://purl.org/dc/dcmitype/StillImage" /><dc:title></dc:title></cc:Work></rdf:RDF></metadata><defs
     id="defs4150" /><sodipodi:namedview
     pagecolor="#000000"
     bordercolor="#666666"
     borderopacity="1"
     objecttolerance="10"
     gridtolerance="10"
     guidetolerance="10"
     inkscape:pageopacity="0"
     inkscape:pageshadow="2"
     inkscape:window-width="1185"
     inkscape:window-height="624"
     id="namedview4148"
     showgrid="true"
     inkscape:snap-bbox="true"
     inkscape:bbox-nodes="true"
     inkscape:bbox-paths="true"
     inkscape:snap-nodes="true"
     inkscape:snap-center="true"
     showguides="true"
     inkscape:guide-bbox="true"
     inkscape:zoom="0.94284916"
     inkscape:cx="298.17706"
     inkscape:cy="273.20738"
     inkscape:window-x="229"
     inkscape:window-y="23"
     inkscape:window-maximized="0"
     inkscape:current-layer="svg4141"><inkscape:grid
       type="xygrid"
       id="grid4154" /></sodipodi:namedview><path
     id="path4176"
     style="opacity:1;fill:none;fill-opacity:0.94117647;stroke:#ffffff;stroke-width:18.8976378;stroke-linecap:round;stroke-linejoin:round;stroke-miterlimit:4;stroke-dasharray:none"
     d="M 256,347.39661 A 20.198785,18.283379 0 0 1 235.80122,365.67999 20.198785,18.283379 0 0 1 215.60243,347.39661 20.198785,18.283379 0 0 1 235.80122,329.11323 20.198785,18.283379 0 0 1 256,347.39661 Z M 296.39757,274.2631 A 20.198785,18.283379 0 0 1 276.19878,292.54647 20.198785,18.283379 0 0 1 256,274.2631 a 20.198785,18.283379 0 0 1 20.19878,-18.28338 20.198785,18.283379 0 0 1 20.19879,18.28338 z m -80.79514,-54.85014 0,-127.983651 -60.59635,-36.566758 m 40.39757,402.234329 -20.19879,-255.9673 161.59028,0 -20.19879,255.9673 m -181.78906,-310.81744 242.38542,0 -20.19879,310.81744 -201.98784,0 z"
     inkscape:connector-curvature="0" /></svg>