<?xml version="1.0" encoding="UTF-8" standalone="no"?>
<svg
   xmlns:dc="http://purl.org/dc/elements/1.1/"
   xmlns:cc="http://creativecommons.org/ns#"
   xmlns:rdf="http://www.w3.org/1999/02/22-rdf-syntax-ns#"
   xmlns:svg="http://www.w3.org/2000/svg"
   xmlns="http://www.w3.org/2000/svg"
   xmlns:sodipodi="http://sodipodi.sourceforge.net/DTD/sodipodi-0.dtd"
   xmlns:inkscape="http://www.inkscape.org/namespaces/inkscape"
   version="1.1"
   x="0px"
   y="0px"
   width="512px"
   height="512px"
   viewBox="0 0 512 512"
   style="enable-background:new 0 0 512 512;"
   xml:space="preserve"
   id="svg4141"
   inkscape:version="0.91+devel+osxmenu r12922"
   sodipodi:docname="hourglass.svg"
   inkscape:export-filename="/Users/golui/git/ujio2018/Android/app/src/main/res/mipmap-mdpi/hourglass.png"
   inkscape:export-xdpi="13.714286"
   inkscape:export-ydpi="13.714286"><metadata
     id="metadata4152"><rdf:RDF><cc:Work
         rdf:about=""><dc:format>image/svg+xml</dc:format><dc:type
           rdf:resource="http://purl.org/dc/dcmitype/StillImage" /><dc:title></dc:title></cc:Work></rdf:RDF></metadata><defs
     id="defs4150" /><sodipodi:namedview
     pagecolor="#000000"
     bordercolor="#666666"
     borderopacity="1"
     objecttolerance="10"
     gridtolerance="10"
     guidetolerance="10"
     inkscape:pageopacity="0"
     inkscape:pageshadow="2"
     inkscape:window-width="1185"
     inkscape:window-height="624"
     id="namedview4148"
     showgrid="true"
     inkscape:snap-bbox="true"
     inkscape:bbox-nodes="true"
     inkscape:bbox-paths="true"
     inkscape:snap-nodes="true"
     inkscape:snap-center="true"
     showguides="true"
     inkscape:guide-bbox="true"
     inkscape:zoom="0.66669503"
     inkscape:cx="248.13956"
     inkscape:cy="272.65596"
     inkscape:window-x="61"
     inkscape:window-y="203"
     inkscape:window-maximized="0"
     inkscape:current-layer="svg4141"><inkscape:grid
       type="xygrid"
       id="grid4154" /></sodipodi:namedview><path
     style="opacity:1;fill:#ffffff;fill-opacity:1;stroke:none;stroke-width:3.59406567;stroke-linecap:round;stroke-miterlimit:4;stroke-dasharray:none"
     d="M 295.52942,31.999998 269.17647,58.35294 287.7477,76.924166 c -31.6865,31.729834 -51.48375,52.280874 -62.8488,73.387414 -10.78302,20.02561 -12.40442,40.0755 -8.69853,65.88879 -25.81329,-3.70589 -45.86318,-2.08449 -65.88879,8.69853 -21.10654,11.36505 -41.65758,31.1623 -73.387414,62.8488 L 58.35294,269.17647 31.999998,295.52942 216.47058,480 242.82353,453.64707 224.2523,435.07583 c 31.6865,-31.72983 51.48375,-52.28087 62.8488,-73.38741 10.78302,-20.02561 12.40442,-40.0755 8.69853,-65.88879 25.81329,3.70589 45.86318,2.08449 65.88879,-8.69853 21.10654,-11.36505 41.65758,-31.1623 73.38741,-62.8488 L 453.64707,242.82353 480,216.47058 295.52942,31.999998 Z m 7.79939,60.505286 116.16591,116.165906 c -31.62405,31.42816 -51.53696,50.05624 -68.24196,59.05124 -18.9228,10.18921 -34.63177,10.2616 -66.74288,3.83938 a 11.005634,11.005634 0 0 0 -12.94807,12.94807 c 6.42222,32.11111 6.34983,47.82008 -3.83938,66.74288 -8.995,16.705 -27.62308,36.61791 -59.05124,68.24196 L 92.505284,303.32881 c 31.624046,-31.42816 51.536956,-50.05624 68.241956,-59.05124 18.9228,-10.18921 34.63177,-10.2616 66.74288,-3.83938 a 11.005634,11.005634 0 0 0 12.94807,-12.94807 c -6.42222,-32.11111 -6.34983,-47.82008 3.83938,-66.74288 8.995,-16.705 27.62308,-36.61791 59.05124,-68.241956 z"
     id="rect4158"
     inkscape:connector-curvature="0" /><path
     style="color:#000000;font-style:normal;font-variant:normal;font-weight:normal;font-stretch:normal;font-size:medium;line-height:normal;font-family:sans-serif;font-variant-ligatures:none;font-variant-position:normal;font-variant-caps:normal;font-variant-numeric:normal;font-variant-alternates:normal;font-feature-settings:normal;text-indent:0;text-align:start;text-decoration:none;text-decoration-line:none;text-decoration-style:solid;text-decoration-color:#000000;letter-spacing:normal;word-spacing:normal;text-transform:none;direction:ltr;block-progression:tb;writing-mode:lr-tb;baseline-shift:baseline;text-anchor:start;white-space:normal;shape-padding:0;clip-rule:nonzero;display:inline;overflow:visible;visibility:visible;opacity:1;isolation:auto;mix-blend-mode:normal;color-interpolation:sRGB;color-interpolation-filters:linearRGB;solid-color:#000000;solid-opacity:1;fill:#ffffff;fill-opacity:1;fill-rule:nonzero;stroke:none;stroke-width:22.00906754;stroke-linecap:round;stroke-linejoin:miter;stroke-miterlimit:4;stroke-dasharray:none;stroke-dashoffset:0;stroke-opacity:1;color-rendering:auto;image-rendering:auto;shape-rendering:auto;text-rendering:auto;enable-background:accumulate"
     d="m 249.95613,218.73131 c 0.39374,2.10816 0.81034,4.28382 1.27383,6.60118 l 0,0.002 c 2.99913,15.01577 -10.87943,28.89432 -25.8952,25.8952 l -0.002,0 c -31.41872,-6.28376 -42.66387,-6.25774 -59.3674,2.73646 -13.02235,7.01205 -31.06413,23.16638 -57.80697,49.45197 L 208.58187,403.8416 c 26.28559,-26.74284 42.43992,-44.78462 49.45197,-57.80696 8.9942,-16.70354 9.02022,-27.94869 2.73646,-59.36741 l 0,-0.002 c -2.99912,-15.01577 10.87943,-28.89432 25.8952,-25.8952 l 0.002,0 c 31.41871,6.28376 42.66386,6.25774 59.3674,-2.73646 11.2473,-6.05626 26.27156,-18.96948 47.37973,-39.30227 l -143.45851,0 z"
     id="path4251"
     inkscape:connector-curvature="0" /></svg>