<?xml version="1.0" encoding="UTF-8" standalone="no"?>
<svg
   xmlns:dc="http://purl.org/dc/elements/1.1/"
   xmlns:cc="http://creativecommons.org/ns#"
   xmlns:rdf="http://www.w3.org/1999/02/22-rdf-syntax-ns#"
   xmlns:svg="http://www.w3.org/2000/svg"
   xmlns="http://www.w3.org/2000/svg"
   xmlns:sodipodi="http://sodipodi.sourceforge.net/DTD/sodipodi-0.dtd"
   xmlns:inkscape="http://www.inkscape.org/namespaces/inkscape"
   version="1.1"
   x="0px"
   y="0px"
   width="512px"
   height="512px"
   viewBox="0 0 512 512"
   style="enable-background:new 0 0 512 512;"
   xml:space="preserve"
   id="svg4141"
   inkscape:version="0.91+devel+osxmenu r12922"
   sodipodi:docname="pizza_logo.svg"><metadata
     id="metadata4152"><rdf:RDF><cc:Work
         rdf:about=""><dc:format>image/svg+xml</dc:format><dc:type
           rdf:resource="http://purl.org/dc/dcmitype/StillImage" /></cc:Work></rdf:RDF></metadata><defs
     id="defs4150" /><sodipodi:namedview
     pagecolor="#ffffff"
     bordercolor="#666666"
     borderopacity="1"
     objecttolerance="10"
     gridtolerance="10"
     guidetolerance="10"
     inkscape:pageopacity="0"
     inkscape:pageshadow="2"
     inkscape:window-width="1185"
     inkscape:window-height="624"
     id="namedview4148"
     showgrid="true"
     inkscape:snap-bbox="true"
     inkscape:bbox-nodes="true"
     inkscape:bbox-paths="true"
     inkscape:snap-nodes="true"
     inkscape:snap-center="true"
     showguides="true"
     inkscape:guide-bbox="true"
     inkscape:zoom="0.66669503"
     inkscape:cx="195.06397"
     inkscape:cy="255.1741"
     inkscape:window-x="0"
     inkscape:window-y="23"
     inkscape:window-maximized="0"
     inkscape:current-layer="svg4141"><inkscape:grid
       type="xygrid"
       id="grid4154" /></sodipodi:namedview><g
     id="g4189"
     transform="matrix(0.50000001,0.8660254,0.8660254,-0.50000001,-132.41838,259.80048)"
     style="fill:#ffffff"><g
       inkscape:transform-center-y="189.22657"
       inkscape:transform-center-x="-106.20412"
       transform="matrix(-0.47945089,0.47945089,-0.47945089,-0.47945089,399.09054,434.32829)"
       id="afcae5a789ccd549f9c6e2a2f818024c"
       style="fill:#ffffff"><g
         id="g4144"
         style="fill:#ffffff" /><path
         inkscape:connector-curvature="0"
         id="path4146"
         d="m 65.077,40.184 0,-39.684 c 148.302,0 282.886,58.685 381.847,154.071 l -29.197,30.106 C 324.203,98.812 200.899,44.897 65.077,40.184 Z m 179.375,290.709 c -4.259,-7.916 -12.528,-12.931 -21.584,-12.931 -13.518,0 -24.515,10.997 -24.515,24.515 0,9.388 5.276,17.794 13.601,21.932 l 32.498,-33.516 z M 358.159,213.631 381.004,190.07 c 0.017,-0.302 0.027,-0.6 0.027,-0.894 0,-0.653 -0.036,-1.336 -0.11,-2.098 -8.714,-7.828 -17.658,-15.316 -26.616,-22.283 -12.593,1.125 -22.307,11.634 -22.307,24.381 0,13.518 10.999,24.516 24.518,24.516 0.534,0 1.078,-0.02 1.643,-0.061 z m -2.557,6.946 -104.62,107.893 c -5.167,-10.322 -15.812,-17.439 -28.114,-17.439 -17.339,0 -31.446,14.107 -31.446,31.446 0,12.645 7.52,23.543 18.311,28.533 L 73.499,511.5 l 0,-39.308 c 10.855,0 19.654,-8.798 19.654,-19.654 0,-10.855 -8.798,-19.653 -19.654,-19.653 l 0,-157.58 c 3.646,1.481 7.624,2.314 11.792,2.314 17.339,0 31.446,-14.107 31.446,-31.446 0,-17.339 -14.107,-31.446 -31.446,-31.446 -4.169,0 -8.146,0.833 -11.792,2.314 l 0,-157.065 c 103.927,3.608 199.586,39.657 277.22,98.315 -14.576,2.729 -25.65,15.527 -25.65,30.886 -0.001,17.032 13.619,30.912 30.533,31.4 z M 152.114,364.096 c 0,-16.283 -13.197,-29.48 -29.48,-29.48 -16.284,0 -29.481,13.197 -29.481,29.48 0,16.284 13.197,29.481 29.481,29.481 16.283,0 29.48,-13.197 29.48,-29.481 z m 39.307,-226.019 c 0,-21.711 -17.596,-39.308 -39.308,-39.308 -21.712,0 -39.308,17.597 -39.308,39.308 0,21.711 17.596,39.308 39.308,39.308 21.712,0 39.308,-17.597 39.308,-39.308 z m 58.962,98.269 c 0,-10.855 -8.798,-19.653 -19.654,-19.653 -10.856,0 -19.654,8.798 -19.654,19.653 0,10.856 8.798,19.654 19.654,19.654 10.856,0 19.654,-8.798 19.654,-19.654 z m -139.577,9.827 c 0,-14.069 -11.446,-25.515 -25.515,-25.515 -3.376,0 -6.665,0.668 -9.792,1.987 l 0,47.056 c 3.128,1.319 6.417,1.987 9.792,1.987 14.069,0 25.515,-11.446 25.515,-25.515 z"
         style="display:inline;fill:#ffffff" /></g><g
       inkscape:transform-center-y="92.808301"
       inkscape:transform-center-x="-129.93055"
       id="g4173"
       transform="matrix(0,0.50853447,-0.50853447,0,380.11537,165.45982)"
       style="fill:#ffffff"><g
         id="g4175"
         style="fill:#ffffff" /><path
         style="display:inline;fill:#ffffff"
         d="m 65.077,40.184 0,-39.684 c 148.302,0 282.886,58.685 381.847,154.071 l -29.197,30.106 C 324.203,98.812 200.899,44.897 65.077,40.184 Z m 179.375,290.709 c -4.259,-7.916 -12.528,-12.931 -21.584,-12.931 -13.518,0 -24.515,10.997 -24.515,24.515 0,9.388 5.276,17.794 13.601,21.932 l 32.498,-33.516 z M 358.159,213.631 381.004,190.07 c 0.017,-0.302 0.027,-0.6 0.027,-0.894 0,-0.653 -0.036,-1.336 -0.11,-2.098 -8.714,-7.828 -17.658,-15.316 -26.616,-22.283 -12.593,1.125 -22.307,11.634 -22.307,24.381 0,13.518 10.999,24.516 24.518,24.516 0.534,0 1.078,-0.02 1.643,-0.061 z m -2.557,6.946 -104.62,107.893 c -5.167,-10.322 -15.812,-17.439 -28.114,-17.439 -17.339,0 -31.446,14.107 -31.446,31.446 0,12.645 7.52,23.543 18.311,28.533 L 73.499,511.5 l 0,-39.308 c 10.855,0 19.654,-8.798 19.654,-19.654 0,-10.855 -8.798,-19.653 -19.654,-19.653 l 0,-157.58 c 3.646,1.481 7.624,2.314 11.792,2.314 17.339,0 31.446,-14.107 31.446,-31.446 0,-17.339 -14.107,-31.446 -31.446,-31.446 -4.169,0 -8.146,0.833 -11.792,2.314 l 0,-157.065 c 103.927,3.608 199.586,39.657 277.22,98.315 -14.576,2.729 -25.65,15.527 -25.65,30.886 -0.001,17.032 13.619,30.912 30.533,31.4 z M 152.114,364.096 c 0,-16.283 -13.197,-29.48 -29.48,-29.48 -16.284,0 -29.481,13.197 -29.481,29.48 0,16.284 13.197,29.481 29.481,29.481 16.283,0 29.48,-13.197 29.48,-29.481 z m 39.307,-226.019 c 0,-21.711 -17.596,-39.308 -39.308,-39.308 -21.712,0 -39.308,17.597 -39.308,39.308 0,21.711 17.596,39.308 39.308,39.308 21.712,0 39.308,-17.597 39.308,-39.308 z m 58.962,98.269 c 0,-10.855 -8.798,-19.653 -19.654,-19.653 -10.856,0 -19.654,8.798 -19.654,19.653 0,10.856 8.798,19.654 19.654,19.654 10.856,0 19.654,-8.798 19.654,-19.654 z m -139.577,9.827 c 0,-14.069 -11.446,-25.515 -25.515,-25.515 -3.376,0 -6.665,0.668 -9.792,1.987 l 0,47.056 c 3.128,1.319 6.417,1.987 9.792,1.987 14.069,0 25.515,-11.446 25.515,-25.515 z"
         id="path4177"
         inkscape:connector-curvature="0" /></g><g
       transform="matrix(0.26969113,0.26969113,-0.26969113,0.26969113,251.40109,31.791446)"
       id="g4179"
       inkscape:transform-center-x="-99.006729"
       inkscape:transform-center-y="-68.320467"
       style="fill:#ffffff"><g
         id="g4181"
         style="fill:#ffffff" /><path
         inkscape:connector-curvature="0"
         id="path4183"
         d="m 65.077,40.184 0,-39.684 c 148.302,0 282.886,58.685 381.847,154.071 l -29.197,30.106 C 324.203,98.812 200.899,44.897 65.077,40.184 Z m 179.375,290.709 c -4.259,-7.916 -12.528,-12.931 -21.584,-12.931 -13.518,0 -24.515,10.997 -24.515,24.515 0,9.388 5.276,17.794 13.601,21.932 l 32.498,-33.516 z M 358.159,213.631 381.004,190.07 c 0.017,-0.302 0.027,-0.6 0.027,-0.894 0,-0.653 -0.036,-1.336 -0.11,-2.098 -8.714,-7.828 -17.658,-15.316 -26.616,-22.283 -12.593,1.125 -22.307,11.634 -22.307,24.381 0,13.518 10.999,24.516 24.518,24.516 0.534,0 1.078,-0.02 1.643,-0.061 z m -2.557,6.946 -104.62,107.893 c -5.167,-10.322 -15.812,-17.439 -28.114,-17.439 -17.339,0 -31.446,14.107 -31.446,31.446 0,12.645 7.52,23.543 18.311,28.533 L 73.499,511.5 l 0,-39.308 c 10.855,0 19.654,-8.798 19.654,-19.654 0,-10.855 -8.798,-19.653 -19.654,-19.653 l 0,-157.58 c 3.646,1.481 7.624,2.314 11.792,2.314 17.339,0 31.446,-14.107 31.446,-31.446 0,-17.339 -14.107,-31.446 -31.446,-31.446 -4.169,0 -8.146,0.833 -11.792,2.314 l 0,-157.065 c 103.927,3.608 199.586,39.657 277.22,98.315 -14.576,2.729 -25.65,15.527 -25.65,30.886 -0.001,17.032 13.619,30.912 30.533,31.4 z M 152.114,364.096 c 0,-16.283 -13.197,-29.48 -29.48,-29.48 -16.284,0 -29.481,13.197 -29.481,29.48 0,16.284 13.197,29.481 29.481,29.481 16.283,0 29.48,-13.197 29.48,-29.481 z m 39.307,-226.019 c 0,-21.711 -17.596,-39.308 -39.308,-39.308 -21.712,0 -39.308,17.597 -39.308,39.308 0,21.711 17.596,39.308 39.308,39.308 21.712,0 39.308,-17.597 39.308,-39.308 z m 58.962,98.269 c 0,-10.855 -8.798,-19.653 -19.654,-19.653 -10.856,0 -19.654,8.798 -19.654,19.653 0,10.856 8.798,19.654 19.654,19.654 10.856,0 19.654,-8.798 19.654,-19.654 z m -139.577,9.827 c 0,-14.069 -11.446,-25.515 -25.515,-25.515 -3.376,0 -6.665,0.668 -9.792,1.987 l 0,47.056 c 3.128,1.319 6.417,1.987 9.792,1.987 14.069,0 25.515,-11.446 25.515,-25.515 z"
         style="display:inline;fill:#ffffff" /></g></g><g
     id="g4290"
     transform="matrix(0.38370748,-0.05113633,0.05113633,0.38370748,144.19825,124.95043)"
     style="fill:#ffffff"><path
       id="path4284"
       d="m -107.3333,271.56979 c 2.56667,-1.09761 8.623433,-6.09984 13.459479,-11.11605 7.443413,-7.72073 9.050507,-10.24584 10.471987,-16.45375 0.923546,-4.03333 2.522333,-9.92065 3.552853,-13.08293 3.921693,-12.03415 -1.576373,-31.15108 -21.563359,-74.97629 -2.5232,-5.53256 -4.58763,-10.95965 -4.58763,-12.0602 0,-1.24963 4.49011,-3.92413 11.957936,-7.12264 6.576866,-2.81692 12.948146,-6.21583 14.1584,-7.55315 2.775066,-3.06641 1.67412,-10.16238 -2.22628,-14.34896 l -2.743414,-2.94472 -7.012906,4.01239 c -4.218631,2.41365 -8.830006,3.98169 -11.573326,3.93536 -2.85679,-0.0483 -17.30967,5.11696 -38.68884,13.82673 -18.77064,7.64708 -34.82064,14.33158 -35.66667,14.85444 -3.95001,2.44126 0.43971,14.90374 6.36696,18.0759 2.17199,1.16241 4.04285,0.77968 9.36035,-1.91491 3.6552,-1.85223 7.48203,-3.36768 8.50407,-3.36768 1.02205,0 4.06864,-1.5 6.77021,-3.33333 2.70156,-1.83334 5.7243,-3.33334 6.71718,-3.33334 2.68532,0 21.14839,44.66021 28.74824,69.53893 5.77413,18.90212 5.26869,21.58382 -6.1098,32.41602 -4.70916,4.48306 -8.56211,9.12385 -8.56211,10.31285 0,1.189 1.81956,3.69287 4.04345,5.56416 4.26932,3.59239 4.01259,3.60869 14.62322,-0.92883 z"
       style="fill:#ffffff;stroke-width:1.33333325"
       inkscape:connector-curvature="0" /><path
       id="path4282"
       d="m -2.4243033,187.48577 c 2.07914656,-1.74948 5.9250531,-4.07703 8.546453,-5.17232 3.5127066,-1.46769 5.5260133,-3.60792 7.6553603,-8.13791 1.589053,-3.38057 2.889186,-6.66002 2.889186,-7.28769 0,-0.62767 1.163267,-2.19396 2.58504,-3.48065 2.385413,-2.15876 2.820187,-2.17472 5.630013,-0.20664 1.674733,1.17302 4.561453,2.10804 6.41496,2.07781 4.692173,-0.0765 15.28832,-5.50117 15.760693,-8.06861 0.21488,-1.16796 -2.689653,-9.65295 -6.454547,-18.85552 -5.373333,-13.13415 -8.711173,-19.09171 -15.522986,-27.7062 L 16.402123,99.673797 10.23287,100.51938 c -11.02508006,1.51116 -11.09460006,2.1768 -2.4852803,23.79878 4.1721733,10.47825 7.5857733,20.07212 7.5857733,21.31969 0,1.24757 -1.27516,2.95077 -2.833693,3.78487 -1.558534,0.8341 -5.5018136,3.55317 -8.7628269,6.04236 -8.8366264,6.74514 -10.976333,5.09365 -19.0229991,-14.68254 -5.652227,-13.89144 -12.16616,-23.44921 -15.981386,-23.44921 -3.087894,0 -16.181733,5.26589 -18.62472,7.49023 -3.060347,2.78644 0.402067,15.58592 5.85536,21.64536 3.20512,3.56138 5.36112,8.2782 8.04872,17.60869 5.002733,17.36787 10.541773,24.10693 20.835892,25.34995 3.933774,0.47501 7.5562801,0.94812 8.0500135,1.05137 0.4937466,0.1032 2.5988266,-1.24367 4.6779732,-2.99316 z"
       style="fill:#ffffff;stroke-width:1.33333325"
       inkscape:connector-curvature="0" /><path
       id="path4280"
       d="m 110.78755,139.79904 12.85318,-6.86763 -0.82572,-6.02425 c -0.45413,-3.31334 -2.32329,-9.2954 -4.15368,-13.2935 -1.83038,-3.99808 -3.32797,-8.6903 -3.32797,-10.42716 0,-5.189343 4.63973,-15.830956 13.23187,-30.348395 4.4558,-7.528614 8.10146,-14.045973 8.10146,-14.483027 0,-1.4528 -12.98905,-10.35508 -15.10881,-10.35508 -3.411,0 -13.84824,20.703627 -14.92853,29.612706 -0.50771,4.187 -1.71584,8.687 -2.68475,10 -1.59608,2.162933 -2.07851,1.69776 -5.133146,-4.949453 -1.85432,-4.035213 -6.092213,-10.00692 -9.417533,-13.27048 -6.028174,-5.9162 -6.060814,-5.928573 -11.053293,-4.185706 -7.74668,2.70436 -11.007267,5.23428 -11.007267,8.540653 0,1.66076 5.413333,16.496933 12.02964,32.969262 6.616306,16.47232 12.639426,32.19968 13.38472,34.94968 0.766746,2.82914 2.186879,5 3.270866,5 1.05368,0 7.699723,-3.09042 14.768963,-6.86762 z"
       style="fill:#ffffff;stroke-width:1.33333325"
       inkscape:connector-curvature="0" /><path
       d="m 204.49161,41.666665 c -4.91697,-8.510119 -10.49159,-21.180613 -10.49159,-23.846252 0,-2.767254 4.42204,-4.423334 21.04899,-7.8829603 19.81849,-4.1237199 24.44636,-4.1504132 29.07656,-0.1676666 l 3.6076,3.1031199 -1.92416,7.883786 -1.92416,7.883787 -15.27575,10.25408 c -8.40165,5.639733 -16.26846,10.295626 -17.4818,10.346413 -1.33278,0.05573 -3.95954,-2.94252 -6.63569,-7.574307 z m 6.13029,82.854305 c 1.18014,-1.18012 6.17299,-3.82975 11.09524,-5.88804 12.7955,-5.35057 13.12914,-6.49591 6.92872,-23.785493 -2.79702,-7.799426 -5.47266,-15.157493 -5.94584,-16.351266 -0.62468,-1.575987 2.3382,-5.045453 10.81719,-12.666666 24.4612,-21.9866 28.4632,-26.20676 32.48579,-34.256666 4.97762,-9.96112 5.00348,-14.441253 0.1324,-22.9334129 C 255.20592,-10.41468 234.27062,-19.756373 215.03234,-14.163653 210.93886,-12.97364 205.77662,-12 203.5607,-12 c -3.69212,0 -20.22017,7.1657064 -28.2273,12.23789297 -1.83334,1.16133333 -5.00374,2.49945323 -7.04535,2.97359993 -7.8629,1.82608 -7.46325,4.2188932 6.36749,38.1234261 8.27824,20.293172 12.57303,32.494626 12.1903,34.632439 -0.36544,2.041146 2.4452,10.905053 7.36536,23.228119 11.64048,29.154813 12.01046,29.725773 16.41074,25.325493 z"
       style="fill:#ffffff;stroke-width:1.33333325"
       id="path4276"
       inkscape:connector-curvature="0" /><path
       id="path4274"
       d="m 347.89785,69.452598 c 15.47109,-6.854573 16.48276,-7.885987 13.63048,-13.896706 -1.20723,-2.544067 -2.19498,-5.550867 -2.19498,-6.6818 0,-1.13092 -1.28061,-2.9532 -2.84581,-4.049507 -1.5652,-1.096306 -3.98876,-5.378786 -5.38568,-9.516626 -1.39693,-4.13784 -3.97707,-9.72488 -5.73363,-12.415653 -1.75657,-2.690774 -4.22798,-7.592307 -5.49204,-10.892307 -2.85457,-7.4522795 -4.27552,-9.3350261 -7.03942,-9.3271594 -3.53468,0.010667 -18.06524,6.3422532 -19.42084,8.4633064 -0.86668,1.356053 1.33616,10.489706 7.17356,29.743759 10.48125,34.571293 10.17685,33.78676 13.10892,33.78676 1.33708,0 7.72682,-2.346334 14.19944,-5.214067 z"
       style="fill:#ffffff;stroke-width:1.33333325"
       inkscape:connector-curvature="0" /><path
       id="path4272"
       d="m 423.31011,12.009399 c 9.05444,-3.6615062 17.93913,-7.6247061 19.74375,-8.8071328 1.8046,-1.1824266 9.29721,-4.6366665 16.65024,-7.6760665 15.85832,-6.5551197 17.36078,-8.2315867 13.62925,-15.2075997 -3.90169,-7.29412 -9.36799,-7.41116 -23.76168,-0.50876 -6.08553,2.91828 -11.85215,6.254907 -12.81472,7.41472 -2.15821,2.600493 -5.26772,2.733107 -6.2148,0.26504 -0.38912,-1.01404 0.73747,-5.36404 2.50353,-9.666666 1.76607,-4.302614 3.93259,-12.322934 4.8145,-17.822933 0.8819,-5.5 2.44085,-13 3.46432,-16.666667 2.78273,-9.969373 4.9246,-23.184959 4.00006,-24.680892 -1.81744,-2.940667 -4.61144,-1.942694 -64.32454,22.975706 l -9.66667,4.03392 0,6.205626 c 0,3.413093 0.90791,7.50184 2.01756,9.086107 l 2.01758,2.880466 9.64909,-3.978493 c 5.30701,-2.188187 12.8614,-5.791187 16.78754,-8.006667 7.38482,-4.167199 10.86156,-4.266239 10.86156,-0.309426 0,1.25952 -3.3,14.772946 -7.33333,30.029839 -7.71829,29.195999 -8.31849,32.911986 -5.73333,35.497146 2.69382,2.693826 6.60613,1.859347 23.71009,-5.057267 z"
       style="fill:#ffffff;stroke-width:1.33333325"
       inkscape:connector-curvature="0" /><path
       id="path4270"
       d="m 307.25323,-7.2827468 c 2.86012,-1.80552 8.39819,-4.1047602 12.30684,-5.1094132 l 7.10662,-1.826653 -0.16668,-6.557267 c -0.0917,-3.606493 -1.11107,-8.807253 -2.2653,-11.557253 -2.48014,-5.909 -4.27242,-6.15992 -20.42541,-2.85956 -9.52025,1.94516 -15.14261,4.64308 -15.14261,7.266253 0,3.317534 9.89961,23.9266397 11.49318,23.9266397 1.04123,0 4.23324,-1.4772399 7.09336,-3.2827465 z"
       style="fill:#ffffff;stroke-width:1.33333325"
       inkscape:connector-curvature="0" /><path
       id="path4268"
       d="m 533.67172,-32.5304 c 9.53673,-3.958386 18.76199,-8.112679 20.50057,-9.231746 1.73858,-1.11908 8.56106,-4.236333 15.16106,-6.92724 16.02001,-6.531586 16.35961,-6.905306 13.37536,-14.719453 l -2.37806,-6.22684 -6.83198,0.593134 c -3.75759,0.326213 -9.23199,1.816053 -12.16532,3.310746 -2.93334,1.494707 -7.43334,3.79712 -10,5.116493 -2.56667,1.319374 -5.14648,3.19756 -5.73292,4.173747 -1.38468,2.304947 -4.82236,2.28328 -5.71235,-0.036 -0.3822,-0.996 0.78833,-5.646 2.60119,-10.333333 1.81284,-4.687347 3.98145,-12.72244 4.81913,-17.855773 0.83768,-5.133333 2.33892,-12.333333 3.33609,-15.999995 2.50704,-9.2186 4.74603,-23.49547 3.8995,-24.86519 -1.80098,-2.91404 -7.12294,-1.058 -54.87731,19.13857 l -19,8.035602 0,5.93316 c 0,3.26324 0.65534,7.157653 1.45628,8.654253 2.0366,3.805413 6.7632,2.646267 23.59555,-5.786573 10.37816,-5.19936 14.09372,-6.497613 15.25949,-5.33184 1.70983,1.709827 1.24901,3.901187 -8.79028,41.802506 -5.29072,19.974079 -5.69581,22.528439 -3.96465,24.999999 1.06048,1.514067 3.31888,2.75284 5.01864,2.75284 1.69977,0 10.89328,-3.23868 20.43001,-7.197067 z"
       style="fill:#ffffff;stroke-width:1.33333325"
       inkscape:connector-curvature="0" /><path
       d="m 631.91004,-72.947119 c -3.09935,-3.099346 -5.91003,-10.144026 -5.91003,-14.812879 0,-5.67068 4.85347,-11.875987 15.12989,-19.344052 8.64244,-6.28061 17.57882,-9.56359 21.71352,-7.97696 0.93087,0.35721 2.57374,3.14657 3.65082,6.19857 3.25337,9.218762 6.17244,19.270388 6.17244,21.254402 0,2.263693 -9.0305,7.30232 -23.03471,12.852386 -11.90783,4.719227 -14.55783,4.992653 -17.72193,1.828533 z m 21.5662,18.16276 c 9.27614,-3.626787 15.22854,-6.827707 17.7865,-9.56472 3.17316,-3.395266 5.2717,-4.281973 12.01614,-5.0772 5.5585,-0.6554 9.96488,-2.159346 13.77968,-4.703173 3.08446,-2.056813 8.00812,-4.06912 10.94145,-4.471773 4.82819,-0.66276 5.37211,-1.131867 5.74275,-4.95276 0.26254,-2.70664 -1.05054,-7.11276 -3.6605,-12.283066 -2.23844,-4.434329 -5.81693,-12.460319 -7.95218,-17.835529 -3.9504,-9.94455 -8.28934,-17.63671 -15.4634,-27.41387 -2.2,-2.99827 -6.4,-9.43389 -9.33334,-14.30139 -2.93333,-4.86749 -6.23333,-9.70636 -7.33333,-10.75304 C 664.28572,-171.57818 653.75566,-180 652.67153,-180 c -2.01812,0 -14.69035,5.10356 -24.00485,9.66763 -9.17762,4.49698 -25.36503,16.81593 -31.18464,23.73215 -5.20201,6.18224 -4.58747,9.3517 2.54712,13.13658 7.24365,3.84276 7.13005,3.8864 23.87066,-9.17165 6.5449,-5.10517 13.9403,-10.2504 16.43422,-11.43384 4.37644,-2.07676 4.71012,-2.03543 9.57912,1.18672 3.21352,2.12661 5.32097,4.70765 5.80574,7.11043 0.41856,2.0746 1.15282,4.7844 1.63167,6.0218 0.65732,1.69856 -0.52187,2.96021 -4.81252,5.14914 -3.12575,1.59463 -13.03833,9.45151 -22.02796,17.45972 -19.24345,17.142615 -24.51557,25.395109 -24.50264,38.354282 0.0155,15.505519 5.12487,23.664572 17.13476,27.361959 10.02512,3.086346 15.35903,2.495653 30.33403,-3.35928 z"
       style="fill:#ffffff;stroke-width:1.33333325"
       id="path4211"
       inkscape:connector-curvature="0" /></g></svg>