<?xml version="1.0" encoding="UTF-8" standalone="no"?>
<svg
   xmlns:dc="http://purl.org/dc/elements/1.1/"
   xmlns:cc="http://creativecommons.org/ns#"
   xmlns:rdf="http://www.w3.org/1999/02/22-rdf-syntax-ns#"
   xmlns:svg="http://www.w3.org/2000/svg"
   xmlns="http://www.w3.org/2000/svg"
   xmlns:sodipodi="http://sodipodi.sourceforge.net/DTD/sodipodi-0.dtd"
   xmlns:inkscape="http://www.inkscape.org/namespaces/inkscape"
   version="1.1"
   x="0px"
   y="0px"
   width="512px"
   height="512px"
   viewBox="0 0 512 512"
   style="enable-background:new 0 0 512 512;"
   xml:space="preserve"
   id="svg4141"
   inkscape:version="0.91+devel+osxmenu r12922"
   sodipodi:docname="plate.svg"
   inkscape:export-filename="/Users/golui/git/ujio2018/Android/app/src/main/res/mipmap-mdpi/plate.png"
   inkscape:export-xdpi="12.000001"
   inkscape:export-ydpi="12.000001"><metadata
     id="metadata4152"><rdf:RDF><cc:Work
         rdf:about=""><dc:format>image/svg+xml</dc:format><dc:type
           rdf:resource="http://purl.org/dc/dcmitype/StillImage" /><dc:title></dc:title></cc:Work></rdf:RDF></metadata><defs
     id="defs4150" /><sodipodi:namedview
     pagecolor="#000000"
     bordercolor="#666666"
     borderopacity="1"
     objecttolerance="10"
     gridtolerance="10"
     guidetolerance="10"
     inkscape:pageopacity="0"
     inkscape:pageshadow="2"
     inkscape:window-width="1185"
     inkscape:window-height="624"
     id="namedview4148"
     showgrid="true"
     inkscape:snap-bbox="true"
     inkscape:bbox-nodes="true"
     inkscape:bbox-paths="true"
     inkscape:snap-nodes="true"
     inkscape:snap-center="true"
     showguides="true"
     inkscape:guide-bbox="true"
     inkscape:zoom="0.60205406"
     inkscape:cx="75.001167"
     inkscape:cy="255.56077"
     inkscape:window-x="229"
     inkscape:window-y="23"
     inkscape:window-maximized="0"
     inkscape:current-layer="svg4141"><inkscape:grid
       type="xygrid"
       id="grid4154" /></sodipodi:namedview><path
     style="fill:#ffffff;fill-rule:evenodd;stroke:none;stroke-width:0.91184574px;stroke-linecap:butt;stroke-linejoin:miter;stroke-opacity:1"
     d="m 37.157025,197.15702 21.884297,0 0,-105.7741 14.589532,0 0,105.7741 21.884298,0 0,-105.7741 14.589528,0 0,134.95317 -29.17906,0 0,189.66391 -29.179064,0 0,-189.66391 -29.179063,0 0,-134.95317 14.589532,0 z"
     id="path4237"
     inkscape:connector-curvature="0"
     sodipodi:nodetypes="ccccccccccccccccc" /><path
     style="opacity:1;fill:#ffffff;fill-opacity:1;stroke:none;stroke-width:17.23173141;stroke-linecap:round;stroke-linejoin:round;stroke-miterlimit:4;stroke-dasharray:none"
     d="M 270.58953,124.20937 A 145.89532,145.89532 0 0 0 124.69421,270.10468 145.89532,145.89532 0 0 0 270.58953,416 145.89532,145.89532 0 0 0 416.48485,270.10468 145.89532,145.89532 0 0 0 270.58953,124.20937 Z m 0,14.58953 A 131.30579,131.30579 0 0 1 401.89532,270.10468 131.30579,131.30579 0 0 1 270.58953,401.41047 131.30579,131.30579 0 0 1 139.28375,270.10468 131.30579,131.30579 0 0 1 270.58953,138.7989 Z"
     id="path4243"
     inkscape:connector-curvature="0" /><circle
     r="102.12672"
     cy="270.10468"
     cx="270.58954"
     id="circle4245"
     style="opacity:1;fill:#ffffff;fill-opacity:1;stroke:none;stroke-width:12.06221104;stroke-linecap:round;stroke-linejoin:round;stroke-miterlimit:4;stroke-dasharray:none" /><path
     style="fill:#ffffff;fill-rule:evenodd;stroke:none;stroke-width:0.91184574px;stroke-linecap:butt;stroke-linejoin:miter;stroke-opacity:1"
     d="m 445.66391,240.92562 14.58953,0 0,175.07438 29.17907,0 0,-306.38017 c 0,-32.826442 -43.7686,-32.826442 -43.7686,0 z"
     id="path4250"
     inkscape:connector-curvature="0"
     sodipodi:nodetypes="ccccccc" /></svg>