<?xml version="1.0" encoding="UTF-8" standalone="no"?><!-- Created with Inkscape (http://www.inkscape.org/) -->

<svg xmlns:dc="http://purl.org/dc/elements/1.1/" xmlns:cc="http://creativecommons.org/ns#"
    xmlns:rdf="http://www.w3.org/1999/02/22-rdf-syntax-ns#" xmlns:svg="http://www.w3.org/2000/svg"
    xmlns="http://www.w3.org/2000/svg"
    xmlns:sodipodi="http://sodipodi.sourceforge.net/DTD/sodipodi-0.dtd"
    xmlns:inkscape="http://www.inkscape.org/namespaces/inkscape" width="210mm" height="297mm"
    viewBox="0 0 210 297" id="svg2" version="1.1" inkscape:version="0.91+devel+osxmenu r12922"
    sodipodi:docname="wylewy48.svg">
    <defs id="defs4" />
    <sodipodi:namedview id="base" pagecolor="#ffffff" bordercolor="#666666" borderopacity="1.0"
        inkscape:pageopacity="0.0" inkscape:pageshadow="2" inkscape:zoom="0.58066799"
        inkscape:cx="323.09374" inkscape:cy="556.07126" inkscape:document-units="mm"
        inkscape:current-layer="layer1" showgrid="false" inkscape:object-paths="true"
        inkscape:snap-smooth-nodes="true" inkscape:snap-intersection-paths="true"
        inkscape:snap-grids="true" inkscape:snap-text-baseline="true" inkscape:window-width="1440"
        inkscape:window-height="810" inkscape:window-x="0" inkscape:window-y="23"
        inkscape:window-maximized="0">
        <inkscape:grid type="xygrid" id="grid8146" />
    </sodipodi:namedview>
    <metadata id="metadata7">
        <rdf:RDF>
            <cc:Work rdf:about="">
                <dc:format>image/svg+xml</dc:format>
                <dc:type rdf:resource="http://purl.org/dc/dcmitype/StillImage" />
                <dc:title></dc:title>
            </cc:Work>
        </rdf:RDF>
    </metadata>
    <g inkscape:label="Layer 1" inkscape:groupmode="layer" id="layer1"
        style="display:inline;opacity:0.79">
        <rect
            style="opacity:1;fill:#59ddab;fill-opacity:1;stroke:#db607f;stroke-width:0.26458332;stroke-linecap:round;stroke-linejoin:miter;stroke-miterlimit:4;stroke-dasharray:none;stroke-dashoffset:11.33858299;stroke-opacity:1"
            id="rect8446" width="211.66666" height="296.33334" x="0" y="0.66666663" />
        <path
            style="fill:#8ae7c4;fill-opacity:1;fill-rule:evenodd;stroke:none;stroke-width:0.99999994px;stroke-linecap:butt;stroke-linejoin:miter;stroke-opacity:1"
            d="m 511.84961,242.25977 -220.02653,655.99992 220.58317,224.25981 287.59375,0 0,-592.01169 z"
            transform="scale(0.26458333)" id="path8537" inkscape:connector-curvature="0"
            sodipodi:nodetypes="cccccc" />
        <rect
            style="opacity:1;fill:#4ac5ed;fill-opacity:1;stroke:none;stroke-width:3.96875;stroke-linecap:round;stroke-linejoin:miter;stroke-miterlimit:4;stroke-dasharray:none;stroke-dashoffset:11.33858299;stroke-opacity:1"
            id="rect8452" width="59.266666" height="101.60001" x="80.393761" y="136.06458" />
        <path
            style="fill:#fa678e;fill-opacity:1;fill-rule:evenodd;stroke:none;stroke-width:20;stroke-linecap:butt;stroke-linejoin:miter;stroke-miterlimit:4;stroke-dasharray:none;stroke-opacity:1"
            d="m 84.62709,64.097911 c 12.7,-6.35 38.1,-6.35 50.8,0 l 8.46667,71.966669 -67.733336,0 z"
            id="path8148" inkscape:connector-curvature="0" sodipodi:nodetypes="ccccc" />
        <path
            style="fill:#ff0000;fill-opacity:0;fill-rule:evenodd;stroke:none;stroke-width:20;stroke-linecap:butt;stroke-linejoin:miter;stroke-miterlimit:4;stroke-dasharray:none;stroke-opacity:1"
            d="m 142.04374,117.56541 -64.824984,7.91584 -1.058334,10.58329 67.733338,0 z"
            id="path8435" inkscape:connector-curvature="0" sodipodi:nodetypes="ccccc" />
        <path
            style="color:#000000;font-style:normal;font-variant:normal;font-weight:normal;font-stretch:normal;font-size:medium;line-height:normal;font-family:sans-serif;font-variant-ligatures:none;font-variant-position:normal;font-variant-caps:normal;font-variant-numeric:normal;font-variant-alternates:normal;font-feature-settings:normal;text-indent:0;text-align:start;text-decoration:none;text-decoration-line:none;text-decoration-style:solid;text-decoration-color:#000000;letter-spacing:normal;word-spacing:normal;text-transform:none;direction:ltr;block-progression:tb;writing-mode:lr-tb;baseline-shift:baseline;text-anchor:start;white-space:normal;shape-padding:0;clip-rule:nonzero;display:inline;overflow:visible;visibility:visible;opacity:1;isolation:auto;mix-blend-mode:normal;color-interpolation:sRGB;color-interpolation-filters:linearRGB;solid-color:#000000;solid-opacity:1;fill:#b4294c;fill-opacity:1;fill-rule:evenodd;stroke:none;stroke-width:4.19387531;stroke-linecap:butt;stroke-linejoin:miter;stroke-miterlimit:4;stroke-dasharray:none;stroke-dashoffset:0;stroke-opacity:1;color-rendering:auto;image-rendering:auto;shape-rendering:auto;text-rendering:auto;enable-background:accumulate"
            d="m 95.14376,111.59109 c -2.099365,0 -3.615952,0.7661 -4.632793,1.08986 -1.199044,0.38179 -2.451801,1.02526 -4.230232,1.02526 -1.778434,0 -3.031705,-0.64347 -4.230749,-1.02526 -0.735856,-0.2343 -1.737315,-0.69689 -3.028241,-0.93638 l -0.155546,1.32137 c 1.06239,0.21218 1.937941,0.6062 2.781742,0.87488 1.016842,0.32377 2.533425,1.08986 4.632794,1.08986 2.099365,0 3.615951,-0.76609 4.632793,-1.08986 1.199046,-0.38179 2.451798,-1.02733 4.230232,-1.02733 1.778434,0 3.033252,0.64554 4.232299,1.02733 1.016841,0.32377 2.531881,1.08986 4.631241,1.08986 2.09938,0 3.61596,-0.76609 4.63279,-1.08986 1.19904,-0.38178 2.45182,-1.02733 4.23024,-1.02733 1.77843,0 3.03326,0.64555 4.2323,1.02733 1.01685,0.32377 2.53393,1.08986 4.63331,1.08986 2.09936,0 3.61388,-0.76609 4.63072,-1.08986 1.19904,-0.38178 2.45387,-1.02733 4.2323,-1.02733 1.77844,0 3.03119,0.64555 4.23023,1.02733 1.01684,0.32377 2.53395,1.08986 4.63331,1.08986 0.71231,0 1.35054,-0.092 1.93063,-0.22169 l -0.15606,-1.32499 c -0.5365,0.13068 -1.1175,0.22221 -1.77457,0.22221 -1.77843,0 -3.03171,-0.64347 -4.23075,-1.02526 -1.01684,-0.32376 -2.53342,-1.08986 -4.63279,-1.08986 -2.09936,0 -3.61596,0.7661 -4.63279,1.08986 -1.19905,0.38179 -2.45181,1.02526 -4.23023,1.02526 -1.77845,0 -3.03376,-0.64347 -4.23282,-1.02526 -1.01683,-0.32376 -2.53342,-1.08986 -4.63279,-1.08986 -2.09936,0 -3.6139,0.7661 -4.63073,1.08986 -1.19904,0.38179 -2.45385,1.02526 -4.2323,1.02526 -1.77842,0 -3.0317,-0.64347 -4.230749,-1.02526 -1.016836,-0.32376 -2.533425,-1.08986 -4.632791,-1.08986 z m 0,3.04323 c -2.259832,0 -3.906012,0.82403 -4.831747,1.11879 -1.290148,0.4108 -2.413312,0.99633 -4.031278,0.99633 -1.61797,0 -2.739057,-0.58553 -4.029213,-0.99633 -0.743873,-0.23685 -1.961031,-0.80978 -3.580659,-1.02784 l -0.309025,2.62671 c 1.142058,0.16635 2.061874,0.59731 3.084568,0.92295 0.925734,0.29476 2.574496,1.12086 4.834329,1.12086 2.25983,0 3.908078,-0.8261 4.833813,-1.12086 1.290156,-0.4108 2.411243,-0.99632 4.029212,-0.99632 1.61797,0 2.741126,0.58552 4.031279,0.99632 0.925731,0.29476 2.572431,1.12086 4.832261,1.12086 2.25984,0 3.90808,-0.8261 4.83382,-1.12086 1.29014,-0.4108 2.41125,-0.99632 4.02921,-0.99632 1.61797,0 2.74112,0.58552 4.03128,0.99632 0.92574,0.29476 2.57448,1.12086 4.83433,1.12086 2.25983,0 3.90601,-0.8261 4.83174,-1.12086 1.29014,-0.4108 2.41332,-0.99632 4.03128,-0.99632 1.61797,0 2.73906,0.58552 4.02921,0.99632 0.92574,0.29476 2.5745,1.12086 4.83433,1.12086 0.9189,0 1.72483,-0.14118 2.43241,-0.3235 l -0.31419,-2.66702 c -0.63898,0.19569 -1.31571,0.34417 -2.11822,0.34417 -1.61796,0 -2.74114,-0.58553 -4.03128,-0.99633 -0.92572,-0.29476 -2.57242,-1.11879 -4.83226,-1.11879 -2.25983,0 -3.90809,0.82403 -4.83381,1.11879 -1.29016,0.4108 -2.41126,0.99633 -4.02921,0.99633 -1.61798,0 -2.74112,-0.58553 -4.03128,-0.99633 -0.92573,-0.29476 -2.5745,-1.11879 -4.83433,-1.11879 -2.25983,0 -3.90603,0.82403 -4.83175,1.11879 -1.29014,0.4108 -2.4133,0.99633 -4.03128,0.99633 -1.61796,0 -2.73906,-0.58553 -4.029211,-0.99633 -0.925732,-0.29476 -2.574496,-1.11879 -4.834329,-1.11879 z m 0,4.51756 c -2.447607,0 -4.249295,0.89518 -5.068424,1.156 -1.396754,0.44474 -2.364409,0.95911 -3.794601,0.95911 -1.430198,0 -2.398358,-0.51437 -3.795118,-0.95911 -0.7352,-0.2341 -2.263862,-0.97739 -4.338753,-1.12758 l -0.491443,4.17545 c 1.300168,0.0541 2.240804,0.52921 3.556889,0.94826 0.819129,0.26083 2.620817,1.15808 5.068425,1.15808 2.447604,0 4.249295,-0.89725 5.068424,-1.15808 1.396759,-0.44473 2.364407,-0.95911 3.794601,-0.95911 1.430195,0 2.40043,0.51438 3.797184,0.95911 0.819129,0.26083 2.618756,1.15808 5.066356,1.15808 2.44762,0 4.24929,-0.89725 5.06843,-1.15808 1.39673,-0.44473 2.36442,-0.95911 3.7946,-0.95911 1.43019,0 2.40043,0.51438 3.79718,0.95911 0.81914,0.26083 2.62082,1.15808 5.06843,1.15808 2.4476,0 4.24721,-0.89725 5.06635,-1.15808 1.39674,-0.44473 2.36648,-0.95911 3.79667,-0.95911 1.4302,0 2.39836,0.51438 3.79512,0.95911 0.81912,0.26083 2.62082,1.15808 5.06842,1.15808 1.22313,0 2.2695,-0.22589 3.12694,-0.48266 l -0.50177,-4.26796 c -0.84973,0.30203 -1.62853,0.55552 -2.62517,0.55552 -1.43019,0 -2.39835,-0.51437 -3.79512,-0.95911 -0.81911,-0.26082 -2.62081,-1.156 -5.06842,-1.156 -2.4476,0 -4.24929,0.89518 -5.06842,1.156 -1.39677,0.44474 -2.36442,0.95911 -3.7946,0.95911 -1.4302,0 -2.40042,-0.51437 -3.79719,-0.95911 -0.81913,-0.26082 -2.62081,-1.156 -5.06842,-1.156 -2.44761,0 -4.24723,0.89518 -5.06636,1.156 -1.39675,0.44474 -2.36646,0.95911 -3.79667,0.95911 -1.43019,0 -2.39835,-0.51437 -3.79511,-0.95911 -0.819134,-0.26082 -2.620825,-1.156 -5.06843,-1.156 z m 47.9671,10.25777 -66.199063,0.2682 -0.751375,6.38669 67.733338,0 -0.7829,-6.65489 z"
            id="path8368" inkscape:connector-curvature="0" />
        <path
            style="fill:none;fill-rule:evenodd;stroke:#db607f;stroke-width:6.61458349;stroke-linecap:round;stroke-linejoin:miter;stroke-miterlimit:4;stroke-dasharray:none;stroke-opacity:1"
            d="m 74.043757,136.06458 71.966663,0" id="path8433" inkscape:connector-curvature="0"
            sodipodi:nodetypes="cc" />
        <path
            style="fill:#61e1ff;fill-opacity:0;fill-rule:evenodd;stroke:#4ac5ed;stroke-width:3.96875;stroke-linecap:round;stroke-linejoin:miter;stroke-miterlimit:4;stroke-dasharray:none;stroke-opacity:1"
            d="m 110.02709,125.48125 40.21666,-19.04999" id="path8448"
            inkscape:connector-curvature="0" />
        <path
            style="color:#000000;font-style:normal;font-variant:normal;font-weight:normal;font-stretch:normal;font-size:medium;line-height:normal;font-family:sans-serif;font-variant-ligatures:none;font-variant-position:normal;font-variant-caps:normal;font-variant-numeric:normal;font-variant-alternates:normal;font-feature-settings:normal;text-indent:0;text-align:start;text-decoration:none;text-decoration-line:none;text-decoration-style:solid;text-decoration-color:#000000;letter-spacing:normal;word-spacing:normal;text-transform:none;direction:ltr;block-progression:tb;writing-mode:lr-tb;baseline-shift:baseline;text-anchor:start;white-space:normal;shape-padding:0;clip-rule:nonzero;display:inline;overflow:visible;visibility:visible;opacity:1;isolation:auto;mix-blend-mode:normal;color-interpolation:sRGB;color-interpolation-filters:linearRGB;solid-color:#000000;solid-opacity:1;fill:#61e1ff;fill-opacity:1;fill-rule:evenodd;stroke:none;stroke-width:21.16666603;stroke-linecap:round;stroke-linejoin:miter;stroke-miterlimit:4;stroke-dasharray:none;stroke-dashoffset:0;stroke-opacity:1;color-rendering:auto;image-rendering:auto;shape-rendering:auto;text-rendering:auto;enable-background:accumulate"
            d="m 80.551886,180.38225 a 10.58439,10.58439 0 0 0 -9.624737,15.44918 l 8.084262,16.16697 -4.705657,-3.76462 a 10.58439,10.58439 0 0 0 -6.847642,-2.41226 10.58439,10.58439 0 0 0 -6.374807,18.94148 l 16.128217,12.90154 65.977368,0 11.28923,-8.46615 a 10.58439,10.58439 0 0 0 -6.10195,-19.14044 10.58439,10.58439 0 0 0 -6.5996,2.2071 l -1.38648,1.03973 4.50361,-9.00668 a 10.58439,10.58439 0 0 0 -8.88628,-15.43937 10.58439,10.58439 0 0 0 -10.04694,5.97276 l -5.35006,10.70116 0,-5.96863 a 10.58439,10.58439 0 0 0 -10.74198,-10.73268 10.58439,10.58439 0 0 0 -10.42365,10.73268 l 0,5.96966 -9.583912,-19.16885 a 10.58439,10.58439 0 0 0 -9.308992,-5.98258 z"
            id="path8454" inkscape:connector-curvature="0" />
        <path
            style="fill:none;fill-rule:evenodd;stroke:#f9f9f9;stroke-width:4;stroke-linecap:round;stroke-linejoin:miter;stroke-miterlimit:4;stroke-dasharray:none;stroke-opacity:1"
            d="m 135.42709,144.53125 0,14.81666" id="path8515" inkscape:connector-curvature="0" />
        <path
            style="fill:none;fill-rule:evenodd;stroke:#f9f9f9;stroke-width:4;stroke-linecap:round;stroke-linejoin:miter;stroke-miterlimit:4;stroke-dasharray:none;stroke-opacity:1"
            d="m 129.07709,144.53125 0,27.51666" id="path8517" inkscape:connector-curvature="0" />
        <circle
            style="opacity:1;fill:#61e1ff;fill-opacity:0.95294118;stroke:none;stroke-width:4.00001001;stroke-linecap:round;stroke-linejoin:round;stroke-miterlimit:4;stroke-dasharray:none;stroke-dashoffset:11.33858299;stroke-opacity:0.95294118"
            id="path8519" cx="47.585426" cy="202.73958" r="2.1166718" />
        <circle r="4.2333341" cy="180.51459" cx="63.460426" id="circle8521"
            style="opacity:1;fill:#4bc5ed;fill-opacity:0.95294118;stroke:none;stroke-width:8.00000191;stroke-linecap:round;stroke-linejoin:round;stroke-miterlimit:4;stroke-dasharray:none;stroke-dashoffset:11.33858299;stroke-opacity:0.95294118" />
        <circle
            style="opacity:1;fill:#4bc5ed;fill-opacity:0.95294118;stroke:none;stroke-width:8.00000668;stroke-linecap:round;stroke-linejoin:round;stroke-miterlimit:4;stroke-dasharray:none;stroke-dashoffset:11.33858299;stroke-opacity:0.95294118"
            id="circle8523" cx="160.29791" cy="204.85628" r="4.2333364" />
        <circle r="4.2333355" cy="177.33958" cx="101.56042" id="circle8525"
            style="opacity:1;fill:#61e1ff;fill-opacity:0.95294118;stroke:none;stroke-width:8.00000477;stroke-linecap:round;stroke-linejoin:round;stroke-miterlimit:4;stroke-dasharray:none;stroke-dashoffset:11.33858299;stroke-opacity:0.95294118" />
        <circle
            style="opacity:1;fill:#61e1ff;fill-opacity:0.95294118;stroke:none;stroke-width:5.99998522;stroke-linecap:round;stroke-linejoin:round;stroke-miterlimit:4;stroke-dasharray:none;stroke-dashoffset:11.33858299;stroke-opacity:0.95294118"
            id="circle8527" cx="143.89375" cy="182.63126" r="3.1749918" />
        <circle r="2.1166654" cy="182.63127" cx="125.90208" id="circle8529"
            style="opacity:1;fill:#61e1ff;fill-opacity:0.95294118;stroke:none;stroke-width:3.99999809;stroke-linecap:round;stroke-linejoin:round;stroke-miterlimit:4;stroke-dasharray:none;stroke-dashoffset:11.33858299;stroke-opacity:0.95294118" />
        <path
            style="color:#000000;font-style:normal;font-variant:normal;font-weight:normal;font-stretch:normal;font-size:medium;line-height:normal;font-family:sans-serif;font-variant-ligatures:none;font-variant-position:normal;font-variant-caps:normal;font-variant-numeric:normal;font-variant-alternates:normal;font-feature-settings:normal;text-indent:0;text-align:start;text-decoration:none;text-decoration-line:none;text-decoration-style:solid;text-decoration-color:#000000;letter-spacing:normal;word-spacing:normal;text-transform:none;direction:ltr;block-progression:tb;writing-mode:lr-tb;baseline-shift:baseline;text-anchor:start;white-space:normal;shape-padding:0;clip-rule:nonzero;display:inline;overflow:visible;visibility:visible;opacity:1;isolation:auto;mix-blend-mode:normal;color-interpolation:sRGB;color-interpolation-filters:linearRGB;solid-color:#000000;solid-opacity:1;fill:#f9f9f9;fill-opacity:1;fill-rule:evenodd;stroke:none;stroke-width:37.79527664;stroke-linecap:round;stroke-linejoin:miter;stroke-miterlimit:4;stroke-dasharray:none;stroke-dashoffset:0;stroke-opacity:1;color-rendering:auto;image-rendering:auto;shape-rendering:auto;text-rendering:auto;enable-background:accumulate"
            d="M 143.99805 143.62109 A 18.899528 18.899528 0 1 0 143.99805 181.41797 L 656 181.41797 A 18.899528 18.899528 0 1 0 656 143.62109 L 635.6875 143.62109 C 631.17287 163.27066 602.22992 168.25446 585.69336 158.70312 C 578.98988 153.21708 575.06423 147.16817 577.24219 162.07617 C 547.40104 169.02606 549.4964 144.0394 519.27148 151.37305 C 518.563 148.67407 518.19682 146.09936 518.09375 143.62109 L 496.12109 143.62109 C 492.42269 154.87276 487.94861 165.66101 480.13281 174.39062 C 470.25891 180.77371 448.84195 181.84968 445.76367 171.26758 C 448.90283 138.1064 435.16936 173.33242 414.38672 160.51367 C 415.52477 153.57085 377.07488 175.85144 378.28516 145.74023 C 372.00989 160.18195 355.2321 165.03489 340.74023 162.63086 C 331.79284 165.3095 319.04218 144.77763 322.78711 162.07617 C 293.05782 178.69649 290.79945 131.7545 287.44531 152.91602 C 284.91271 170.38218 268.95448 183.40039 251.18359 178.33203 C 233.64659 166.03671 245.08887 154.7737 213.15234 162.07617 C 202.32866 135.42007 204.46974 172.58505 175.44531 162.07617 C 171.33163 157.50938 168.78811 150.98719 166.92188 143.62109 L 143.99805 143.62109 z M 241.55859 143.62109 C 242.27928 148.99089 245.72645 154.29804 253.73047 152.8125 C 252.95954 149.11772 252.16305 146.11808 251.36328 143.62109 L 241.55859 143.62109 z M 445.49414 143.62109 C 445.61178 148.73687 448.9198 154.1641 458.26758 152.8125 C 457.60599 149.05372 456.85319 146.02921 456.05273 143.62109 L 445.49414 143.62109 z "
            transform="scale(0.26458333)" id="path8542" />
        <g style="font-style:normal;font-variant:normal;font-weight:normal;font-stretch:normal;font-size:21.16666603px;line-height:125%;font-family:'Arial Black';-inkscape-font-specification:'Arial Black, ';letter-spacing:0px;word-spacing:0px;fill:#000000;fill-opacity:1;stroke:none;stroke-width:0.26458332px;stroke-linecap:butt;stroke-linejoin:miter;stroke-opacity:1"
            aria-label="Wylewy 48" id="text8531">
            <path
                d="m 43.65491,25.731802 4.444173,0 1.601969,8.464599 2.335775,-8.464599 4.433838,0 2.34611,8.464599 1.601969,-8.464599 4.423502,0 -3.338297,15.151529 -4.588867,0 -2.656169,-9.539469 -2.645833,9.539469 -4.588867,0 -3.369303,-15.151529 z"
                style="stroke-width:0.26458332px" id="path8605" />
            <path
                d="m 64.883588,29.907257 4.444173,0 2.263427,7.307048 2.098063,-7.307048 4.14445,0 -4.351155,11.73055 q -0.744141,2.005046 -1.519287,2.707845 -1.095541,0.992188 -3.338298,0.992188 -0.909505,0 -2.811198,-0.248047 l -0.330729,-2.935222 q 0.909505,0.289389 2.025716,0.289389 0.744141,0 1.198893,-0.341065 0.465088,-0.341064 0.785482,-1.219564 L 64.883588,29.907257 Z"
                style="stroke-width:0.26458332px" id="path8607" />
            <path d="m 79.187625,25.731802 4.216796,0 0,15.151529 -4.216796,0 0,-15.151529 z"
                style="stroke-width:0.26458332px" id="path8609" />
            <path
                d="m 98.297569,36.439158 -8.433594,0 q 0.113689,1.012858 0.547771,1.508952 0.609781,0.713135 1.591634,0.713135 0.620117,0 1.178222,-0.310059 0.341065,-0.19637 0.733806,-0.692464 l 4.144449,0.382406 q -0.950846,1.653645 -2.294433,2.377115 -1.343587,0.713135 -3.855062,0.713135 -2.180745,0 -3.431315,-0.609782 -1.25057,-0.620117 -2.077392,-1.953369 -0.816488,-1.343587 -0.816488,-3.152262 0,-2.573486 1.64331,-4.16512 1.653646,-1.591634 4.557862,-1.591634 2.356445,0 3.720703,0.713134 1.364257,0.713135 2.077392,2.067058 0.713135,1.353922 0.713135,3.524332 l 0,0.475423 z M 94.01876,34.423777 q -0.124023,-1.219563 -0.661458,-1.746663 -0.5271,-0.527099 -1.395264,-0.527099 -1.002522,0 -1.601969,0.795817 -0.382405,0.496093 -0.485758,1.477945 l 4.144449,0 z"
                style="stroke-width:0.26458332px" id="path8611" />
            <path
                d="m 99.010704,29.907257 4.072106,0 1.76733,6.914307 2.23242,-6.914307 3.79305,0 2.31511,6.914307 1.76733,-6.914307 4.0411,0 -4.0411,10.976074 -3.74137,0 -2.22209,-6.604248 -2.14974,6.604248 -3.76204,0 -4.072106,-10.976074 z"
                style="stroke-width:0.26458332px" id="path8613" />
            <path
                d="m 118.99915,29.907257 4.44417,0 2.26343,7.307048 2.09806,-7.307048 4.14445,0 -4.35115,11.73055 q -0.74414,2.005046 -1.51929,2.707845 -1.09554,0.992188 -3.3383,0.992188 -0.9095,0 -2.8112,-0.248047 l -0.33073,-2.935222 q 0.90951,0.289389 2.02572,0.289389 0.74414,0 1.19889,-0.341065 0.46509,-0.341064 0.78549,-1.219564 l -4.60954,-10.976074 z"
                style="stroke-width:0.26458332px" id="path8615" />
            <path
                d="m 147.05945,38.051463 -7.66879,0 0,-3.462321 7.66879,-9.115722 3.66902,0 0,9.312092 1.90169,0 0,3.265951 -1.90169,0 0,2.831868 -3.66902,0 0,-2.831868 z m 0,-3.265951 0,-4.764566 -4.05144,4.764566 4.05144,0 z"
                style="stroke-width:0.26458332px" id="path8617" />
            <path
                d="m 156.49556,32.739126 q -0.99219,-0.5271 -1.44694,-1.178223 -0.62012,-0.888834 -0.62012,-2.046386 0,-1.901693 1.78801,-3.110922 1.39526,-0.930175 3.6897,-0.930175 3.03857,0 4.48551,1.157552 1.45728,1.157552 1.45728,2.91455 0,1.023194 -0.57878,1.912028 -0.43408,0.661459 -1.36426,1.281576 1.2299,0.589111 1.82935,1.560628 0.60978,0.971517 0.60978,2.14974 0,1.136881 -0.5271,2.129068 -0.51676,0.981853 -1.28158,1.519288 -0.75447,0.537434 -1.89135,0.785481 -1.12655,0.258382 -2.40812,0.258382 -2.40813,0 -3.67937,-0.56844 -1.27124,-0.568441 -1.93269,-1.674317 -0.66146,-1.105875 -0.66146,-2.470133 0,-1.333252 0.62011,-2.253092 0.62012,-0.930176 1.91203,-1.436605 z m 1.89136,-2.976563 q 0,0.785482 0.48576,1.271241 0.49609,0.475423 1.31258,0.475423 0.72347,0 1.18856,-0.475423 0.46509,-0.475424 0.46509,-1.229899 0,-0.785482 -0.48576,-1.271241 -0.48576,-0.496093 -1.24024,-0.496093 -0.76481,0 -1.25057,0.485758 -0.47542,0.475423 -0.47542,1.240234 z m -0.22738,6.521566 q 0,1.002523 0.60979,1.64331 0.60978,0.630453 1.39526,0.630453 0.75447,0 1.35392,-0.640788 0.59945,-0.651123 0.59945,-1.64331 0,-1.002523 -0.60978,-1.643311 -0.59945,-0.640788 -1.39527,-0.640788 -0.78548,0 -1.37459,0.620118 -0.57878,0.620117 -0.57878,1.674316 z"
                style="stroke-width:0.26458332px" id="path8619" />
        </g>
        <g style="font-style:normal;font-variant:normal;font-weight:normal;font-stretch:normal;font-size:14.99391365px;line-height:125%;font-family:'Arial Black';-inkscape-font-specification:'Arial Black, ';letter-spacing:0px;word-spacing:0px;fill:#f2f2f2;fill-opacity:1;stroke:none;stroke-width:0.18742391px;stroke-linecap:butt;stroke-linejoin:miter;stroke-opacity:1"
            aria-label="Płatność w toku" id="text8554">
            <path
                d="m 59.910936,271.60001 2.247623,-10.73295 4.480603,0 q 1.164078,0 1.742457,0.27088 0.5857,0.26357 0.966404,0.91516 0.380705,0.64427 0.380705,1.44961 0,0.66623 -0.270886,1.35443 -0.270886,0.68819 -0.688197,1.13479 -0.40999,0.4466 -0.834622,0.67356 -0.424633,0.22695 -0.907835,0.33677 -1.032296,0.2416 -2.086555,0.2416 l -2.686898,0 -0.907834,4.35615 -1.434965,0 z m 2.599043,-5.57147 2.364763,0 q 1.376394,0 2.020664,-0.29285 0.644269,-0.30017 1.032295,-0.90784 0.388027,-0.60766 0.388027,-1.28854 0,-0.52713 -0.204995,-0.85658 -0.204995,-0.33678 -0.578379,-0.49053 -0.373383,-0.16106 -1.434964,-0.16106 l -2.752789,0 -0.834622,3.9974 z"
                style="font-style:italic;font-variant:normal;font-weight:normal;font-stretch:normal;font-family:Arial;-inkscape-font-specification:'Arial Italic';fill:#f2f2f2;stroke-width:0.18742391px"
                id="path8578" />
            <path
                d="m 70.673169,267.03887 -1.112829,0.59302 0.241601,-1.14211 1.112829,-0.5857 1.046939,-5.03702 1.325145,0 -0.885871,4.24632 1.156757,-0.61498 -0.23428,1.13479 -1.156757,0.61498 -1.12015,5.35184 -1.325146,0 0.951762,-4.56114 z"
                style="font-style:italic;font-variant:normal;font-weight:normal;font-stretch:normal;font-family:Arial;-inkscape-font-specification:'Arial Italic';fill:#f2f2f2;stroke-width:0.18742391px"
                id="path8580" />
            <path
                d="m 78.360478,270.6336 q -0.688197,0.59302 -1.325145,0.87123 -0.636949,0.27089 -1.361752,0.27089 -1.076224,0 -1.735136,-0.62963 -0.658912,-0.63695 -0.658912,-1.62532 0,-0.65159 0.29285,-1.14943 0.300171,-0.50517 0.790694,-0.80534 0.490524,-0.30749 1.200685,-0.43928 0.446596,-0.0879 1.691208,-0.1391 1.251933,-0.0512 1.793706,-0.26356 0.153746,-0.54178 0.153746,-0.90052 0,-0.46124 -0.336778,-0.7248 -0.461238,-0.36606 -1.347109,-0.36606 -0.834622,0 -1.369073,0.37338 -0.52713,0.36606 -0.768731,1.04694 l -1.339788,-0.11714 q 0.409989,-1.15676 1.29586,-1.77174 0.893192,-0.61499 2.247623,-0.61499 1.442286,0 2.284229,0.6882 0.64427,0.51249 0.64427,1.33247 0,0.6223 -0.183031,1.44228 l -0.431954,1.93281 q -0.204995,0.92248 -0.204995,1.50086 0,0.36606 0.161068,1.05426 l -1.339789,0 q -0.109818,-0.38071 -0.153746,-0.96641 z m 0.490524,-2.97242 q -0.278208,0.10981 -0.600342,0.16838 -0.314814,0.0586 -1.061581,0.12447 -1.156757,0.10249 -1.632638,0.26356 -0.475881,0.15375 -0.717482,0.49784 -0.241602,0.3441 -0.241602,0.76141 0,0.55642 0.380705,0.91516 0.388026,0.35874 1.098187,0.35874 0.658912,0 1.266576,-0.3441 0.607663,-0.35142 0.959083,-0.97372 0.35142,-0.62231 0.549094,-1.77174 z"
                style="font-style:italic;font-variant:normal;font-weight:normal;font-stretch:normal;font-family:Arial;-inkscape-font-specification:'Arial Italic';fill:#f2f2f2;stroke-width:0.18742391px"
                id="path8582" />
            <path
                d="m 84.561575,270.52378 -0.219638,1.08355 q -0.475881,0.12446 -0.922477,0.12446 -0.790694,0 -1.259254,-0.38803 -0.35142,-0.29285 -0.35142,-0.79801 0,-0.25625 0.190352,-1.17872 l 0.944441,-4.51721 -1.046938,0 0.212316,-1.02498 1.046938,0 0.402669,-1.91084 1.515498,-0.91516 -0.593021,2.826 1.303182,0 -0.219637,1.02498 -1.295861,0 -0.900513,4.29757 q -0.168389,0.81998 -0.168389,0.98105 0,0.23428 0.131782,0.35874 0.139104,0.12446 0.446596,0.12446 0.439275,0 0.783374,-0.0879 z"
                style="font-style:italic;font-variant:normal;font-weight:normal;font-stretch:normal;font-family:Arial;-inkscape-font-specification:'Arial Italic';fill:#f2f2f2;stroke-width:0.18742391px"
                id="path8584" />
            <path
                d="m 85.623156,271.60001 1.625316,-7.77517 1.200685,0 -0.285529,1.35443 q 0.783374,-0.79801 1.46425,-1.16408 0.680876,-0.36606 1.391037,-0.36606 0.944441,0 1.478892,0.51249 0.541772,0.51249 0.541772,1.36907 0,0.43196 -0.190353,1.36175 l -0.988368,4.70757 -1.325146,0 1.032296,-4.9272 q 0.153746,-0.71749 0.153746,-1.06158 0,-0.38803 -0.270886,-0.62963 -0.263565,-0.2416 -0.768731,-0.2416 -1.017653,0 -1.815669,0.73212 -0.790695,0.73213 -1.164078,2.51119 l -0.754089,3.6167 -1.325145,0 z"
                style="font-style:italic;font-variant:normal;font-weight:normal;font-stretch:normal;font-family:Arial;-inkscape-font-specification:'Arial Italic';fill:#f2f2f2;stroke-width:0.18742391px"
                id="path8586" />
            <path
                d="m 94.203656,268.64954 q 0,-2.2769 1.339788,-3.77044 1.105508,-1.22997 2.899214,-1.22997 1.405679,0 2.262262,0.87855 0.86391,0.87855 0.86391,2.37209 0,1.33978 -0.54177,2.49654 -0.54177,1.14944 -1.544785,1.76442 -0.99569,0.61499 -2.101198,0.61499 -0.907835,0 -1.654602,-0.38803 -0.739446,-0.38803 -1.134793,-1.09819 -0.388026,-0.71016 -0.388026,-1.63996 z m 1.325145,-0.13178 q 0,1.09819 0.52713,1.66925 0.52713,0.56373 1.339788,0.56373 0.424633,0 0.841944,-0.16839 0.417311,-0.17571 0.776052,-0.52713 0.358741,-0.35142 0.607663,-0.79801 0.256244,-0.45392 0.409992,-0.97373 0.22696,-0.7248 0.22696,-1.39104 0,-1.05426 -0.534454,-1.63263 -0.52713,-0.5857 -1.332467,-0.5857 -0.622306,0 -1.134793,0.30017 -0.512488,0.29285 -0.929799,0.8639 -0.40999,0.57106 -0.607663,1.33247 -0.190353,0.75409 -0.190353,1.34711 z"
                style="font-style:italic;font-variant:normal;font-weight:normal;font-stretch:normal;font-family:Arial;-inkscape-font-specification:'Arial Italic';fill:#f2f2f2;stroke-width:0.18742391px"
                id="path8588" />
            <path
                d="m 102.44006,268.94239 1.32514,-0.0805 q 0,0.57106 0.17571,0.97373 0.17571,0.40266 0.64427,0.65891 0.47589,0.25624 1.10551,0.25624 0.87855,0 1.31783,-0.35142 0.43927,-0.35142 0.43927,-0.8273 0,-0.3441 -0.26356,-0.65159 -0.27089,-0.30749 -1.32515,-0.75409 -1.04694,-0.45392 -1.33979,-0.63695 -0.49052,-0.30017 -0.73944,-0.70284 -0.24893,-0.40999 -0.24893,-0.93712 0,-0.92247 0.73213,-1.58139 0.73212,-0.65891 2.04995,-0.65891 1.46425,0 2.22566,0.68088 0.76873,0.67355 0.79801,1.77906 l -1.29586,0.0879 q -0.0293,-0.70284 -0.49784,-1.11283 -0.46856,-0.40999 -1.32515,-0.40999 -0.68819,0 -1.0689,0.31481 -0.3807,0.31481 -0.3807,0.68088 0,0.36606 0.32945,0.64427 0.21964,0.19035 1.13479,0.5857 1.52282,0.65891 1.91817,1.03961 0.62963,0.60767 0.62963,1.47889 0,0.57838 -0.35874,1.1348 -0.35142,0.55641 -1.08355,0.89319 -0.7248,0.32946 -1.71317,0.32946 -1.34711,0 -2.29155,-0.66624 -0.94444,-0.66623 -0.89319,-2.16709 z m 3.03832,-6.06199 1.37639,-2.01334 1.66924,0 -1.94745,2.01334 -1.09818,0 z"
                style="font-style:italic;font-variant:normal;font-weight:normal;font-stretch:normal;font-family:Arial;-inkscape-font-specification:'Arial Italic';fill:#f2f2f2;stroke-width:0.18742391px"
                id="path8590" />
            <path
                d="m 115.17903,268.76668 1.32515,0.13911 q -0.49785,1.45693 -1.42032,2.16709 -0.91516,0.70284 -2.08656,0.70284 -1.26658,0 -2.05727,-0.81998 -0.78337,-0.81998 -0.78337,-2.29155 0,-1.2739 0.50516,-2.50387 0.50517,-1.22997 1.44229,-1.86692 0.94444,-0.64427 2.15244,-0.64427 1.25194,0 1.98406,0.71016 0.73213,0.70284 0.73213,1.86692 l -1.30319,0.0879 q -0.007,-0.73945 -0.43195,-1.15676 -0.41731,-0.41731 -1.10551,-0.41731 -0.79801,0 -1.38371,0.50516 -0.5857,0.50517 -0.92248,1.53747 -0.32946,1.02497 -0.32946,1.97673 0,0.99569 0.43928,1.49354 0.43927,0.49784 1.08354,0.49784 0.64427,0 1.22997,-0.49052 0.59302,-0.49053 0.9298,-1.49354 z m -1.58139,-5.88628 1.3764,-2.01334 1.66924,0 -1.94745,2.01334 -1.09819,0 z"
                style="font-style:italic;font-variant:normal;font-weight:normal;font-stretch:normal;font-family:Arial;-inkscape-font-specification:'Arial Italic';fill:#f2f2f2;stroke-width:0.18742391px"
                id="path8592" />
            <path
                d="m 122.94687,271.60001 -0.81266,-7.77517 1.2739,0 0.35142,3.49224 0.1391,1.96209 q 0.0147,0.21964 0.0439,0.88587 0.21964,-0.74677 0.37338,-1.14211 0.15375,-0.40267 0.49053,-1.14212 l 1.85227,-4.05597 1.44229,0 0.25624,3.88758 q 0.0586,0.88587 0.0732,2.36477 0.36606,-0.98105 1.19336,-2.72351 l 1.66924,-3.52884 1.32515,0 -3.79973,7.77517 -1.37639,0 -0.29285,-4.56114 q -0.0293,-0.42463 -0.0439,-1.6546 -0.30017,0.78337 -0.71016,1.69121 l -2.05727,4.52453 -1.39104,0 z"
                style="font-style:italic;font-variant:normal;font-weight:normal;font-stretch:normal;font-family:Arial;-inkscape-font-specification:'Arial Italic';fill:#f2f2f2;stroke-width:0.18742391px"
                id="path8594" />
            <path
                d="m 139.5295,270.52378 -0.21964,1.08355 q -0.47588,0.12446 -0.92248,0.12446 -0.79069,0 -1.25925,-0.38803 -0.35142,-0.29285 -0.35142,-0.79801 0,-0.25625 0.19035,-1.17872 l 0.94444,-4.51721 -1.04694,0 0.21232,-1.02498 1.04694,0 0.40267,-1.91084 1.51549,-0.91516 -0.59302,2.826 1.30319,0 -0.21964,1.02498 -1.29586,0 -0.90052,4.29757 q -0.16838,0.81998 -0.16838,0.98105 0,0.23428 0.13178,0.35874 0.1391,0.12446 0.44659,0.12446 0.43928,0 0.78338,-0.0879 z"
                style="font-style:italic;font-variant:normal;font-weight:normal;font-stretch:normal;font-family:Arial;-inkscape-font-specification:'Arial Italic';fill:#f2f2f2;stroke-width:0.18742391px"
                id="path8596" />
            <path
                d="m 140.82536,268.64954 q 0,-2.2769 1.33979,-3.77044 1.10551,-1.22997 2.89921,-1.22997 1.40568,0 2.26227,0.87855 0.8639,0.87855 0.8639,2.37209 0,1.33978 -0.54177,2.49654 -0.54177,1.14944 -1.54478,1.76442 -0.99569,0.61499 -2.1012,0.61499 -0.90783,0 -1.6546,-0.38803 -0.73945,-0.38803 -1.13479,-1.09819 -0.38803,-0.71016 -0.38803,-1.63996 z m 1.32515,-0.13178 q 0,1.09819 0.52713,1.66925 0.52712,0.56373 1.33978,0.56373 0.42464,0 0.84195,-0.16839 0.41731,-0.17571 0.77605,-0.52713 0.35874,-0.35142 0.60766,-0.79801 0.25625,-0.45392 0.40999,-0.97373 0.22696,-0.7248 0.22696,-1.39104 0,-1.05426 -0.53445,-1.63263 -0.52713,-0.5857 -1.33247,-0.5857 -0.6223,0 -1.13479,0.30017 -0.51249,0.29285 -0.9298,0.8639 -0.40999,0.57106 -0.60766,1.33247 -0.19035,0.75409 -0.19035,1.34711 z"
                style="font-style:italic;font-variant:normal;font-weight:normal;font-stretch:normal;font-family:Arial;-inkscape-font-specification:'Arial Italic';fill:#f2f2f2;stroke-width:0.18742391px"
                id="path8598" />
            <path
                d="m 148.95194,271.60001 2.24763,-10.73295 1.31782,0 -1.39104,6.65501 3.86562,-3.69723 1.74978,0 -3.31652,2.89922 2.00602,4.87595 -1.44961,0 -1.5521,-3.99008 -1.61068,1.39103 -0.54177,2.59905 -1.32515,0 z"
                style="font-style:italic;font-variant:normal;font-weight:normal;font-stretch:normal;font-family:Arial;-inkscape-font-specification:'Arial Italic';fill:#f2f2f2;stroke-width:0.18742391px"
                id="path8600" />
            <path
                d="m 161.74216,270.19433 q -1.39836,1.58139 -2.86261,1.58139 -0.90051,0 -1.45692,-0.51249 -0.5491,-0.51981 -0.5491,-1.26658 0,-0.49052 0.24892,-1.68388 l 0.93712,-4.48793 1.32515,0 -1.03962,4.97113 q -0.13178,0.6223 -0.13178,0.9664 0,0.43928 0.26357,0.6882 0.27088,0.2416 0.79069,0.2416 0.55641,0 1.08354,-0.27088 0.53446,-0.27089 0.91516,-0.73213 0.38803,-0.46124 0.62963,-1.09087 0.16107,-0.40266 0.37338,-1.413 l 0.70284,-3.36045 1.32515,0 -1.62532,7.77517 -1.22265,0 0.29285,-1.40568 z"
                style="font-style:italic;font-variant:normal;font-weight:normal;font-stretch:normal;font-family:Arial;-inkscape-font-specification:'Arial Italic';fill:#f2f2f2;stroke-width:0.18742391px"
                id="path8602" />
        </g>
    </g>
    <g inkscape:groupmode="layer" id="layer3" inkscape:label="Strokes" style="display:none"
        sodipodi:insensitive="true">
        <path id="path8156"
            style="opacity:0.95;fill:none;fill-rule:evenodd;stroke:#9d4059;stroke-width:4.19387531;stroke-linecap:butt;stroke-linejoin:miter;stroke-miterlimit:4;stroke-dasharray:none;stroke-opacity:1"
            d="m 73.421874,105.44167 c 1.107944,0.35278 2.492871,1.05833 4.431772,1.05833 1.938899,0 3.323829,-0.70555 4.43177,-1.05833 m -17.727084,0 c 1.107944,-0.35278 2.492871,-1.05833 4.431771,-1.05833 1.938901,0 3.32383,0.70555 4.431771,1.05833"
            inkscape:connector-curvature="0" />
        <path
            d="m 91.148957,105.44167 c 1.107944,0.35278 2.49287,1.05833 4.431766,1.05833 1.93891,0 3.32384,-0.70555 4.431777,-1.05833 m -17.727086,0 c 1.107945,-0.35278 2.492871,-1.05833 4.431771,-1.05833 1.938901,0 3.32383,0.70555 4.431772,1.05833"
            style="opacity:0.95;fill:none;fill-rule:evenodd;stroke:#9d4059;stroke-width:4.19387531;stroke-linecap:butt;stroke-linejoin:miter;stroke-miterlimit:4;stroke-dasharray:none;stroke-opacity:1"
            id="path8159" inkscape:connector-curvature="0" />
        <path
            d="m 108.87603,105.44167 c 1.10795,0.35278 2.49287,1.05833 4.43178,1.05833 1.93889,0 3.32382,-0.70555 4.43177,-1.05833 m -17.72708,0 c 1.10793,-0.35278 2.49287,-1.05833 4.43177,-1.05833 1.93889,0 3.32382,0.70555 4.43176,1.05833"
            style="opacity:0.95;fill:none;fill-rule:evenodd;stroke:#9d4059;stroke-width:4.19387531;stroke-linecap:butt;stroke-linejoin:miter;stroke-miterlimit:4;stroke-dasharray:none;stroke-opacity:1"
            id="path8161" inkscape:connector-curvature="0" />
        <path inkscape:connector-curvature="0" id="path8163"
            style="opacity:0.95;fill:none;fill-rule:evenodd;stroke:#9d4059;stroke-width:4.19387531;stroke-linecap:butt;stroke-linejoin:miter;stroke-miterlimit:4;stroke-dasharray:none;stroke-opacity:1"
            d="m 126.60312,105.44167 c 1.10794,0.35278 2.49287,1.05833 4.43176,1.05833 1.93891,0 3.32385,-0.70555 4.43178,-1.05833 m -17.72708,0 c 1.10793,-0.35278 2.49287,-1.05833 4.43176,-1.05833 1.93891,0 3.32384,0.70555 4.43178,1.05833" />
        <path inkscape:connector-curvature="0"
            d="m 73.421874,100.15 c 1.107944,0.35278 2.492871,1.05833 4.431772,1.05833 1.938899,0 3.323829,-0.70555 4.43177,-1.05833 m -17.727084,0 c 1.107944,-0.352777 2.492871,-1.058327 4.431771,-1.058327 1.938901,0 3.32383,0.70555 4.431771,1.058327"
            style="opacity:0.95;fill:none;fill-rule:evenodd;stroke:#9d4059;stroke-width:2.64583325;stroke-linecap:butt;stroke-linejoin:miter;stroke-miterlimit:4;stroke-dasharray:none;stroke-opacity:1"
            id="path8290" />
        <path inkscape:connector-curvature="0" id="path8292"
            style="opacity:0.95;fill:none;fill-rule:evenodd;stroke:#9d4059;stroke-width:2.64583325;stroke-linecap:butt;stroke-linejoin:miter;stroke-miterlimit:4;stroke-dasharray:none;stroke-opacity:1"
            d="m 91.148957,100.15 c 1.107944,0.35278 2.49287,1.05833 4.431766,1.05833 1.93891,0 3.32384,-0.70555 4.431777,-1.05833 m -17.727086,0 c 1.107945,-0.352777 2.492871,-1.058327 4.431771,-1.058327 1.938901,0 3.32383,0.70555 4.431772,1.058327" />
        <path inkscape:connector-curvature="0" id="path8294"
            style="opacity:0.95;fill:none;fill-rule:evenodd;stroke:#9d4059;stroke-width:2.64583325;stroke-linecap:butt;stroke-linejoin:miter;stroke-miterlimit:4;stroke-dasharray:none;stroke-opacity:1"
            d="m 108.87603,100.15 c 1.10795,0.35278 2.49287,1.05833 4.43178,1.05833 1.93889,0 3.32382,-0.70555 4.43177,-1.05833 m -17.72708,0 c 1.10793,-0.352777 2.49287,-1.058327 4.43177,-1.058327 1.93889,0 3.32382,0.70555 4.43176,1.058327" />
        <path
            d="m 126.60312,100.15 c 1.10794,0.35278 2.49287,1.05833 4.43176,1.05833 1.93891,0 3.32385,-0.70555 4.43178,-1.05833 m -17.72708,0 c 1.10793,-0.352777 2.49287,-1.058327 4.43176,-1.058327 1.93891,0 3.32384,0.70555 4.43178,1.058327"
            style="opacity:0.95;fill:none;fill-rule:evenodd;stroke:#9d4059;stroke-width:2.64583325;stroke-linecap:butt;stroke-linejoin:miter;stroke-miterlimit:4;stroke-dasharray:none;stroke-opacity:1"
            id="path8296" inkscape:connector-curvature="0" />
        <path id="path8298"
            style="opacity:0.95;fill:none;fill-rule:evenodd;stroke:#9d4059;stroke-width:1.32291663;stroke-linecap:butt;stroke-linejoin:miter;stroke-miterlimit:4;stroke-dasharray:none;stroke-opacity:1"
            d="m 73.421874,96.445834 c 1.107944,0.35278 2.492871,1.05833 4.431772,1.05833 1.938899,0 3.323829,-0.70555 4.43177,-1.05833 m -17.727084,0 c 1.107944,-0.352777 2.492871,-1.058327 4.431771,-1.058327 1.938901,0 3.32383,0.70555 4.431771,1.058327"
            inkscape:connector-curvature="0" />
        <path
            d="m 91.148957,96.445834 c 1.107944,0.35278 2.49287,1.05833 4.431766,1.05833 1.93891,0 3.32384,-0.70555 4.431777,-1.05833 m -17.727086,0 c 1.107945,-0.352777 2.492871,-1.058327 4.431771,-1.058327 1.938901,0 3.32383,0.70555 4.431772,1.058327"
            style="opacity:0.95;fill:none;fill-rule:evenodd;stroke:#9d4059;stroke-width:1.32291663;stroke-linecap:butt;stroke-linejoin:miter;stroke-miterlimit:4;stroke-dasharray:none;stroke-opacity:1"
            id="path8300" inkscape:connector-curvature="0" />
        <path
            d="m 108.87603,96.445834 c 1.10795,0.35278 2.49287,1.05833 4.43178,1.05833 1.93889,0 3.32382,-0.70555 4.43177,-1.05833 m -17.72708,0 c 1.10793,-0.352777 2.49287,-1.058327 4.43177,-1.058327 1.93889,0 3.32382,0.70555 4.43176,1.058327"
            style="opacity:0.95;fill:none;fill-rule:evenodd;stroke:#9d4059;stroke-width:1.32291663;stroke-linecap:butt;stroke-linejoin:miter;stroke-miterlimit:4;stroke-dasharray:none;stroke-opacity:1"
            id="path8302" inkscape:connector-curvature="0" />
        <path inkscape:connector-curvature="0" id="path8304"
            style="opacity:0.95;fill:none;fill-rule:evenodd;stroke:#9d4059;stroke-width:1.32291663;stroke-linecap:butt;stroke-linejoin:miter;stroke-miterlimit:4;stroke-dasharray:none;stroke-opacity:1"
            d="m 126.60312,96.445834 c 1.10794,0.35278 2.49287,1.05833 4.43176,1.05833 1.93891,0 3.32385,-0.70555 4.43178,-1.05833 m -17.72708,0 c 1.10793,-0.352777 2.49287,-1.058327 4.43176,-1.058327 1.93891,0 3.32384,0.70555 4.43178,1.058327" />
        <path sodipodi:nodetypes="cc" inkscape:connector-curvature="0" id="path8476"
            d="M 80.433333,216.56667 59.266667,199.63333"
            style="display:inline;opacity:0.95;fill:none;fill-opacity:1;fill-rule:evenodd;stroke:#61e1ff;stroke-width:21.16666603;stroke-linecap:round;stroke-linejoin:miter;stroke-miterlimit:4;stroke-dasharray:none;stroke-opacity:1" />
        <path inkscape:connector-curvature="0" id="path8478"
            d="m 122.76667,216.56667 16.93333,-12.7"
            style="display:inline;opacity:0.95;fill:none;fill-opacity:1;fill-rule:evenodd;stroke:#61e1ff;stroke-width:21.16666603;stroke-linecap:round;stroke-linejoin:miter;stroke-miterlimit:4;stroke-dasharray:none;stroke-opacity:1"
            sodipodi:nodetypes="cc" />
        <path sodipodi:nodetypes="cc" inkscape:connector-curvature="0" id="path8480"
            d="M 93.133332,216.56667 71.966667,174.23333"
            style="display:inline;opacity:0.95;fill:none;fill-rule:evenodd;stroke:#61e1ff;stroke-width:21.16666603;stroke-linecap:round;stroke-linejoin:round;stroke-miterlimit:4;stroke-dasharray:none;stroke-opacity:1" />
        <path sodipodi:nodetypes="cc"
            style="display:inline;opacity:0.95;fill:none;fill-rule:evenodd;stroke:#61e1ff;stroke-width:21.16666603;stroke-linecap:round;stroke-linejoin:round;stroke-miterlimit:4;stroke-dasharray:none;stroke-opacity:1"
            d="M 110.06667,216.56667 127,182.7" id="path8482" inkscape:connector-curvature="0" />
        <path inkscape:connector-curvature="0" id="path8484" d="M 101.6,216.56667 101.6,182.7"
            style="display:inline;opacity:0.95;fill:none;fill-rule:evenodd;stroke:#61e1ff;stroke-width:21.16666603;stroke-linecap:round;stroke-linejoin:round;stroke-miterlimit:4;stroke-dasharray:none;stroke-opacity:1"
            sodipodi:nodetypes="cc" />
    </g>
</svg>
