<?xml version="1.0" encoding="UTF-8" standalone="no"?>
<svg
   xmlns:dc="http://purl.org/dc/elements/1.1/"
   xmlns:cc="http://creativecommons.org/ns#"
   xmlns:rdf="http://www.w3.org/1999/02/22-rdf-syntax-ns#"
   xmlns:svg="http://www.w3.org/2000/svg"
   xmlns="http://www.w3.org/2000/svg"
   xmlns:sodipodi="http://sodipodi.sourceforge.net/DTD/sodipodi-0.dtd"
   xmlns:inkscape="http://www.inkscape.org/namespaces/inkscape"
   version="1.1"
   x="0px"
   y="0px"
   width="64"
   height="64"
   viewBox="0 0 64 64"
   xml:space="preserve"
   id="svg4141"
   inkscape:version="0.91+devel+osxmenu r12922"
   sodipodi:docname="basket.svg"
   inkscape:export-filename="/Users/golui/git/ujio2018/Android/app/src/main/res/mipmap-mdpi/jur_logo.png"
   inkscape:export-xdpi="60.000004"
   inkscape:export-ydpi="60.000004"><metadata
     id="metadata4152"><rdf:RDF><cc:Work
         rdf:about=""><dc:format>image/svg+xml</dc:format><dc:type
           rdf:resource="http://purl.org/dc/dcmitype/StillImage" /><dc:title></dc:title></cc:Work></rdf:RDF></metadata><defs
     id="defs4150" /><sodipodi:namedview
     pagecolor="#000000"
     bordercolor="#666666"
     borderopacity="1"
     objecttolerance="10"
     gridtolerance="10"
     guidetolerance="10"
     inkscape:pageopacity="0"
     inkscape:pageshadow="2"
     inkscape:window-width="1185"
     inkscape:window-height="624"
     id="namedview4148"
     showgrid="true"
     inkscape:snap-bbox="true"
     inkscape:bbox-nodes="true"
     inkscape:bbox-paths="true"
     inkscape:snap-nodes="true"
     inkscape:snap-center="true"
     showguides="true"
     inkscape:guide-bbox="true"
     inkscape:zoom="0.94284916"
     inkscape:cx="129.53927"
     inkscape:cy="122.90018"
     inkscape:window-x="85"
     inkscape:window-y="157"
     inkscape:window-maximized="0"
     inkscape:current-layer="svg4141"><inkscape:grid
       type="xygrid"
       id="grid4154" /></sodipodi:namedview><path
     style="color:#000000;font-style:normal;font-variant:normal;font-weight:normal;font-stretch:normal;font-size:medium;line-height:normal;font-family:sans-serif;font-variant-ligatures:none;font-variant-position:normal;font-variant-caps:normal;font-variant-numeric:normal;font-variant-alternates:normal;font-feature-settings:normal;text-indent:0;text-align:start;text-decoration:none;text-decoration-line:none;text-decoration-style:solid;text-decoration-color:#000000;letter-spacing:normal;word-spacing:normal;text-transform:none;direction:ltr;block-progression:tb;writing-mode:lr-tb;baseline-shift:baseline;text-anchor:start;white-space:normal;shape-padding:0;clip-rule:nonzero;display:inline;overflow:visible;visibility:visible;opacity:1;isolation:auto;mix-blend-mode:normal;color-interpolation:sRGB;color-interpolation-filters:linearRGB;solid-color:#000000;solid-opacity:1;fill:#ffffff;fill-opacity:1;fill-rule:evenodd;stroke:none;stroke-width:7.85879135;stroke-linecap:butt;stroke-linejoin:round;stroke-miterlimit:4;stroke-dasharray:none;stroke-dashoffset:0;stroke-opacity:1;color-rendering:auto;image-rendering:auto;shape-rendering:auto;text-rendering:auto;enable-background:accumulate"
     d="m 3.9293795,22.143174 a 3.9297888,3.9297888 0 0 0 -3.812144,4.882508 l 6.237916,24.951664 a 3.9297888,3.9297888 0 0 0 3.8121435,2.976311 l 43.665411,0 a 3.9297888,3.9297888 0 0 0 3.812143,-2.976311 l 6.237915,-24.951664 a 3.9297888,3.9297888 0 0 0 -3.812143,-4.882508 l -25.224268,0 a 3.9297888,3.9297888 0 0 1 -5.581279,4.355321 l -9.106606,-4.355321 -16.2290885,0 z m 8.2913315,9.757404 a 2.456118,2.456118 0 0 1 2.378306,1.783603 l 3.118958,10.396526 a 2.456118,2.456118 0 1 1 -4.704834,1.411248 L 9.8941835,35.095428 a 2.456118,2.456118 0 0 1 2.3265275,-3.19485 z m 11.436178,0 a 2.456118,2.456118 0 0 1 2.378306,1.783603 l 3.118959,10.396526 A 2.456118,2.456118 0 1 1 24.44932,45.491955 L 21.330362,35.095428 a 2.456118,2.456118 0 0 1 2.326527,-3.19485 z m 15.832621,5.12e-4 a 2.456118,2.456118 0 0 1 2.400389,3.194342 L 38.770941,45.491958 A 2.456118,2.456118 0 1 1 34.066107,44.080711 L 37.185066,33.684185 A 2.456118,2.456118 0 0 1 39.48951,31.90109 Z m 11.436179,0 a 2.456118,2.456118 0 0 1 2.400388,3.194342 L 50.20712,45.491958 a 2.456118,2.456118 0 1 1 -4.704835,-1.411247 l 3.118959,-10.396526 a 2.456118,2.456118 0 0 1 2.304445,-1.783095 z"
     id="path4347"
     inkscape:connector-curvature="0" /><path
     style="fill:#ffffff;fill-rule:evenodd;stroke:#ffffff;stroke-width:4.91174459;stroke-linecap:round;stroke-linejoin:miter;stroke-miterlimit:4;stroke-dasharray:none;stroke-opacity:1"
     d="M 7.0483375,11.517447 30.960347,22.953626"
     id="path4327"
     inkscape:connector-curvature="0" /></svg>