<?xml version="1.0" encoding="UTF-8" standalone="no"?>
<svg
   xmlns:dc="http://purl.org/dc/elements/1.1/"
   xmlns:cc="http://creativecommons.org/ns#"
   xmlns:rdf="http://www.w3.org/1999/02/22-rdf-syntax-ns#"
   xmlns:svg="http://www.w3.org/2000/svg"
   xmlns="http://www.w3.org/2000/svg"
   xmlns:sodipodi="http://sodipodi.sourceforge.net/DTD/sodipodi-0.dtd"
   xmlns:inkscape="http://www.inkscape.org/namespaces/inkscape"
   version="1.1"
   x="0px"
   y="0px"
   width="32"
   height="32"
   viewBox="0 0 32 32"
   xml:space="preserve"
   id="svg4141"
   inkscape:version="0.91+devel+osxmenu r12922"
   sodipodi:docname="button_drink.svg"
   inkscape:export-filename="/Users/golui/git/ujio2018/Android/app/src/main/res/mipmap-mdpi/spoon_and_fork.png"
   inkscape:export-xdpi="6.0000005"
   inkscape:export-ydpi="6.0000005"><metadata
     id="metadata4152"><rdf:RDF><cc:Work
         rdf:about=""><dc:format>image/svg+xml</dc:format><dc:type
           rdf:resource="http://purl.org/dc/dcmitype/StillImage" /><dc:title></dc:title></cc:Work></rdf:RDF></metadata><defs
     id="defs4150" /><sodipodi:namedview
     pagecolor="#000000"
     bordercolor="#666666"
     borderopacity="1"
     objecttolerance="10"
     gridtolerance="10"
     guidetolerance="10"
     inkscape:pageopacity="0"
     inkscape:pageshadow="2"
     inkscape:window-width="1185"
     inkscape:window-height="624"
     id="namedview4148"
     showgrid="true"
     inkscape:snap-bbox="true"
     inkscape:bbox-nodes="true"
     inkscape:bbox-paths="true"
     inkscape:snap-nodes="true"
     inkscape:snap-center="true"
     showguides="true"
     inkscape:guide-bbox="true"
     inkscape:zoom="0.94284916"
     inkscape:cx="65.195118"
     inkscape:cy="42.041599"
     inkscape:window-x="157"
     inkscape:window-y="85"
     inkscape:window-maximized="0"
     inkscape:current-layer="svg4141"><inkscape:grid
       type="xygrid"
       id="grid4154" /></sodipodi:namedview><rect
     style="opacity:1;fill:#77d17f;fill-opacity:0.94117647;stroke:none;stroke-width:0.2519685;stroke-linecap:round;stroke-miterlimit:4;stroke-dasharray:none"
     id="rect4150"
     width="32"
     height="32"
     x="0"
     y="0"
     ry="7.4666667"
     inkscape:export-filename="/Users/golui/git/ujio2018/Android/app/src/main/res/mipmap-mdpi/colddrink.png"
     inkscape:export-xdpi="6.3999996"
     inkscape:export-ydpi="6.3999996" /><path
     id="path4176"
     style="opacity:1;fill:none;fill-opacity:0.94117647;stroke:#ffffff;stroke-width:1.25984251;stroke-linecap:round;stroke-linejoin:round;stroke-miterlimit:4;stroke-dasharray:none"
     d="M 16,22.093107 A 1.3465857,1.2188919 0 0 1 14.653415,23.311999 1.3465857,1.2188919 0 0 1 13.306829,22.093107 1.3465857,1.2188919 0 0 1 14.653415,20.874215 1.3465857,1.2188919 0 0 1 16,22.093107 Z M 18.693171,17.21754 A 1.3465857,1.2188919 0 0 1 17.346585,18.436431 1.3465857,1.2188919 0 0 1 16,17.21754 a 1.3465857,1.2188919 0 0 1 1.346585,-1.218892 1.3465857,1.2188919 0 0 1 1.346586,1.218892 z m -5.386342,-3.656676 0,-8.532243 -4.039757,-2.437784 m 2.693171,26.815622 -1.346586,-17.064487 10.772686,0 -1.346586,17.064487 M 7.920486,8.685296 l 16.159028,0 -1.346586,20.721163 -13.465856,0 z"
     inkscape:connector-curvature="0" /></svg>