<?xml version="1.0" encoding="UTF-8" standalone="no"?>
<!-- Created with Inkscape (http://www.inkscape.org/) -->

<svg
   xmlns:dc="http://purl.org/dc/elements/1.1/"
   xmlns:cc="http://creativecommons.org/ns#"
   xmlns:rdf="http://www.w3.org/1999/02/22-rdf-syntax-ns#"
   xmlns:svg="http://www.w3.org/2000/svg"
   xmlns="http://www.w3.org/2000/svg"
   xmlns:sodipodi="http://sodipodi.sourceforge.net/DTD/sodipodi-0.dtd"
   xmlns:inkscape="http://www.inkscape.org/namespaces/inkscape"
   width="500"
   height="500"
   viewBox="0 0 132.29166 132.29167"
   id="svg2"
   version="1.1"
   inkscape:version="0.91+devel+osxmenu r12922"
   sodipodi:docname="Combined.svg"
   enable-background="new">
  <defs
     id="defs4" />
  <sodipodi:namedview
     id="base"
     pagecolor="#000000"
     bordercolor="#666666"
     borderopacity="1.0"
     inkscape:pageopacity="0"
     inkscape:pageshadow="2"
     inkscape:zoom="0.77355518"
     inkscape:cx="190.26168"
     inkscape:cy="212.06787"
     inkscape:document-units="mm"
     inkscape:current-layer="layer3"
     showgrid="true"
     units="px"
     inkscape:window-width="1080"
     inkscape:window-height="675"
     inkscape:window-x="254"
     inkscape:window-y="23"
     inkscape:window-maximized="0"
     inkscape:snap-bbox="true"
     inkscape:object-nodes="false"
     inkscape:bbox-nodes="true">
    <inkscape:grid
       type="xygrid"
       id="grid8227" />
  </sodipodi:namedview>
  <metadata
     id="metadata7">
    <rdf:RDF>
      <cc:Work
         rdf:about="">
        <dc:format>image/svg+xml</dc:format>
        <dc:type
           rdf:resource="http://purl.org/dc/dcmitype/StillImage" />
        <dc:title />
      </cc:Work>
    </rdf:RDF>
  </metadata>
  <g
     inkscape:label="Layer 1"
     inkscape:groupmode="layer"
     id="layer1"
     transform="translate(0,-164.70832)"
     style="display:none;opacity:0.83999999"
     sodipodi:insensitive="true" />
  <g
     inkscape:groupmode="layer"
     id="layer2"
     inkscape:label="Basket"
     style="display:none"
     sodipodi:insensitive="true">
    <g
       id="g8153"
       transform="matrix(0.26458333,0,0,0.26458333,-3.7041653,-0.95534001)"
       style="opacity:1">
      <path
         id="path4347"
         d="m 48,177.76367 a 30.239245,30.239245 0 0 0 -29.333984,37.57031 l 48,192 A 30.239245,30.239245 0 0 0 96,430.23633 l 336,0 a 30.239245,30.239245 0 0 0 29.33398,-22.90235 l 48,-192 A 30.239245,30.239245 0 0 0 480,177.76367 l -194.09766,0 a 30.239245,30.239245 0 0 1 -42.94726,33.51367 l -70.07422,-33.51367 -124.88086,0 z m 63.80078,75.08203 a 18.899528,18.899528 0 0 1 18.30078,13.72461 l 24,80 a 18.899528,18.899528 0 1 1 -36.20312,10.85938 l -24.000002,-80 A 18.899528,18.899528 0 0 1 111.80078,252.8457 Z m 88,0 a 18.899528,18.899528 0 0 1 18.30078,13.72461 l 24,80 a 18.899528,18.899528 0 1 1 -36.20312,10.85938 l -24,-80 a 18.899528,18.899528 0 0 1 17.90234,-24.58399 z m 121.83008,0.004 a 18.899528,18.899528 0 0 1 18.4707,24.58008 l -24,80 A 18.899528,18.899528 0 1 1 279.89844,346.5704 l 24,-80 a 18.899528,18.899528 0 0 1 17.73242,-13.7207 z m 88,0 a 18.899528,18.899528 0 0 1 18.4707,24.58008 l -24,80 A 18.899528,18.899528 0 1 1 367.89844,346.5704 l 24,-80 a 18.899528,18.899528 0 0 1 17.73242,-13.7207 z"
         style="color:#000000;font-style:normal;font-variant:normal;font-weight:normal;font-stretch:normal;font-size:medium;line-height:normal;font-family:sans-serif;font-variant-ligatures:none;font-variant-position:normal;font-variant-caps:normal;font-variant-numeric:normal;font-variant-alternates:normal;font-feature-settings:normal;text-indent:0;text-align:start;text-decoration:none;text-decoration-line:none;text-decoration-style:solid;text-decoration-color:#000000;letter-spacing:normal;word-spacing:normal;text-transform:none;direction:ltr;block-progression:tb;writing-mode:lr-tb;baseline-shift:baseline;text-anchor:start;white-space:normal;shape-padding:0;clip-rule:nonzero;display:inline;overflow:visible;visibility:visible;opacity:1;isolation:auto;mix-blend-mode:normal;color-interpolation:sRGB;color-interpolation-filters:linearRGB;solid-color:#000000;solid-opacity:1;fill:#ffffff;fill-opacity:1;fill-rule:evenodd;stroke:none;stroke-width:60.47244263;stroke-linecap:butt;stroke-linejoin:round;stroke-miterlimit:4;stroke-dasharray:none;stroke-dashoffset:0;stroke-opacity:1;color-rendering:auto;image-rendering:auto;shape-rendering:auto;text-rendering:auto;enable-background:accumulate"
         inkscape:connector-curvature="0" />
      <path
         inkscape:connector-curvature="0"
         id="path4327"
         d="m 72,96 184,88"
         style="fill:#ffffff;fill-rule:evenodd;stroke:#ffffff;stroke-width:37.79527664;stroke-linecap:round;stroke-linejoin:miter;stroke-miterlimit:4;stroke-dasharray:none;stroke-opacity:1" />
    </g>
  </g>
  <g
     inkscape:groupmode="layer"
     id="layer3"
     inkscape:label="Cutlery Button"
     style="display:inline">
    <g
       id="g8167"
       transform="matrix(0.27340278,0,0,0.27340278,-4.3744445,-3.3161111)"
       style="opacity:1">
      <rect
         inkscape:export-ydpi="6.3999996"
         inkscape:export-xdpi="6.3999996"
         inkscape:export-filename="/Users/golui/git/ujio2018/Android/app/src/main/res/mipmap-mdpi/spoon_and_fork.png"
         ry="112"
         y="16"
         x="16"
         height="480"
         width="480"
         id="rect4150"
         style="opacity:1;fill:#77d17f;fill-opacity:0.94117647;stroke:none;stroke-width:3.77952766;stroke-linecap:round;stroke-miterlimit:4;stroke-dasharray:none" />
      <path
         sodipodi:nodetypes="ccccccccccccc"
         inkscape:connector-curvature="0"
         id="path4961"
         d="m 80,145.68818 9.192651,-9.19265 82.733859,82.73385 18.38531,-18.38529 -82.73387,-82.73387 9.19265,-9.19265 82.73387,82.73386 18.3853,-18.3853 -82.73387,-82.733862 9.19266,-9.192651 101.11916,101.119163 -64.34855,64.34856 z"
         style="fill:#ffffff;fill-rule:evenodd;stroke:none;stroke-width:0.81252325px;stroke-linecap:butt;stroke-linejoin:miter;stroke-opacity:1" />
      <rect
         transform="rotate(-45)"
         y="328.59048"
         x="-20.447811"
         height="260.00745"
         width="39.001118"
         id="rect4963"
         style="opacity:1;fill:#ffffff;fill-opacity:1;stroke:none;stroke-width:61.41908264;stroke-linecap:round;stroke-linejoin:round;stroke-miterlimit:4;stroke-dasharray:none" />
      <ellipse
         transform="rotate(-45)"
         ry="65.001862"
         rx="77.683907"
         cy="374.0918"
         cx="135.55666"
         id="path4965"
         style="opacity:1;fill:#ffffff;fill-opacity:1;stroke:none;stroke-width:61.41908264;stroke-linecap:round;stroke-linejoin:round;stroke-miterlimit:4;stroke-dasharray:none" />
      <path
         inkscape:connector-curvature="0"
         id="rect4970"
         d="M 98.385302,403.08241 125.96326,430.66036 254.66038,301.96325 227.08242,274.38529 98.385302,403.08241 Z m 174.660368,-174.66038 27.57796,27.57796 9.19265,-9.19265 -27.57795,-27.57796 -9.19266,9.19265 z"
         style="opacity:1;fill:#ffffff;fill-opacity:1;stroke:none;stroke-width:61.41908264;stroke-linecap:round;stroke-linejoin:round;stroke-miterlimit:4;stroke-dasharray:none" />
    </g>
  </g>
  <g
     inkscape:groupmode="layer"
     id="layer4"
     inkscape:label="Drink Button"
     style="display:none"
     sodipodi:insensitive="true">
    <g
       id="g8181"
       transform="matrix(0.26458333,0,0,0.26458333,-1.5874953,-1.5875)"
       style="opacity:0.84">
      <rect
         inkscape:export-ydpi="6.3999996"
         inkscape:export-xdpi="6.3999996"
         inkscape:export-filename="/Users/golui/git/ujio2018/Android/app/src/main/res/mipmap-mdpi/colddrink.png"
         ry="112"
         y="16"
         x="16"
         height="480"
         width="480"
         id="rect4150-7"
         style="opacity:1;fill:#77d17f;fill-opacity:0.94117647;stroke:none;stroke-width:3.77952766;stroke-linecap:round;stroke-miterlimit:4;stroke-dasharray:none" />
      <path
         inkscape:connector-curvature="0"
         d="M 256,347.39661 A 20.198785,18.283379 0 0 1 235.80122,365.67999 20.198785,18.283379 0 0 1 215.60243,347.39661 20.198785,18.283379 0 0 1 235.80122,329.11323 20.198785,18.283379 0 0 1 256,347.39661 Z M 296.39757,274.2631 A 20.198785,18.283379 0 0 1 276.19878,292.54647 20.198785,18.283379 0 0 1 256,274.2631 a 20.198785,18.283379 0 0 1 20.19878,-18.28338 20.198785,18.283379 0 0 1 20.19879,18.28338 z m -80.79514,-54.85014 0,-127.983651 -60.59635,-36.566758 m 40.39757,402.234329 -20.19879,-255.9673 161.59028,0 -20.19879,255.9673 m -181.78906,-310.81744 242.38542,0 -20.19879,310.81744 -201.98784,0 z"
         style="opacity:1;fill:none;fill-opacity:0.94117647;stroke:#ffffff;stroke-width:18.89763832;stroke-linecap:round;stroke-linejoin:round;stroke-miterlimit:4;stroke-dasharray:none"
         id="path4176" />
    </g>
  </g>
  <g
     inkscape:groupmode="layer"
     id="layer5"
     inkscape:label="Cash Register"
     style="display:none"
     sodipodi:insensitive="true">
    <g
       id="g8207"
       transform="matrix(0.26458333,0,0,0.26458333,-1.5874953,-1.5875)"
       style="opacity:0.84">
      <rect
         y="92.89743"
         x="35.331818"
         height="115.13123"
         width="441.33636"
         id="rect9312"
         style="opacity:1;fill:none;fill-opacity:1;stroke:#ffffff;stroke-width:22.66362762;stroke-linecap:butt;stroke-linejoin:round;stroke-miterlimit:4;stroke-dasharray:none" />
      <rect
         ry="4.7971344"
         y="155.26018"
         x="83.303162"
         height="19.188538"
         width="52.768478"
         id="rect9316"
         style="opacity:1;fill:#ffffff;fill-opacity:1;stroke:none;stroke-width:22.66362762;stroke-linecap:butt;stroke-linejoin:round;stroke-miterlimit:4;stroke-dasharray:22.66362808, 45.32725615999999746;stroke-dashoffset:11.33858299" />
      <rect
         ry="4.7971344"
         y="155.26018"
         x="145.66591"
         height="19.188538"
         width="52.768478"
         id="rect9316-3"
         style="opacity:1;fill:#ffffff;fill-opacity:1;stroke:none;stroke-width:22.66362762;stroke-linecap:butt;stroke-linejoin:round;stroke-miterlimit:4;stroke-dasharray:22.66362808, 45.32725615999999746;stroke-dashoffset:11.33858299" />
      <rect
         ry="4.7971344"
         y="155.26018"
         x="208.02866"
         height="19.188538"
         width="52.768478"
         id="rect9316-7"
         style="opacity:1;fill:#ffffff;fill-opacity:1;stroke:none;stroke-width:22.66362762;stroke-linecap:butt;stroke-linejoin:round;stroke-miterlimit:4;stroke-dasharray:22.66362808, 45.32725615999999746;stroke-dashoffset:11.33858299" />
      <path
         inkscape:connector-curvature="0"
         id="path9360"
         d="m 131.2745,236.81146 249.451,0 28.7828,182.29111 -307.0166,0 z"
         style="fill:none;fill-rule:evenodd;stroke:#ffffff;stroke-width:22.66362762;stroke-linecap:butt;stroke-linejoin:round;stroke-miterlimit:4;stroke-dasharray:none;stroke-opacity:1" />
      <rect
         transform="rotate(90)"
         style="opacity:1;fill:#ffffff;fill-opacity:1;stroke:none;stroke-width:22.66362762;stroke-linecap:butt;stroke-linejoin:round;stroke-miterlimit:4;stroke-dasharray:22.66362808, 45.32725615999999746;stroke-dashoffset:11.33858299"
         id="rect9371"
         width="52.768478"
         height="19.188538"
         x="191.23868"
         y="-179.24585"
         ry="4.7971344" />
      <rect
         transform="rotate(90)"
         style="opacity:1;fill:#ffffff;fill-opacity:1;stroke:none;stroke-width:22.66362762;stroke-linecap:butt;stroke-linejoin:round;stroke-miterlimit:4;stroke-dasharray:22.66362808, 45.32725615999999746;stroke-dashoffset:11.33858299"
         id="rect9371-2"
         width="52.768478"
         height="19.188538"
         x="191.23868"
         y="-351.94269"
         ry="4.7971344" />
      <rect
         ry="4.7971344"
         y="275.18854"
         x="150.46304"
         height="19.188538"
         width="52.768478"
         id="rect9316-1"
         style="opacity:1;fill:#ffffff;fill-opacity:1;stroke:none;stroke-width:22.66362762;stroke-linecap:butt;stroke-linejoin:round;stroke-miterlimit:4;stroke-dasharray:22.66362808, 45.32725615999999746;stroke-dashoffset:11.33858299" />
      <rect
         ry="4.7971344"
         y="275.18854"
         x="212.82579"
         height="19.188538"
         width="52.768478"
         id="rect9316-3-7"
         style="opacity:1;fill:#ffffff;fill-opacity:1;stroke:none;stroke-width:22.66362762;stroke-linecap:butt;stroke-linejoin:round;stroke-miterlimit:4;stroke-dasharray:22.66362808, 45.32725615999999746;stroke-dashoffset:11.33858299" />
      <rect
         ry="4.7971344"
         y="275.18854"
         x="275.18854"
         height="19.188538"
         width="52.768478"
         id="rect9316-7-9"
         style="opacity:1;fill:#ffffff;fill-opacity:1;stroke:none;stroke-width:22.66362762;stroke-linecap:butt;stroke-linejoin:round;stroke-miterlimit:4;stroke-dasharray:22.66362808, 45.32725615999999746;stroke-dashoffset:11.33858299" />
      <rect
         ry="4.7971344"
         y="313.56561"
         x="150.46304"
         height="19.188538"
         width="52.768478"
         id="rect9316-8"
         style="opacity:1;fill:#ffffff;fill-opacity:1;stroke:none;stroke-width:22.66362762;stroke-linecap:butt;stroke-linejoin:round;stroke-miterlimit:4;stroke-dasharray:22.66362808, 45.32725615999999746;stroke-dashoffset:11.33858299" />
      <rect
         ry="4.7971344"
         y="313.56561"
         x="212.82579"
         height="19.188538"
         width="52.768478"
         id="rect9316-3-5"
         style="opacity:1;fill:#ffffff;fill-opacity:1;stroke:none;stroke-width:22.66362762;stroke-linecap:butt;stroke-linejoin:round;stroke-miterlimit:4;stroke-dasharray:22.66362808, 45.32725615999999746;stroke-dashoffset:11.33858299" />
      <rect
         ry="4.7971344"
         y="313.56561"
         x="275.18854"
         height="19.188538"
         width="52.768478"
         id="rect9316-7-5"
         style="opacity:1;fill:#ffffff;fill-opacity:1;stroke:none;stroke-width:22.66362762;stroke-linecap:butt;stroke-linejoin:round;stroke-miterlimit:4;stroke-dasharray:22.66362808, 45.32725615999999746;stroke-dashoffset:11.33858299" />
      <rect
         ry="4.7971344"
         y="351.94269"
         x="150.46304"
         height="19.188538"
         width="52.768478"
         id="rect9316-1-9"
         style="opacity:1;fill:#ffffff;fill-opacity:1;stroke:none;stroke-width:22.66362762;stroke-linecap:butt;stroke-linejoin:round;stroke-miterlimit:4;stroke-dasharray:22.66362808, 45.32725615999999746;stroke-dashoffset:11.33858299" />
      <rect
         ry="4.7971344"
         y="351.94269"
         x="212.82579"
         height="19.188538"
         width="52.768478"
         id="rect9316-3-7-8"
         style="opacity:1;fill:#ffffff;fill-opacity:1;stroke:none;stroke-width:22.66362762;stroke-linecap:butt;stroke-linejoin:round;stroke-miterlimit:4;stroke-dasharray:22.66362808, 45.32725615999999746;stroke-dashoffset:11.33858299" />
      <rect
         ry="4.7971344"
         y="351.94269"
         x="275.18854"
         height="19.188538"
         width="52.768478"
         id="rect9316-7-9-9"
         style="opacity:1;fill:#ffffff;fill-opacity:1;stroke:none;stroke-width:22.66362762;stroke-linecap:butt;stroke-linejoin:round;stroke-miterlimit:4;stroke-dasharray:22.66362808, 45.32725615999999746;stroke-dashoffset:11.33858299" />
      <rect
         transform="rotate(90)"
         ry="4.7971344"
         y="-361.53696"
         x="313.56561"
         height="19.188538"
         width="57.565613"
         id="rect9316-7-0"
         style="opacity:1;fill:#ffffff;fill-opacity:1;stroke:none;stroke-width:23.67138863;stroke-linecap:butt;stroke-linejoin:round;stroke-miterlimit:4;stroke-dasharray:23.67138751, 47.34277501999999771;stroke-dashoffset:11.33858299" />
    </g>
  </g>
  <g
     inkscape:groupmode="layer"
     id="layer6"
     inkscape:label="Details"
     style="display:none"
     sodipodi:insensitive="true">
    <g
       id="g8235"
       transform="matrix(0.26458333,0,0,0.26458333,-1.5874953,-1.5875)"
       style="opacity:0.84">
      <rect
         inkscape:export-ydpi="6.3999996"
         inkscape:export-xdpi="6.3999996"
         inkscape:export-filename="/Users/golui/git/ujio2018/Android/app/src/main/res/mipmap-mdpi/colddrink.png"
         ry="112"
         y="16"
         x="16"
         height="480"
         width="480"
         id="rect4150-5"
         style="opacity:1;fill:#77d17f;fill-opacity:0.94117647;stroke:none;stroke-width:3.77952766;stroke-linecap:round;stroke-miterlimit:4;stroke-dasharray:none" />
      <circle
         r="38.649349"
         cy="256"
         cx="262"
         id="path5901"
         style="opacity:1;fill:#ffffff;fill-opacity:1;stroke:none;stroke-width:22.82442093;stroke-linecap:butt;stroke-linejoin:round;stroke-miterlimit:4;stroke-dasharray:none" />
      <circle
         r="38.649349"
         cy="256"
         cx="409.35065"
         id="path5901-8"
         style="opacity:1;fill:#ffffff;fill-opacity:1;stroke:none;stroke-width:22.82442093;stroke-linecap:butt;stroke-linejoin:round;stroke-miterlimit:4;stroke-dasharray:none" />
      <circle
         r="38.649349"
         cy="256"
         cx="114.64935"
         id="path5901-0"
         style="opacity:1;fill:#ffffff;fill-opacity:1;stroke:none;stroke-width:22.82442093;stroke-linecap:butt;stroke-linejoin:round;stroke-miterlimit:4;stroke-dasharray:none" />
    </g>
  </g>
  <g
     inkscape:groupmode="layer"
     id="layer7"
     inkscape:label="Drink Glass"
     style="display:none"
     sodipodi:insensitive="true">
    <path
       transform="translate(0,-164.70832)"
       inkscape:connector-curvature="0"
       d="m 66.145835,255.03305 a 5.3442619,4.8374774 0 0 1 -5.34426,4.83748 5.3442619,4.8374774 0 0 1 -5.34426,-4.83748 5.3442619,4.8374774 0 0 1 5.34426,-4.83748 5.3442619,4.8374774 0 0 1 5.34426,4.83748 z m 10.68852,-19.34991 a 5.3442619,4.8374774 0 0 1 -5.34426,4.83748 5.3442619,4.8374774 0 0 1 -5.34426,-4.83748 5.3442619,4.8374774 0 0 1 5.34426,-4.83747 5.3442619,4.8374774 0 0 1 5.34426,4.83747 z m -21.37704,-14.51243 0,-33.86234 -16.03279,-9.67495 m 10.68853,106.4245 -5.34427,-67.72469 42.7541,0 -5.34427,67.72469 m -48.09835,-82.23712 64.13114,0 -5.34426,82.23712 -53.44262,0 z"
       style="opacity:1;fill:none;fill-opacity:0.94117647;stroke:#ffffff;stroke-width:5;stroke-linecap:round;stroke-linejoin:round;stroke-miterlimit:4;stroke-dasharray:none"
       id="path4176-6" />
  </g>
  <g
     inkscape:groupmode="layer"
     id="layer8"
     inkscape:label="Hourglass"
     style="display:none"
     sodipodi:insensitive="true">
    <g
       id="g8255"
       transform="matrix(0.26458333,0,0,0.26458333,-1.5874953,-1.5875)"
       style="opacity:0.84">
      <path
         inkscape:connector-curvature="0"
         id="rect4158"
         d="M 295.52942,31.999998 269.17647,58.35294 287.7477,76.924166 c -31.6865,31.729834 -51.48375,52.280874 -62.8488,73.387414 -10.78302,20.02561 -12.40442,40.0755 -8.69853,65.88879 -25.81329,-3.70589 -45.86318,-2.08449 -65.88879,8.69853 -21.10654,11.36505 -41.65758,31.1623 -73.387414,62.8488 L 58.35294,269.17647 31.999998,295.52942 216.47058,480 242.82353,453.64707 224.2523,435.07583 c 31.6865,-31.72983 51.48375,-52.28087 62.8488,-73.38741 10.78302,-20.02561 12.40442,-40.0755 8.69853,-65.88879 25.81329,3.70589 45.86318,2.08449 65.88879,-8.69853 21.10654,-11.36505 41.65758,-31.1623 73.38741,-62.8488 L 453.64707,242.82353 480,216.47058 295.52942,31.999998 Z m 7.79939,60.505286 116.16591,116.165906 c -31.62405,31.42816 -51.53696,50.05624 -68.24196,59.05124 -18.9228,10.18921 -34.63177,10.2616 -66.74288,3.83938 a 11.005634,11.005634 0 0 0 -12.94807,12.94807 c 6.42222,32.11111 6.34983,47.82008 -3.83938,66.74288 -8.995,16.705 -27.62308,36.61791 -59.05124,68.24196 L 92.505284,303.32881 c 31.624046,-31.42816 51.536956,-50.05624 68.241956,-59.05124 18.9228,-10.18921 34.63177,-10.2616 66.74288,-3.83938 a 11.005634,11.005634 0 0 0 12.94807,-12.94807 c -6.42222,-32.11111 -6.34983,-47.82008 3.83938,-66.74288 8.995,-16.705 27.62308,-36.61791 59.05124,-68.241956 z"
         style="opacity:1;fill:#ffffff;fill-opacity:1;stroke:none;stroke-width:3.59406567;stroke-linecap:round;stroke-miterlimit:4;stroke-dasharray:none" />
      <path
         inkscape:connector-curvature="0"
         id="path4251"
         d="m 249.95613,218.73131 c 0.39374,2.10816 0.81034,4.28382 1.27383,6.60118 l 0,0.002 c 2.99913,15.01577 -10.87943,28.89432 -25.8952,25.8952 l -0.002,0 c -31.41872,-6.28376 -42.66387,-6.25774 -59.3674,2.73646 -13.02235,7.01205 -31.06413,23.16638 -57.80697,49.45197 L 208.58187,403.8416 c 26.28559,-26.74284 42.43992,-44.78462 49.45197,-57.80696 8.9942,-16.70354 9.02022,-27.94869 2.73646,-59.36741 l 0,-0.002 c -2.99912,-15.01577 10.87943,-28.89432 25.8952,-25.8952 l 0.002,0 c 31.41871,6.28376 42.66386,6.25774 59.3674,-2.73646 11.2473,-6.05626 26.27156,-18.96948 47.37973,-39.30227 l -143.45851,0 z"
         style="color:#000000;font-style:normal;font-variant:normal;font-weight:normal;font-stretch:normal;font-size:medium;line-height:normal;font-family:sans-serif;font-variant-ligatures:none;font-variant-position:normal;font-variant-caps:normal;font-variant-numeric:normal;font-variant-alternates:normal;font-feature-settings:normal;text-indent:0;text-align:start;text-decoration:none;text-decoration-line:none;text-decoration-style:solid;text-decoration-color:#000000;letter-spacing:normal;word-spacing:normal;text-transform:none;direction:ltr;block-progression:tb;writing-mode:lr-tb;baseline-shift:baseline;text-anchor:start;white-space:normal;shape-padding:0;clip-rule:nonzero;display:inline;overflow:visible;visibility:visible;opacity:1;isolation:auto;mix-blend-mode:normal;color-interpolation:sRGB;color-interpolation-filters:linearRGB;solid-color:#000000;solid-opacity:1;fill:#ffffff;fill-opacity:1;fill-rule:nonzero;stroke:none;stroke-width:22.00906754;stroke-linecap:round;stroke-linejoin:miter;stroke-miterlimit:4;stroke-dasharray:none;stroke-dashoffset:0;stroke-opacity:1;color-rendering:auto;image-rendering:auto;shape-rendering:auto;text-rendering:auto;enable-background:accumulate" />
    </g>
  </g>
  <g
     inkscape:groupmode="layer"
     id="layer9"
     inkscape:label="JurPizza Logo"
     style="display:none"
     sodipodi:insensitive="true">
    <g
       id="g8284"
       transform="matrix(0.26458333,0,0,0.26458333,-1.5874953,-1.5875)"
       style="opacity:0.84">
      <g
         style="fill:#ffffff"
         transform="matrix(0.50000001,0.8660254,0.8660254,-0.50000001,-132.41838,259.80048)"
         id="g4189">
        <g
           style="fill:#ffffff"
           id="afcae5a789ccd549f9c6e2a2f818024c"
           transform="matrix(-0.47945089,0.47945089,-0.47945089,-0.47945089,399.09054,434.32829)"
           inkscape:transform-center-x="-106.20412"
           inkscape:transform-center-y="189.22657">
          <g
             style="fill:#ffffff"
             id="g4144" />
          <path
             style="display:inline;fill:#ffffff"
             d="m 65.077,40.184 0,-39.684 c 148.302,0 282.886,58.685 381.847,154.071 l -29.197,30.106 C 324.203,98.812 200.899,44.897 65.077,40.184 Z m 179.375,290.709 c -4.259,-7.916 -12.528,-12.931 -21.584,-12.931 -13.518,0 -24.515,10.997 -24.515,24.515 0,9.388 5.276,17.794 13.601,21.932 l 32.498,-33.516 z M 358.159,213.631 381.004,190.07 c 0.017,-0.302 0.027,-0.6 0.027,-0.894 0,-0.653 -0.036,-1.336 -0.11,-2.098 -8.714,-7.828 -17.658,-15.316 -26.616,-22.283 -12.593,1.125 -22.307,11.634 -22.307,24.381 0,13.518 10.999,24.516 24.518,24.516 0.534,0 1.078,-0.02 1.643,-0.061 z m -2.557,6.946 -104.62,107.893 c -5.167,-10.322 -15.812,-17.439 -28.114,-17.439 -17.339,0 -31.446,14.107 -31.446,31.446 0,12.645 7.52,23.543 18.311,28.533 L 73.499,511.5 l 0,-39.308 c 10.855,0 19.654,-8.798 19.654,-19.654 0,-10.855 -8.798,-19.653 -19.654,-19.653 l 0,-157.58 c 3.646,1.481 7.624,2.314 11.792,2.314 17.339,0 31.446,-14.107 31.446,-31.446 0,-17.339 -14.107,-31.446 -31.446,-31.446 -4.169,0 -8.146,0.833 -11.792,2.314 l 0,-157.065 c 103.927,3.608 199.586,39.657 277.22,98.315 -14.576,2.729 -25.65,15.527 -25.65,30.886 -0.001,17.032 13.619,30.912 30.533,31.4 z M 152.114,364.096 c 0,-16.283 -13.197,-29.48 -29.48,-29.48 -16.284,0 -29.481,13.197 -29.481,29.48 0,16.284 13.197,29.481 29.481,29.481 16.283,0 29.48,-13.197 29.48,-29.481 z m 39.307,-226.019 c 0,-21.711 -17.596,-39.308 -39.308,-39.308 -21.712,0 -39.308,17.597 -39.308,39.308 0,21.711 17.596,39.308 39.308,39.308 21.712,0 39.308,-17.597 39.308,-39.308 z m 58.962,98.269 c 0,-10.855 -8.798,-19.653 -19.654,-19.653 -10.856,0 -19.654,8.798 -19.654,19.653 0,10.856 8.798,19.654 19.654,19.654 10.856,0 19.654,-8.798 19.654,-19.654 z m -139.577,9.827 c 0,-14.069 -11.446,-25.515 -25.515,-25.515 -3.376,0 -6.665,0.668 -9.792,1.987 l 0,47.056 c 3.128,1.319 6.417,1.987 9.792,1.987 14.069,0 25.515,-11.446 25.515,-25.515 z"
             id="path4146"
             inkscape:connector-curvature="0" />
        </g>
        <g
           style="fill:#ffffff"
           transform="matrix(0,0.50853447,-0.50853447,0,380.11537,165.45982)"
           id="g4173"
           inkscape:transform-center-x="-129.93055"
           inkscape:transform-center-y="92.808301">
          <g
             style="fill:#ffffff"
             id="g4175" />
          <path
             inkscape:connector-curvature="0"
             id="path4177"
             d="m 65.077,40.184 0,-39.684 c 148.302,0 282.886,58.685 381.847,154.071 l -29.197,30.106 C 324.203,98.812 200.899,44.897 65.077,40.184 Z m 179.375,290.709 c -4.259,-7.916 -12.528,-12.931 -21.584,-12.931 -13.518,0 -24.515,10.997 -24.515,24.515 0,9.388 5.276,17.794 13.601,21.932 l 32.498,-33.516 z M 358.159,213.631 381.004,190.07 c 0.017,-0.302 0.027,-0.6 0.027,-0.894 0,-0.653 -0.036,-1.336 -0.11,-2.098 -8.714,-7.828 -17.658,-15.316 -26.616,-22.283 -12.593,1.125 -22.307,11.634 -22.307,24.381 0,13.518 10.999,24.516 24.518,24.516 0.534,0 1.078,-0.02 1.643,-0.061 z m -2.557,6.946 -104.62,107.893 c -5.167,-10.322 -15.812,-17.439 -28.114,-17.439 -17.339,0 -31.446,14.107 -31.446,31.446 0,12.645 7.52,23.543 18.311,28.533 L 73.499,511.5 l 0,-39.308 c 10.855,0 19.654,-8.798 19.654,-19.654 0,-10.855 -8.798,-19.653 -19.654,-19.653 l 0,-157.58 c 3.646,1.481 7.624,2.314 11.792,2.314 17.339,0 31.446,-14.107 31.446,-31.446 0,-17.339 -14.107,-31.446 -31.446,-31.446 -4.169,0 -8.146,0.833 -11.792,2.314 l 0,-157.065 c 103.927,3.608 199.586,39.657 277.22,98.315 -14.576,2.729 -25.65,15.527 -25.65,30.886 -0.001,17.032 13.619,30.912 30.533,31.4 z M 152.114,364.096 c 0,-16.283 -13.197,-29.48 -29.48,-29.48 -16.284,0 -29.481,13.197 -29.481,29.48 0,16.284 13.197,29.481 29.481,29.481 16.283,0 29.48,-13.197 29.48,-29.481 z m 39.307,-226.019 c 0,-21.711 -17.596,-39.308 -39.308,-39.308 -21.712,0 -39.308,17.597 -39.308,39.308 0,21.711 17.596,39.308 39.308,39.308 21.712,0 39.308,-17.597 39.308,-39.308 z m 58.962,98.269 c 0,-10.855 -8.798,-19.653 -19.654,-19.653 -10.856,0 -19.654,8.798 -19.654,19.653 0,10.856 8.798,19.654 19.654,19.654 10.856,0 19.654,-8.798 19.654,-19.654 z m -139.577,9.827 c 0,-14.069 -11.446,-25.515 -25.515,-25.515 -3.376,0 -6.665,0.668 -9.792,1.987 l 0,47.056 c 3.128,1.319 6.417,1.987 9.792,1.987 14.069,0 25.515,-11.446 25.515,-25.515 z"
             style="display:inline;fill:#ffffff" />
        </g>
        <g
           style="fill:#ffffff"
           inkscape:transform-center-y="-68.320467"
           inkscape:transform-center-x="-99.006729"
           id="g4179"
           transform="matrix(0.26969113,0.26969113,-0.26969113,0.26969113,251.40109,31.791446)">
          <g
             style="fill:#ffffff"
             id="g4181" />
          <path
             style="display:inline;fill:#ffffff"
             d="m 65.077,40.184 0,-39.684 c 148.302,0 282.886,58.685 381.847,154.071 l -29.197,30.106 C 324.203,98.812 200.899,44.897 65.077,40.184 Z m 179.375,290.709 c -4.259,-7.916 -12.528,-12.931 -21.584,-12.931 -13.518,0 -24.515,10.997 -24.515,24.515 0,9.388 5.276,17.794 13.601,21.932 l 32.498,-33.516 z M 358.159,213.631 381.004,190.07 c 0.017,-0.302 0.027,-0.6 0.027,-0.894 0,-0.653 -0.036,-1.336 -0.11,-2.098 -8.714,-7.828 -17.658,-15.316 -26.616,-22.283 -12.593,1.125 -22.307,11.634 -22.307,24.381 0,13.518 10.999,24.516 24.518,24.516 0.534,0 1.078,-0.02 1.643,-0.061 z m -2.557,6.946 -104.62,107.893 c -5.167,-10.322 -15.812,-17.439 -28.114,-17.439 -17.339,0 -31.446,14.107 -31.446,31.446 0,12.645 7.52,23.543 18.311,28.533 L 73.499,511.5 l 0,-39.308 c 10.855,0 19.654,-8.798 19.654,-19.654 0,-10.855 -8.798,-19.653 -19.654,-19.653 l 0,-157.58 c 3.646,1.481 7.624,2.314 11.792,2.314 17.339,0 31.446,-14.107 31.446,-31.446 0,-17.339 -14.107,-31.446 -31.446,-31.446 -4.169,0 -8.146,0.833 -11.792,2.314 l 0,-157.065 c 103.927,3.608 199.586,39.657 277.22,98.315 -14.576,2.729 -25.65,15.527 -25.65,30.886 -0.001,17.032 13.619,30.912 30.533,31.4 z M 152.114,364.096 c 0,-16.283 -13.197,-29.48 -29.48,-29.48 -16.284,0 -29.481,13.197 -29.481,29.48 0,16.284 13.197,29.481 29.481,29.481 16.283,0 29.48,-13.197 29.48,-29.481 z m 39.307,-226.019 c 0,-21.711 -17.596,-39.308 -39.308,-39.308 -21.712,0 -39.308,17.597 -39.308,39.308 0,21.711 17.596,39.308 39.308,39.308 21.712,0 39.308,-17.597 39.308,-39.308 z m 58.962,98.269 c 0,-10.855 -8.798,-19.653 -19.654,-19.653 -10.856,0 -19.654,8.798 -19.654,19.653 0,10.856 8.798,19.654 19.654,19.654 10.856,0 19.654,-8.798 19.654,-19.654 z m -139.577,9.827 c 0,-14.069 -11.446,-25.515 -25.515,-25.515 -3.376,0 -6.665,0.668 -9.792,1.987 l 0,47.056 c 3.128,1.319 6.417,1.987 9.792,1.987 14.069,0 25.515,-11.446 25.515,-25.515 z"
             id="path4183"
             inkscape:connector-curvature="0" />
        </g>
      </g>
      <g
         style="fill:#ffffff"
         transform="matrix(0.38370748,-0.05113633,0.05113633,0.38370748,144.19825,124.95043)"
         id="g4290">
        <path
           inkscape:connector-curvature="0"
           style="fill:#ffffff;stroke-width:1.33333325"
           d="m -107.3333,271.56979 c 2.56667,-1.09761 8.623433,-6.09984 13.459479,-11.11605 7.443413,-7.72073 9.050507,-10.24584 10.471987,-16.45375 0.923546,-4.03333 2.522333,-9.92065 3.552853,-13.08293 3.921693,-12.03415 -1.576373,-31.15108 -21.563359,-74.97629 -2.5232,-5.53256 -4.58763,-10.95965 -4.58763,-12.0602 0,-1.24963 4.49011,-3.92413 11.957936,-7.12264 6.576866,-2.81692 12.948146,-6.21583 14.1584,-7.55315 2.775066,-3.06641 1.67412,-10.16238 -2.22628,-14.34896 l -2.743414,-2.94472 -7.012906,4.01239 c -4.218631,2.41365 -8.830006,3.98169 -11.573326,3.93536 -2.85679,-0.0483 -17.30967,5.11696 -38.68884,13.82673 -18.77064,7.64708 -34.82064,14.33158 -35.66667,14.85444 -3.95001,2.44126 0.43971,14.90374 6.36696,18.0759 2.17199,1.16241 4.04285,0.77968 9.36035,-1.91491 3.6552,-1.85223 7.48203,-3.36768 8.50407,-3.36768 1.02205,0 4.06864,-1.5 6.77021,-3.33333 2.70156,-1.83334 5.7243,-3.33334 6.71718,-3.33334 2.68532,0 21.14839,44.66021 28.74824,69.53893 5.77413,18.90212 5.26869,21.58382 -6.1098,32.41602 -4.70916,4.48306 -8.56211,9.12385 -8.56211,10.31285 0,1.189 1.81956,3.69287 4.04345,5.56416 4.26932,3.59239 4.01259,3.60869 14.62322,-0.92883 z"
           id="path4284" />
        <path
           inkscape:connector-curvature="0"
           style="fill:#ffffff;stroke-width:1.33333325"
           d="m -2.4243033,187.48577 c 2.07914656,-1.74948 5.9250531,-4.07703 8.546453,-5.17232 3.5127066,-1.46769 5.5260133,-3.60792 7.6553603,-8.13791 1.589053,-3.38057 2.889186,-6.66002 2.889186,-7.28769 0,-0.62767 1.163267,-2.19396 2.58504,-3.48065 2.385413,-2.15876 2.820187,-2.17472 5.630013,-0.20664 1.674733,1.17302 4.561453,2.10804 6.41496,2.07781 4.692173,-0.0765 15.28832,-5.50117 15.760693,-8.06861 0.21488,-1.16796 -2.689653,-9.65295 -6.454547,-18.85552 -5.373333,-13.13415 -8.711173,-19.09171 -15.522986,-27.7062 L 16.402123,99.673797 10.23287,100.51938 c -11.02508006,1.51116 -11.09460006,2.1768 -2.4852803,23.79878 4.1721733,10.47825 7.5857733,20.07212 7.5857733,21.31969 0,1.24757 -1.27516,2.95077 -2.833693,3.78487 -1.558534,0.8341 -5.5018136,3.55317 -8.7628269,6.04236 -8.8366264,6.74514 -10.976333,5.09365 -19.0229991,-14.68254 -5.652227,-13.89144 -12.16616,-23.44921 -15.981386,-23.44921 -3.087894,0 -16.181733,5.26589 -18.62472,7.49023 -3.060347,2.78644 0.402067,15.58592 5.85536,21.64536 3.20512,3.56138 5.36112,8.2782 8.04872,17.60869 5.002733,17.36787 10.541773,24.10693 20.835892,25.34995 3.933774,0.47501 7.5562801,0.94812 8.0500135,1.05137 0.4937466,0.1032 2.5988266,-1.24367 4.6779732,-2.99316 z"
           id="path4282" />
        <path
           inkscape:connector-curvature="0"
           style="fill:#ffffff;stroke-width:1.33333325"
           d="m 110.78755,139.79904 12.85318,-6.86763 -0.82572,-6.02425 c -0.45413,-3.31334 -2.32329,-9.2954 -4.15368,-13.2935 -1.83038,-3.99808 -3.32797,-8.6903 -3.32797,-10.42716 0,-5.189343 4.63973,-15.830956 13.23187,-30.348395 4.4558,-7.528614 8.10146,-14.045973 8.10146,-14.483027 0,-1.4528 -12.98905,-10.35508 -15.10881,-10.35508 -3.411,0 -13.84824,20.703627 -14.92853,29.612706 -0.50771,4.187 -1.71584,8.687 -2.68475,10 -1.59608,2.162933 -2.07851,1.69776 -5.133146,-4.949453 -1.85432,-4.035213 -6.092213,-10.00692 -9.417533,-13.27048 -6.028174,-5.9162 -6.060814,-5.928573 -11.053293,-4.185706 -7.74668,2.70436 -11.007267,5.23428 -11.007267,8.540653 0,1.66076 5.413333,16.496933 12.02964,32.969262 6.616306,16.47232 12.639426,32.19968 13.38472,34.94968 0.766746,2.82914 2.186879,5 3.270866,5 1.05368,0 7.699723,-3.09042 14.768963,-6.86762 z"
           id="path4280" />
        <path
           inkscape:connector-curvature="0"
           id="path4276"
           style="fill:#ffffff;stroke-width:1.33333325"
           d="m 204.49161,41.666665 c -4.91697,-8.510119 -10.49159,-21.180613 -10.49159,-23.846252 0,-2.767254 4.42204,-4.423334 21.04899,-7.8829603 19.81849,-4.1237199 24.44636,-4.1504132 29.07656,-0.1676666 l 3.6076,3.1031199 -1.92416,7.883786 -1.92416,7.883787 -15.27575,10.25408 c -8.40165,5.639733 -16.26846,10.295626 -17.4818,10.346413 -1.33278,0.05573 -3.95954,-2.94252 -6.63569,-7.574307 z m 6.13029,82.854305 c 1.18014,-1.18012 6.17299,-3.82975 11.09524,-5.88804 12.7955,-5.35057 13.12914,-6.49591 6.92872,-23.785493 -2.79702,-7.799426 -5.47266,-15.157493 -5.94584,-16.351266 -0.62468,-1.575987 2.3382,-5.045453 10.81719,-12.666666 24.4612,-21.9866 28.4632,-26.20676 32.48579,-34.256666 4.97762,-9.96112 5.00348,-14.441253 0.1324,-22.9334129 C 255.20592,-10.41468 234.27062,-19.756373 215.03234,-14.163653 210.93886,-12.97364 205.77662,-12 203.5607,-12 c -3.69212,0 -20.22017,7.1657064 -28.2273,12.23789297 -1.83334,1.16133333 -5.00374,2.49945323 -7.04535,2.97359993 -7.8629,1.82608 -7.46325,4.2188932 6.36749,38.1234261 8.27824,20.293172 12.57303,32.494626 12.1903,34.632439 -0.36544,2.041146 2.4452,10.905053 7.36536,23.228119 11.64048,29.154813 12.01046,29.725773 16.41074,25.325493 z" />
        <path
           inkscape:connector-curvature="0"
           style="fill:#ffffff;stroke-width:1.33333325"
           d="m 347.89785,69.452598 c 15.47109,-6.854573 16.48276,-7.885987 13.63048,-13.896706 -1.20723,-2.544067 -2.19498,-5.550867 -2.19498,-6.6818 0,-1.13092 -1.28061,-2.9532 -2.84581,-4.049507 -1.5652,-1.096306 -3.98876,-5.378786 -5.38568,-9.516626 -1.39693,-4.13784 -3.97707,-9.72488 -5.73363,-12.415653 -1.75657,-2.690774 -4.22798,-7.592307 -5.49204,-10.892307 -2.85457,-7.4522795 -4.27552,-9.3350261 -7.03942,-9.3271594 -3.53468,0.010667 -18.06524,6.3422532 -19.42084,8.4633064 -0.86668,1.356053 1.33616,10.489706 7.17356,29.743759 10.48125,34.571293 10.17685,33.78676 13.10892,33.78676 1.33708,0 7.72682,-2.346334 14.19944,-5.214067 z"
           id="path4274" />
        <path
           inkscape:connector-curvature="0"
           style="fill:#ffffff;stroke-width:1.33333325"
           d="m 423.31011,12.009399 c 9.05444,-3.6615062 17.93913,-7.6247061 19.74375,-8.8071328 1.8046,-1.1824266 9.29721,-4.6366665 16.65024,-7.6760665 15.85832,-6.5551197 17.36078,-8.2315867 13.62925,-15.2075997 -3.90169,-7.29412 -9.36799,-7.41116 -23.76168,-0.50876 -6.08553,2.91828 -11.85215,6.254907 -12.81472,7.41472 -2.15821,2.600493 -5.26772,2.733107 -6.2148,0.26504 -0.38912,-1.01404 0.73747,-5.36404 2.50353,-9.666666 1.76607,-4.302614 3.93259,-12.322934 4.8145,-17.822933 0.8819,-5.5 2.44085,-13 3.46432,-16.666667 2.78273,-9.969373 4.9246,-23.184959 4.00006,-24.680892 -1.81744,-2.940667 -4.61144,-1.942694 -64.32454,22.975706 l -9.66667,4.03392 0,6.205626 c 0,3.413093 0.90791,7.50184 2.01756,9.086107 l 2.01758,2.880466 9.64909,-3.978493 c 5.30701,-2.188187 12.8614,-5.791187 16.78754,-8.006667 7.38482,-4.167199 10.86156,-4.266239 10.86156,-0.309426 0,1.25952 -3.3,14.772946 -7.33333,30.029839 -7.71829,29.195999 -8.31849,32.911986 -5.73333,35.497146 2.69382,2.693826 6.60613,1.859347 23.71009,-5.057267 z"
           id="path4272" />
        <path
           inkscape:connector-curvature="0"
           style="fill:#ffffff;stroke-width:1.33333325"
           d="m 307.25323,-7.2827468 c 2.86012,-1.80552 8.39819,-4.1047602 12.30684,-5.1094132 l 7.10662,-1.826653 -0.16668,-6.557267 c -0.0917,-3.606493 -1.11107,-8.807253 -2.2653,-11.557253 -2.48014,-5.909 -4.27242,-6.15992 -20.42541,-2.85956 -9.52025,1.94516 -15.14261,4.64308 -15.14261,7.266253 0,3.317534 9.89961,23.9266397 11.49318,23.9266397 1.04123,0 4.23324,-1.4772399 7.09336,-3.2827465 z"
           id="path4270" />
        <path
           inkscape:connector-curvature="0"
           style="fill:#ffffff;stroke-width:1.33333325"
           d="m 533.67172,-32.5304 c 9.53673,-3.958386 18.76199,-8.112679 20.50057,-9.231746 1.73858,-1.11908 8.56106,-4.236333 15.16106,-6.92724 16.02001,-6.531586 16.35961,-6.905306 13.37536,-14.719453 l -2.37806,-6.22684 -6.83198,0.593134 c -3.75759,0.326213 -9.23199,1.816053 -12.16532,3.310746 -2.93334,1.494707 -7.43334,3.79712 -10,5.116493 -2.56667,1.319374 -5.14648,3.19756 -5.73292,4.173747 -1.38468,2.304947 -4.82236,2.28328 -5.71235,-0.036 -0.3822,-0.996 0.78833,-5.646 2.60119,-10.333333 1.81284,-4.687347 3.98145,-12.72244 4.81913,-17.855773 0.83768,-5.133333 2.33892,-12.333333 3.33609,-15.999995 2.50704,-9.2186 4.74603,-23.49547 3.8995,-24.86519 -1.80098,-2.91404 -7.12294,-1.058 -54.87731,19.13857 l -19,8.035602 0,5.93316 c 0,3.26324 0.65534,7.157653 1.45628,8.654253 2.0366,3.805413 6.7632,2.646267 23.59555,-5.786573 10.37816,-5.19936 14.09372,-6.497613 15.25949,-5.33184 1.70983,1.709827 1.24901,3.901187 -8.79028,41.802506 -5.29072,19.974079 -5.69581,22.528439 -3.96465,24.999999 1.06048,1.514067 3.31888,2.75284 5.01864,2.75284 1.69977,0 10.89328,-3.23868 20.43001,-7.197067 z"
           id="path4268" />
        <path
           inkscape:connector-curvature="0"
           id="path4211"
           style="fill:#ffffff;stroke-width:1.33333325"
           d="m 631.91004,-72.947119 c -3.09935,-3.099346 -5.91003,-10.144026 -5.91003,-14.812879 0,-5.67068 4.85347,-11.875987 15.12989,-19.344052 8.64244,-6.28061 17.57882,-9.56359 21.71352,-7.97696 0.93087,0.35721 2.57374,3.14657 3.65082,6.19857 3.25337,9.218762 6.17244,19.270388 6.17244,21.254402 0,2.263693 -9.0305,7.30232 -23.03471,12.852386 -11.90783,4.719227 -14.55783,4.992653 -17.72193,1.828533 z m 21.5662,18.16276 c 9.27614,-3.626787 15.22854,-6.827707 17.7865,-9.56472 3.17316,-3.395266 5.2717,-4.281973 12.01614,-5.0772 5.5585,-0.6554 9.96488,-2.159346 13.77968,-4.703173 3.08446,-2.056813 8.00812,-4.06912 10.94145,-4.471773 4.82819,-0.66276 5.37211,-1.131867 5.74275,-4.95276 0.26254,-2.70664 -1.05054,-7.11276 -3.6605,-12.283066 -2.23844,-4.434329 -5.81693,-12.460319 -7.95218,-17.835529 -3.9504,-9.94455 -8.28934,-17.63671 -15.4634,-27.41387 -2.2,-2.99827 -6.4,-9.43389 -9.33334,-14.30139 -2.93333,-4.86749 -6.23333,-9.70636 -7.33333,-10.75304 C 664.28572,-171.57818 653.75566,-180 652.67153,-180 c -2.01812,0 -14.69035,5.10356 -24.00485,9.66763 -9.17762,4.49698 -25.36503,16.81593 -31.18464,23.73215 -5.20201,6.18224 -4.58747,9.3517 2.54712,13.13658 7.24365,3.84276 7.13005,3.8864 23.87066,-9.17165 6.5449,-5.10517 13.9403,-10.2504 16.43422,-11.43384 4.37644,-2.07676 4.71012,-2.03543 9.57912,1.18672 3.21352,2.12661 5.32097,4.70765 5.80574,7.11043 0.41856,2.0746 1.15282,4.7844 1.63167,6.0218 0.65732,1.69856 -0.52187,2.96021 -4.81252,5.14914 -3.12575,1.59463 -13.03833,9.45151 -22.02796,17.45972 -19.24345,17.142615 -24.51557,25.395109 -24.50264,38.354282 0.0155,15.505519 5.12487,23.664572 17.13476,27.361959 10.02512,3.086346 15.35903,2.495653 30.33403,-3.35928 z" />
      </g>
    </g>
  </g>
  <g
     inkscape:groupmode="layer"
     id="layer10"
     inkscape:label="Plate"
     style="display:none"
     sodipodi:insensitive="true">
    <g
       style="opacity:0.84"
       id="g8331"
       transform="matrix(0.26458333,0,0,0.26458333,0.5998233,-75.539722)">
      <path
         sodipodi:nodetypes="ccccccccccccccccc"
         inkscape:connector-curvature="0"
         id="path4237"
         d="m 37.157025,197.15702 21.884297,0 0,-105.7741 14.589532,0 0,105.7741 21.884298,0 0,-105.7741 14.589528,0 0,134.95317 -29.17906,0 0,189.66391 -29.179064,0 0,-189.66391 -29.179063,0 0,-134.95317 14.589532,0 z"
         style="fill:#ffffff;fill-rule:evenodd;stroke:none;stroke-width:0.91184574px;stroke-linecap:butt;stroke-linejoin:miter;stroke-opacity:1" />
      <path
         inkscape:connector-curvature="0"
         id="path4243"
         d="M 270.58953,124.20937 A 145.89532,145.89532 0 0 0 124.69421,270.10468 145.89532,145.89532 0 0 0 270.58953,416 145.89532,145.89532 0 0 0 416.48485,270.10468 145.89532,145.89532 0 0 0 270.58953,124.20937 Z m 0,14.58953 A 131.30579,131.30579 0 0 1 401.89532,270.10468 131.30579,131.30579 0 0 1 270.58953,401.41047 131.30579,131.30579 0 0 1 139.28375,270.10468 131.30579,131.30579 0 0 1 270.58953,138.7989 Z"
         style="opacity:1;fill:#ffffff;fill-opacity:1;stroke:none;stroke-width:17.23173141;stroke-linecap:round;stroke-linejoin:round;stroke-miterlimit:4;stroke-dasharray:none" />
      <circle
         style="opacity:1;fill:#ffffff;fill-opacity:1;stroke:none;stroke-width:12.06221104;stroke-linecap:round;stroke-linejoin:round;stroke-miterlimit:4;stroke-dasharray:none"
         id="circle4245"
         cx="270.58954"
         cy="270.10468"
         r="102.12672" />
      <path
         sodipodi:nodetypes="ccccccc"
         inkscape:connector-curvature="0"
         id="path4250"
         d="m 445.66391,240.92562 14.58953,0 0,175.07438 29.17907,0 0,-306.38017 c 0,-32.826442 -43.7686,-32.826442 -43.7686,0 z"
         style="fill:#ffffff;fill-rule:evenodd;stroke:none;stroke-width:0.91184574px;stroke-linecap:butt;stroke-linejoin:miter;stroke-opacity:1" />
    </g>
  </g>
</svg>
