<?xml version="1.0" encoding="UTF-8" standalone="no"?>
<!-- Generator: Adobe Illustrator 22.0.1, SVG Export Plug-In . SVG Version: 6.00 Build 0)  -->

<svg
   xmlns:dc="http://purl.org/dc/elements/1.1/"
   xmlns:cc="http://creativecommons.org/ns#"
   xmlns:rdf="http://www.w3.org/1999/02/22-rdf-syntax-ns#"
   xmlns:svg="http://www.w3.org/2000/svg"
   xmlns="http://www.w3.org/2000/svg"
   xmlns:sodipodi="http://sodipodi.sourceforge.net/DTD/sodipodi-0.dtd"
   xmlns:inkscape="http://www.inkscape.org/namespaces/inkscape"
   version="1.1"
   id="Warstwa_1"
   x="0px"
   y="0px"
   viewBox="0 0 64 64"
   xml:space="preserve"
   inkscape:version="0.91+devel+osxmenu r12922"
   sodipodi:docname="confirmed.svg"
   width="64"
   height="64"><metadata
     id="metadata17141"><rdf:RDF><cc:Work
         rdf:about=""><dc:format>image/svg+xml</dc:format><dc:type
           rdf:resource="http://purl.org/dc/dcmitype/StillImage" /><dc:title></dc:title></cc:Work></rdf:RDF></metadata><defs
     id="defs17139" /><sodipodi:namedview
     pagecolor="#ffffff"
     bordercolor="#666666"
     borderopacity="1"
     objecttolerance="10"
     gridtolerance="10"
     guidetolerance="10"
     inkscape:pageopacity="0"
     inkscape:pageshadow="2"
     inkscape:window-width="787"
     inkscape:window-height="480"
     id="namedview17137"
     showgrid="false"
     inkscape:zoom="1.2291667"
     inkscape:cx="96"
     inkscape:cy="96"
     inkscape:window-x="362"
     inkscape:window-y="155"
     inkscape:window-maximized="0"
     inkscape:current-layer="Warstwa_1" /><style
     type="text/css"
     id="style17113">
	.st0{fill:#78D175;}
	.st1{fill:#FFED6B;}
	.st2{fill:#1D1D1B;}
	.st3{fill:#FA7373;}
	.st4{fill:#FA7373;stroke:#000000;stroke-width:0.25;stroke-miterlimit:10;}
</style><path
     class="st0"
     d="M 60,64 4,64 C 1.8,64 0,62.2 0,60 L 0,4 C 0,1.8 1.8,0 4,0 l 56,0 c 2.2,0 4,1.8 4,4 l 0,56 c 0,2.2 -1.8,4 -4,4 z"
     id="path17115"
     inkscape:connector-curvature="0"
     style="fill:#78d175;stroke-width:0.33333334" /><g
     id="g17117"
     transform="scale(0.33333333)"><path
       class="st1"
       d="m 96.5,183.9 c -1.8,0 -3.4,-1 -4.2,-2.7 L 60,111.6 57.3,105.7 25.1,36.1 C 24.2,34.2 24.9,32 26.7,30.9 45.2,20.3 70,14.5 96.5,14.5 c 26.5,0 51.3,5.9 69.8,16.5 1.8,1 2.5,3.3 1.6,5.2 l -35.4,76.4 -3.8,8.2 -28,60.5 c -0.8,1.6 -2.4,2.6 -4.2,2.6 z"
       id="path17119"
       inkscape:connector-curvature="0"
       style="fill:#ffed6b" /><path
       class="st2"
       d="m 96.5,14.8 c 27.3,0 52,6.3 69.6,16.5 1.6,0.9 2.3,3 1.5,4.7 l -15,32.4 -3.7,7.9 -12,25.8 -1.4,3 -3.3,7.2 -3.8,8.2 -28,60.5 c -0.8,1.6 -2.3,2.5 -3.9,2.5 -1.6,0 -3.1,-0.8 -3.9,-2.5 l -28,-60.5 -4.2,-9.1 -2.7,-5.9 L 56.1,102 43.8,75.6 40.7,68.8 25.4,36 C 24.6,34.3 25.2,32.2 26.9,31.3 44.5,21.1 69.2,14.8 96.5,14.8 m 0,-0.7 c -26.6,0 -51.4,5.9 -70,16.5 -2,1.1 -2.8,3.6 -1.8,5.7 l 15.2,32.8 3.1,6.8 12.3,26.5 1.6,3.5 2.7,5.9 4.2,9.1 28,60.5 c 0.8,1.8 2.6,2.9 4.5,2.9 2,0 3.7,-1.1 4.5,-2.9 l 28,-60.5 3.8,-8.2 3.3,-7.2 1.4,-3 12,-25.8 3.7,-7.9 15,-32.4 c 1,-2.1 0.2,-4.5 -1.8,-5.7 C 147.9,20 123.1,14.1 96.5,14.1 l 0,0 z"
       id="path17121"
       inkscape:connector-curvature="0"
       style="fill:#1d1d1b" /></g><path
     class="st3"
     d="M 25.8,30.433333 C 25.8,33.8 23.366667,36.6 20.133333,37.166667 L 19.233333,35.2 18.7,34.033333 14.6,25.2 c 1.2,-1 2.7,-1.6 4.366667,-1.6 3.766666,0 6.833333,3.066667 6.833333,6.833333 z"
     id="path17123"
     inkscape:connector-curvature="0"
     style="fill:#fa7373;stroke-width:0.33333334" /><path
     class="st3"
     d="m 49.633333,25.433333 -4,8.6 -0.466666,1 -1.1,2.4 c -3.166667,-0.6 -5.533334,-3.366666 -5.533334,-6.7 C 38.533333,26.966667 41.6,23.9 45.366667,23.9 c 1.6,0.03333 3.1,0.6 4.266666,1.533333 z"
     id="path17125"
     inkscape:connector-curvature="0"
     style="fill:#fa7373;stroke-width:0.33333334" /><g
     id="g17127"
     transform="scale(0.33333333)"><path
       d="m 81.4,58.6 c -2,-1.8 -4.2,-3.4 -6.6,-4.5 -2.4,-1.1 -4.9,-1.7 -7.4,-1.6 -2.5,0 -5.1,0.8 -7.4,1.9 -2.4,1.1 -4.6,2.6 -6.9,4.2 1.7,-2.2 3.7,-4.1 6.1,-5.6 1.2,-0.8 2.5,-1.3 3.9,-1.8 1.4,-0.4 2.8,-0.7 4.3,-0.7 1.4,0 2.9,0.1 4.3,0.5 1.4,0.4 2.7,1 3.9,1.7 2.3,1.5 4.4,3.5 5.8,5.9 z"
       id="path17129"
       inkscape:connector-curvature="0" /></g><g
     id="g17131"
     transform="scale(0.33333333)"><path
       d="m 141.7,58.6 c -2,-1.8 -4.2,-3.4 -6.6,-4.5 -2.4,-1.1 -4.9,-1.7 -7.4,-1.6 -2.5,0 -5.1,0.8 -7.4,1.9 -2.4,1.1 -4.6,2.6 -6.9,4.2 1.7,-2.2 3.7,-4.1 6.1,-5.6 1.2,-0.8 2.5,-1.3 3.9,-1.8 1.4,-0.4 2.8,-0.7 4.3,-0.7 1.4,0 2.9,0.1 4.3,0.5 1.4,0.4 2.7,1 3.9,1.7 2.3,1.5 4.4,3.5 5.8,5.9 z"
       id="path17133"
       inkscape:connector-curvature="0" /></g><path
     class="st4"
     d="m 34.533333,21.9 c 0,1.1 -1.133333,2 -2.533333,2 -1.4,0 -2.533333,-0.9 -2.533333,-2 l 5.066666,0 z"
     id="path17135"
     inkscape:connector-curvature="0"
     style="fill:#fa7373;stroke:#000000;stroke-width:0.08333334;stroke-miterlimit:10" /></svg>