<?xml version="1.0" encoding="UTF-8" standalone="no"?>
<svg
   xmlns:dc="http://purl.org/dc/elements/1.1/"
   xmlns:cc="http://creativecommons.org/ns#"
   xmlns:rdf="http://www.w3.org/1999/02/22-rdf-syntax-ns#"
   xmlns:svg="http://www.w3.org/2000/svg"
   xmlns="http://www.w3.org/2000/svg"
   xmlns:sodipodi="http://sodipodi.sourceforge.net/DTD/sodipodi-0.dtd"
   xmlns:inkscape="http://www.inkscape.org/namespaces/inkscape"
   version="1.1"
   x="0px"
   y="0px"
   width="64"
   height="64"
   viewBox="0 0 64 64"
   xml:space="preserve"
   id="svg4141"
   inkscape:version="0.91+devel+osxmenu r12922"
   sodipodi:docname="drink_glass.svg"
   inkscape:export-filename="/Users/golui/git/ujio2018/Android/app/src/main/res/mipmap-mdpi/spoon_and_fork.png"
   inkscape:export-xdpi="6.0000005"
   inkscape:export-ydpi="6.0000005"><metadata
     id="metadata4152"><rdf:RDF><cc:Work
         rdf:about=""><dc:format>image/svg+xml</dc:format><dc:type
           rdf:resource="http://purl.org/dc/dcmitype/StillImage" /><dc:title></dc:title></cc:Work></rdf:RDF></metadata><defs
     id="defs4150" /><sodipodi:namedview
     pagecolor="#000000"
     bordercolor="#666666"
     borderopacity="1"
     objecttolerance="10"
     gridtolerance="10"
     guidetolerance="10"
     inkscape:pageopacity="0"
     inkscape:pageshadow="2"
     inkscape:window-width="1185"
     inkscape:window-height="624"
     id="namedview4148"
     showgrid="true"
     inkscape:snap-bbox="true"
     inkscape:bbox-nodes="true"
     inkscape:bbox-paths="true"
     inkscape:snap-nodes="true"
     inkscape:snap-center="true"
     showguides="true"
     inkscape:guide-bbox="true"
     inkscape:zoom="0.94284916"
     inkscape:cx="154.99403"
     inkscape:cy="230.78278"
     inkscape:window-x="229"
     inkscape:window-y="23"
     inkscape:window-maximized="0"
     inkscape:current-layer="svg4141"><inkscape:grid
       type="xygrid"
       id="grid4154" /></sodipodi:namedview><path
     id="path4176"
     style="opacity:1;fill:none;fill-opacity:0.94117647;stroke:#ffffff;stroke-width:2.87050843;stroke-linecap:round;stroke-linejoin:round;stroke-miterlimit:4;stroke-dasharray:none"
     d="m 32.000005,45.881145 a 3.0681496,2.7772038 0 0 1 -3.06815,2.777204 3.0681496,2.7772038 0 0 1 -3.06815,-2.777204 3.0681496,2.7772038 0 0 1 3.06815,-2.777204 3.0681496,2.7772038 0 0 1 3.06815,2.777204 z m 6.1363,-11.108814 a 3.0681496,2.7772038 0 0 1 -3.06815,2.777202 3.0681496,2.7772038 0 0 1 -3.06815,-2.777202 3.0681496,2.7772038 0 0 1 3.06815,-2.777204 3.0681496,2.7772038 0 0 1 3.06815,2.777204 z m -12.2726,-8.331612 0,-19.4404259 -9.20445,-5.554408 m 6.1363,61.0984819 -3.06815,-38.880852 24.54519,0 -3.06815,38.880852 m -27.61334,-47.212464 36.81779,0 -3.06815,47.212464 -30.68149,0 z"
     inkscape:connector-curvature="0" /></svg>