<?xml version="1.0" encoding="UTF-8" standalone="no"?>
<svg
   xmlns:dc="http://purl.org/dc/elements/1.1/"
   xmlns:cc="http://creativecommons.org/ns#"
   xmlns:rdf="http://www.w3.org/1999/02/22-rdf-syntax-ns#"
   xmlns:svg="http://www.w3.org/2000/svg"
   xmlns="http://www.w3.org/2000/svg"
   xmlns:sodipodi="http://sodipodi.sourceforge.net/DTD/sodipodi-0.dtd"
   xmlns:inkscape="http://www.inkscape.org/namespaces/inkscape"
   version="1.1"
   x="0px"
   y="0px"
   width="64"
   height="64"
   viewBox="0 0 64 64"
   xml:space="preserve"
   id="svg4141"
   inkscape:version="0.91+devel+osxmenu r12922"
   sodipodi:docname="hourglass.svg"
   inkscape:export-filename="/Users/golui/git/ujio2018/Android/app/src/main/res/mipmap-mdpi/hourglass.png"
   inkscape:export-xdpi="13.714286"
   inkscape:export-ydpi="13.714286"><metadata
     id="metadata4152"><rdf:RDF><cc:Work
         rdf:about=""><dc:format>image/svg+xml</dc:format><dc:type
           rdf:resource="http://purl.org/dc/dcmitype/StillImage" /><dc:title></dc:title></cc:Work></rdf:RDF></metadata><defs
     id="defs4150" /><sodipodi:namedview
     pagecolor="#000000"
     bordercolor="#666666"
     borderopacity="1"
     objecttolerance="10"
     gridtolerance="10"
     guidetolerance="10"
     inkscape:pageopacity="0"
     inkscape:pageshadow="2"
     inkscape:window-width="1185"
     inkscape:window-height="624"
     id="namedview4148"
     showgrid="true"
     inkscape:snap-bbox="true"
     inkscape:bbox-nodes="true"
     inkscape:bbox-paths="true"
     inkscape:snap-nodes="true"
     inkscape:snap-center="true"
     showguides="true"
     inkscape:guide-bbox="true"
     inkscape:zoom="0.66669503"
     inkscape:cx="124.39482"
     inkscape:cy="272.65596"
     inkscape:window-x="61"
     inkscape:window-y="181"
     inkscape:window-maximized="0"
     inkscape:current-layer="svg4141"><inkscape:grid
       type="xygrid"
       id="grid4154" /></sodipodi:namedview><path
     style="opacity:1;fill:#ffffff;fill-opacity:1;stroke:none;stroke-width:0.51343793;stroke-linecap:round;stroke-miterlimit:4;stroke-dasharray:none"
     d="m 37.647061,0 -3.764708,3.764706 2.653033,2.653033 c -4.526643,4.532833 -7.354822,7.468696 -8.9784,10.483915 -1.540432,2.860802 -1.77206,5.725072 -1.242647,9.412685 -3.687613,-0.529413 -6.551883,-0.297784 -9.412685,1.242647 -3.015219,1.623578 -5.951082,4.451757 -10.483916,8.9784 L 3.764706,33.882353 0,37.64706 26.35294,64 30.117648,60.235296 27.464614,57.582261 c 4.526643,-4.532832 7.354822,-7.468695 8.978401,-10.483915 1.540432,-2.860802 1.77206,-5.725072 1.242648,-9.412684 3.687612,0.529412 6.551882,0.297784 9.412684,-1.242648 3.01522,-1.623578 5.951082,-4.451757 10.483915,-8.9784 L 60.235297,30.117647 64,26.35294 37.647061,0 Z m 1.114198,8.643612 16.595131,16.59513 c -4.517722,4.489737 -7.362424,7.150891 -9.748852,8.435891 -2.703258,1.455601 -4.947395,1.465943 -9.534697,0.548483 a 1.5722334,1.5722334 0 0 0 -1.849725,1.849724 c 0.917461,4.587302 0.907118,6.83144 -0.548483,9.534697 -1.284999,2.386429 -3.946153,5.23113 -8.43589,9.748852 L 8.643612,38.761259 c 4.517722,-4.489737 7.362423,-7.150892 9.748852,-8.435892 2.703257,-1.455601 4.947395,-1.465943 9.534697,-0.548483 a 1.5722334,1.5722334 0 0 0 1.849724,-1.849724 c -0.91746,-4.587301 -0.907118,-6.83144 0.548483,-9.534697 1.284999,-2.386429 3.946154,-5.23113 8.435891,-9.748851 z"
     id="rect4158"
     inkscape:connector-curvature="0" /><path
     style="color:#000000;font-style:normal;font-variant:normal;font-weight:normal;font-stretch:normal;font-size:medium;line-height:normal;font-family:sans-serif;font-variant-ligatures:none;font-variant-position:normal;font-variant-caps:normal;font-variant-numeric:normal;font-variant-alternates:normal;font-feature-settings:normal;text-indent:0;text-align:start;text-decoration:none;text-decoration-line:none;text-decoration-style:solid;text-decoration-color:#000000;letter-spacing:normal;word-spacing:normal;text-transform:none;direction:ltr;block-progression:tb;writing-mode:lr-tb;baseline-shift:baseline;text-anchor:start;white-space:normal;shape-padding:0;clip-rule:nonzero;display:inline;overflow:visible;visibility:visible;opacity:1;isolation:auto;mix-blend-mode:normal;color-interpolation:sRGB;color-interpolation-filters:linearRGB;solid-color:#000000;solid-opacity:1;fill:#ffffff;fill-opacity:1;fill-rule:nonzero;stroke:none;stroke-width:3.1441524;stroke-linecap:round;stroke-linejoin:miter;stroke-miterlimit:4;stroke-dasharray:none;stroke-dashoffset:0;stroke-opacity:1;color-rendering:auto;image-rendering:auto;shape-rendering:auto;text-rendering:auto;enable-background:accumulate"
     d="m 31.881375,26.675902 c 0.05625,0.301165 0.115763,0.611974 0.181976,0.943025 l 0,2.86e-4 c 0.428447,2.14511 -1.554204,4.12776 -3.699314,3.699314 l -2.86e-4,0 c -4.488389,-0.89768 -6.094839,-0.893963 -8.481057,0.390923 -1.860336,1.001722 -4.437733,3.309483 -8.258139,7.064567 l 14.346212,14.346212 c 3.755084,-3.820406 6.062845,-6.397803 7.064567,-8.258137 1.284885,-2.38622 1.288603,-3.99267 0.390923,-8.481059 l 0,-2.86e-4 c -0.428446,-2.14511 1.554204,-4.12776 3.699314,-3.699314 l 2.86e-4,0 c 4.488387,0.89768 6.094837,0.893963 8.481057,-0.390923 1.606757,-0.86518 3.75308,-2.709926 6.768532,-5.61461 l -20.494072,0 z"
     id="path4251"
     inkscape:connector-curvature="0" /></svg>