<?xml version="1.0" encoding="UTF-8" standalone="no"?>
<!-- Generator: Adobe Illustrator 22.0.1, SVG Export Plug-In . SVG Version: 6.00 Build 0)  -->

<svg
   xmlns:dc="http://purl.org/dc/elements/1.1/"
   xmlns:cc="http://creativecommons.org/ns#"
   xmlns:rdf="http://www.w3.org/1999/02/22-rdf-syntax-ns#"
   xmlns:svg="http://www.w3.org/2000/svg"
   xmlns="http://www.w3.org/2000/svg"
   xmlns:sodipodi="http://sodipodi.sourceforge.net/DTD/sodipodi-0.dtd"
   xmlns:inkscape="http://www.inkscape.org/namespaces/inkscape"
   version="1.1"
   id="Warstwa_1"
   x="0px"
   y="0px"
   viewBox="0 0 64 64"
   xml:space="preserve"
   inkscape:version="0.91+devel+osxmenu r12922"
   sodipodi:docname="indelivery.svg"
   width="64"
   height="64"><metadata
     id="metadata16005"><rdf:RDF><cc:Work
         rdf:about=""><dc:format>image/svg+xml</dc:format><dc:type
           rdf:resource="http://purl.org/dc/dcmitype/StillImage" /><dc:title></dc:title></cc:Work></rdf:RDF></metadata><defs
     id="defs16003" /><sodipodi:namedview
     pagecolor="#ffffff"
     bordercolor="#666666"
     borderopacity="1"
     objecttolerance="10"
     gridtolerance="10"
     guidetolerance="10"
     inkscape:pageopacity="0"
     inkscape:pageshadow="2"
     inkscape:window-width="787"
     inkscape:window-height="480"
     id="namedview16001"
     showgrid="false"
     inkscape:zoom="1.2291667"
     inkscape:cx="7.3150373"
     inkscape:cy="63.457627"
     inkscape:window-x="0"
     inkscape:window-y="23"
     inkscape:window-maximized="0"
     inkscape:current-layer="Warstwa_1" /><style
     type="text/css"
     id="style15957">
	.st0{fill:#78D175;}
	.st1{fill:#FFED6B;}
	.st2{fill:#1D1D1B;}
	.st3{fill:#FFFFFF;}
	.st4{fill:#FA7373;}
	.st5{fill:#FA7373;stroke:#1D1D1B;stroke-width:0.5;stroke-miterlimit:10;}
</style><path
     class="st0"
     d="M 60,64 4,64 C 1.8,64 0,62.2 0,60 L 0,4 C 0,1.8 1.8,0 4,0 l 56,0 c 2.2,0 4,1.8 4,4 l 0,56 c 0,2.2 -1.8,4 -4,4 z"
     id="path15959"
     inkscape:connector-curvature="0"
     style="fill:#78d175;stroke-width:0.33333334" /><g
     id="g15961"
     transform="scale(0.33333333)"><path
       class="st1"
       d="m 48.3,150.6 c -1.6,0 -2.9,-1.1 -3.3,-2.6 -3.8,-16.3 -2.6,-36.2 3.4,-56.1 6,-19.9 16,-37.1 28.2,-48.6 0.6,-0.6 1.4,-0.9 2.3,-0.9 0.8,0 1.6,0.3 2.2,0.9 l 93.4,83.1 c 1.1,1 1.6,2.5 1.1,4 -0.4,1.4 -1.6,2.5 -3.1,2.7 l -59.4,8.4 -64.4,9.1 c 0,0 -0.2,0 -0.4,0 z"
       id="path15963"
       inkscape:connector-curvature="0"
       style="fill:#ffed6b" /><path
       class="st2"
       d="m 79,42.9 c 0.7,0 1.4,0.2 1.9,0.7 l 20.9,18.6 5.1,4.5 16.6,14.8 2,1.7 4.6,4.1 5.3,4.7 38.9,34.7 c 2.1,1.9 1.1,5.4 -1.7,5.8 l -51.6,7.3 -7.8,1.1 -5,0.7 -3,0.4 -22.6,3.2 -5.8,0.8 -28,4 c -0.1,0 -0.3,0 -0.4,0 -1.3,0 -2.5,-0.9 -2.8,-2.2 C 42,132.3 42.8,112.4 49,92 55.2,71.6 65.5,54.5 77,43.6 c 0.6,-0.4 1.3,-0.7 2,-0.7 m 0,-1 c -1,0 -1.9,0.4 -2.6,1 C 64.1,54.5 54,71.8 48,91.8 c -6,20 -7.2,40 -3.4,56.3 0.4,1.8 2,3 3.8,3 0.2,0 0.4,0 0.5,0 l 28,-4 5.8,-0.8 22.6,-3.2 3,-0.4 5,-0.7 7.8,-1.1 51.6,-7.3 c 1.7,-0.2 3,-1.4 3.5,-3 0.5,-1.6 0,-3.3 -1.3,-4.5 L 136,91.3 l -5.3,-4.7 -4.6,-4.1 -2,-1.7 L 107.5,66 102.4,61.5 81.5,42.9 c -0.7,-0.6 -1.6,-1 -2.5,-1 l 0,0 z"
       id="path15965"
       inkscape:connector-curvature="0"
       style="fill:#1d1d1b" /></g><circle
     cx="24"
     cy="40.966667"
     r="3.1000001"
     id="circle15967"
     style="stroke-width:0.33333334" /><circle
     class="st3"
     cx="26.166666"
     cy="40.633335"
     r="0.86666662"
     id="circle15969"
     style="fill:#ffffff;stroke-width:0.33333334" /><circle
     cx="28.4"
     cy="26.300001"
     r="3.1000001"
     id="circle15971"
     style="stroke-width:0.33333334" /><circle
     class="st3"
     cx="30.366667"
     cy="27.1"
     r="0.86666662"
     id="circle15973"
     style="fill:#ffffff;stroke-width:0.33333334" /><path
     class="st4"
     d="M 33.966667,41.233333 C 36.5,42 38.033333,44.466667 37.733333,47 l -1.666666,0.233333 -1,0.133334 -7.533334,1.066666 c -0.466666,-1.1 -0.566666,-2.4 -0.2,-3.633333 0.833334,-2.833333 3.8,-4.433333 6.633334,-3.566667 z"
     id="path15975"
     inkscape:connector-curvature="0"
     style="fill:#fa7373;stroke-width:0.33333334" /><path
     class="st4"
     d="M 35.6,22.233333 41.133333,27.166667 41.8,27.733333 43.333333,29.1 c -1.166666,2.233333 -3.766666,3.4 -6.266666,2.633333 C 34.233333,30.866667 32.633333,27.9 33.5,25.066667 33.866667,23.9 34.633333,22.9 35.6,22.233333 Z"
     id="path15977"
     inkscape:connector-curvature="0"
     style="fill:#fa7373;stroke-width:0.33333334" /><g
     id="g15979"
     transform="scale(0.33333333)"><polygon
       class="st2"
       points="52.3,46.4 50.9,51.2 17.4,39 "
       id="polygon15981"
       style="fill:#1d1d1b" /></g><g
     id="g15983"
     transform="scale(0.33333333)"><polygon
       class="st2"
       points="45.8,66.8 45.3,69.8 10.6,61.9 "
       id="polygon15985"
       style="fill:#1d1d1b" /></g><g
     id="g15987"
     transform="scale(0.33333333)"><polygon
       class="st2"
       points="41.1,85.5 40.7,90.5 5.5,85.6 "
       id="polygon15989"
       style="fill:#1d1d1b" /></g><g
     id="g15991"
     transform="scale(0.33333333)"><polygon
       class="st2"
       points="36.7,115 36.5,118 5.4,114.4 "
       id="polygon15993"
       style="fill:#1d1d1b" /></g><g
     id="g15995"
     transform="scale(0.33333333)"><polygon
       class="st2"
       points="35,138.2 35.3,143.2 3.9,142.6 "
       id="polygon15997"
       style="fill:#1d1d1b" /></g><ellipse
     class="st5"
     cx="31.266668"
     cy="35.399998"
     rx="1.4333334"
     ry="0.9666667"
     id="ellipse15999"
     style="fill:#fa7373;stroke:#1d1d1b;stroke-width:0.16666667;stroke-miterlimit:10" /></svg>