<?xml version="1.0" encoding="UTF-8" standalone="no"?>
<!-- Generator: Adobe Illustrator 22.0.1, SVG Export Plug-In . SVG Version: 6.00 Build 0)  -->

<svg
   xmlns:dc="http://purl.org/dc/elements/1.1/"
   xmlns:cc="http://creativecommons.org/ns#"
   xmlns:rdf="http://www.w3.org/1999/02/22-rdf-syntax-ns#"
   xmlns:svg="http://www.w3.org/2000/svg"
   xmlns="http://www.w3.org/2000/svg"
   xmlns:sodipodi="http://sodipodi.sourceforge.net/DTD/sodipodi-0.dtd"
   xmlns:inkscape="http://www.inkscape.org/namespaces/inkscape"
   version="1.1"
   id="Warstwa_1"
   x="0px"
   y="0px"
   viewBox="0 0 192 192"
   style="enable-background:new 0 0 192 192;"
   xml:space="preserve"
   inkscape:version="0.91+devel+osxmenu r12922"
   sodipodi:docname="logo.svg"
   inkscape:export-filename="/Users/golui/Downloads/wetransfer-ec15dd/ic_launcher.png"
   inkscape:export-xdpi="72"
   inkscape:export-ydpi="72"><metadata
     id="metadata4851"><rdf:RDF><cc:Work
         rdf:about=""><dc:format>image/svg+xml</dc:format><dc:type
           rdf:resource="http://purl.org/dc/dcmitype/StillImage" /></cc:Work></rdf:RDF></metadata><defs
     id="defs4849" /><sodipodi:namedview
     pagecolor="#ffffff"
     bordercolor="#666666"
     borderopacity="1"
     objecttolerance="10"
     gridtolerance="10"
     guidetolerance="10"
     inkscape:pageopacity="0"
     inkscape:pageshadow="2"
     inkscape:window-width="1167"
     inkscape:window-height="695"
     id="namedview4847"
     showgrid="true"
     inkscape:zoom="1.2291667"
     inkscape:cx="96"
     inkscape:cy="95.186441"
     inkscape:window-x="516"
     inkscape:window-y="152"
     inkscape:window-maximized="0"
     inkscape:current-layer="Warstwa_1"><inkscape:grid
       type="xygrid"
       id="grid8179" /></sodipodi:namedview><style
     type="text/css"
     id="style4821">
	.st0{fill:#78D175;}
	.st1{fill:#FFED6B;}
	.st2{fill:#1D1D1B;}
	.st3{fill:#FFFFFF;}
	.st4{fill:#FA7373;}
</style><path
     class="st0"
     d="m 159,168 -126,0 c -4.95,0 -9,-4.05 -9,-9 L 24,33 c 0,-4.95 4.05,-9 9,-9 l 126,0 c 4.95,0 9,4.05 9,9 l 0,126 c 0,4.95 -4.05,9 -9,9 z"
     id="path4823"
     inkscape:connector-curvature="0"
     style="fill:#78d175;stroke-width:0.75" /><g
     id="g4825"
     transform="matrix(0.72557387,0,0,0.72557387,26.343687,26.421851)"><path
       class="st1"
       d="m 96,184.1 c -1.9,0 -3.5,-1.1 -4.3,-2.8 L 59.4,111.7 56.7,105.8 24.4,36.2 c -0.9,-2 -0.2,-4.3 1.7,-5.4 C 44.7,20.2 69.5,14.3 96,14.3 c 26.5,0 51.4,5.9 69.9,16.5 1.9,1.1 2.6,3.4 1.7,5.4 l -30.6,66.1 -4.8,10.2 -3.8,8.2 -28,60.5 c -0.9,1.8 -2.5,2.9 -4.4,2.9 z"
       id="path4827"
       inkscape:connector-curvature="0"
       style="fill:#ffed6b" /><path
       class="st2"
       d="m 96,14.8 c 27.3,0 52,6.3 69.6,16.5 1.6,0.9 2.3,3 1.5,4.7 l -15,32.4 -3.7,7.9 -12,25.8 -1.4,3 -3.3,7.2 -3.8,8.2 -28,60.5 c -0.8,1.6 -2.3,2.5 -3.9,2.5 -1.5,0 -3.1,-0.8 -3.9,-2.5 l -28,-60.5 -4.2,-9.1 -2.7,-5.9 L 55.6,102 43.3,75.6 40.2,68.8 24.9,36 C 24.1,34.3 24.7,32.2 26.4,31.3 44,21.1 68.7,14.8 96,14.8 m 0,-1 c -26.6,0 -51.5,5.9 -70.1,16.6 -2.1,1.2 -2.9,3.8 -1.9,6 l 15.2,32.8 3.1,6.8 12.3,26.5 1.6,3.5 2.7,5.9 4.2,9.1 28,60.5 c 0.9,1.9 2.7,3 4.8,3 2.1,0 3.9,-1.2 4.8,-3 l 28,-60.5 3.8,-8.2 3.3,-7.2 1.4,-3 12,-25.8 3.7,-7.9 15,-32.4 c 1,-2.2 0.2,-4.8 -1.9,-6 C 147.5,19.7 122.6,13.8 96,13.8 l 0,0 z"
       id="path4829"
       inkscape:connector-curvature="0"
       style="fill:#1d1d1b" /></g><circle
     cx="74.739464"
     cy="65.893066"
     id="circle4831"
     style="stroke-width:0.7255739"
     r="8.6343279" /><g
     id="g4833"
     transform="matrix(0.72557387,0,0,0.72557387,26.343687,26.421851)"><path
       d="m 85,66.1 c 1.7,1.1 3.5,2 5.3,2.6 1.8,0.6 3.7,0.9 5.6,0.8 0.5,0 0.9,-0.1 1.4,-0.1 l 0.7,-0.1 0.7,-0.1 c 0.5,-0.1 0.9,-0.2 1.4,-0.3 0.5,-0.2 0.9,-0.3 1.4,-0.4 0.5,-0.1 0.9,-0.3 1.4,-0.5 l 1.4,-0.6 c 0.9,-0.4 1.8,-0.9 2.7,-1.3 -0.7,0.7 -1.4,1.5 -2.2,2.1 -0.9,0.6 -1.7,1.2 -2.6,1.7 -0.5,0.2 -1,0.5 -1.4,0.7 -0.5,0.2 -1,0.3 -1.5,0.5 l -0.8,0.2 -0.8,0.1 c -0.5,0 -1.1,0.2 -1.6,0.1 -2.2,0.1 -4.3,-0.5 -6.2,-1.4 -2.1,-0.9 -3.7,-2.3 -4.9,-4 z"
       id="path4835"
       inkscape:connector-curvature="0" /></g><circle
     class="st3"
     cx="78.585007"
     cy="62.555424"
     id="circle4837"
     style="fill:#ffffff;stroke-width:0.7255739"
     r="2.3943937" /><circle
     cx="117.4032"
     cy="65.893066"
     id="circle4839"
     style="stroke-width:0.7255739"
     r="8.6343279" /><circle
     class="st3"
     cx="121.17618"
     cy="62.555424"
     id="circle4841"
     style="fill:#ffffff;stroke-width:0.7255739"
     r="2.3943937" /><path
     class="st4"
     d="m 82.140318,92.666746 c 0,7.328296 -5.296689,13.423114 -12.334756,14.656594 l -1.959049,-4.28089 -1.160918,-2.53951 -8.924559,-19.227704 c 2.612066,-2.176723 5.877148,-3.482756 9.505017,-3.482756 8.198985,0 14.874266,6.675279 14.874266,14.874266 z"
     id="path4843"
     inkscape:connector-curvature="0"
     style="fill:#fa7373;stroke-width:0.7255739" /><path
     class="st4"
     d="m 134.01886,81.783137 -8.70689,18.719813 -1.01581,2.17671 -2.3944,5.22413 c -6.89295,-1.30603 -12.04452,-7.32828 -12.04452,-14.584029 0,-8.198984 6.67527,-14.874263 14.87426,-14.874263 3.48276,0.07255 6.74784,1.306033 9.28736,3.337639 z"
     id="path4845"
     inkscape:connector-curvature="0"
     style="fill:#fa7373;stroke-width:0.7255739" /></svg>