<?xml version="1.0" encoding="UTF-8" standalone="no"?>
<!-- Generator: Adobe Illustrator 22.0.1, SVG Export Plug-In . SVG Version: 6.00 Build 0)  -->

<svg
   xmlns:dc="http://purl.org/dc/elements/1.1/"
   xmlns:cc="http://creativecommons.org/ns#"
   xmlns:rdf="http://www.w3.org/1999/02/22-rdf-syntax-ns#"
   xmlns:svg="http://www.w3.org/2000/svg"
   xmlns="http://www.w3.org/2000/svg"
   xmlns:sodipodi="http://sodipodi.sourceforge.net/DTD/sodipodi-0.dtd"
   xmlns:inkscape="http://www.inkscape.org/namespaces/inkscape"
   version="1.1"
   id="Warstwa_1"
   x="0px"
   y="0px"
   viewBox="0 0 192 192"
   style="enable-background:new 0 0 192 192;"
   xml:space="preserve"
   inkscape:version="0.91+devel+osxmenu r12922"
   sodipodi:docname="pending.svg"><metadata
     id="metadata8218"><rdf:RDF><cc:Work
         rdf:about=""><dc:format>image/svg+xml</dc:format><dc:type
           rdf:resource="http://purl.org/dc/dcmitype/StillImage" /></cc:Work></rdf:RDF></metadata><defs
     id="defs8216" /><sodipodi:namedview
     pagecolor="#ffffff"
     bordercolor="#666666"
     borderopacity="1"
     objecttolerance="10"
     gridtolerance="10"
     guidetolerance="10"
     inkscape:pageopacity="0"
     inkscape:pageshadow="2"
     inkscape:window-width="787"
     inkscape:window-height="480"
     id="namedview8214"
     showgrid="false"
     inkscape:zoom="1.2291667"
     inkscape:cx="96"
     inkscape:cy="96"
     inkscape:window-x="0"
     inkscape:window-y="23"
     inkscape:window-maximized="0"
     inkscape:current-layer="Warstwa_1" /><style
     type="text/css"
     id="style8184">
	.st0{fill:#78D175;}
	.st1{fill:#FFED6B;}
	.st2{fill:#FFFFFF;}
	.st3{fill:#FA7373;stroke:#000000;stroke-width:0.25;stroke-miterlimit:10;}
	.st4{fill:#FA7373;}
	.st5{fill:#FFFFFF;stroke:#000000;stroke-width:0.5;stroke-miterlimit:10;}
	.st6{fill:none;stroke:#000000;stroke-width:0.5;stroke-miterlimit:10;}
</style><path
     class="st0"
     d="M180,192H12c-6.6,0-12-5.4-12-12V12C0,5.4,5.4,0,12,0h168c6.6,0,12,5.4,12,12v168C192,186.6,186.6,192,180,192z  "
     id="path8186"
     style="fill:#f8ef9e;fill-opacity:1" /><g
     id="g8188"><path
       class="st1"
       d="M103,185.7c-1.6,0-3.1-0.8-4-2.2L63.6,127l-5.3-8.5l-3.4-5.5l-2-3.2L37.1,85l-4-6.3L13.9,48   c-1.1-1.8-0.7-4.2,1-5.6c17.1-13,40.9-21.9,67.3-25.2c7.2-0.9,14.5-1.4,21.6-1.4c18.6,0,35.8,3.1,49.8,9c1.9,0.8,3,3,2.4,5.1   l-10.8,34l-2.6,8.3l-8.6,27.1l-1,3.2l-2.4,7.6l-2.7,8.6l-20.3,63.6C106.8,184.4,105.1,185.7,103,185.7z"
       id="path8190" /><path
       d="M103.7,16.3c18.8,0,35.9,3.2,49.6,9c1.7,0.7,2.6,2.7,2.1,4.5l-10.8,34l-2.6,8.3l-8.6,27.1l-1,3.2L130,110l-2.7,8.6   L107,182.2c-0.6,2-2.3,3-4,3c-1.4,0-2.7-0.6-3.6-2L64,126.7l-5.3-8.5l-3.4-5.5l-2-3.2L37.5,84.7l-4-6.3L14.3,47.7   c-1-1.6-0.6-3.7,0.9-4.9c16.2-12.3,39.9-21.7,67-25.1C89.5,16.8,96.7,16.3,103.7,16.3 M103.7,15.3v1V15.3c-7.1,0-14.4,0.5-21.6,1.4   C55.7,20,31.7,29,14.6,42c-1.9,1.5-2.4,4.2-1.1,6.2l19.2,30.7l4,6.3L52.5,110l2,3.2l3.4,5.5l5.3,8.5l35.4,56.5   c1,1.5,2.6,2.4,4.4,2.4c2.3,0,4.3-1.4,5-3.7l20.3-63.6l2.7-8.6l2.4-7.6l1-3.2l8.6-27.1l2.6-8.3l10.8-34c0.7-2.3-0.5-4.8-2.7-5.7   C139.6,18.5,122.3,15.3,103.7,15.3L103.7,15.3z"
       id="path8192" /></g><circle
     cx="58.1"
     cy="60.7"
     r="11.9"
     id="circle8194" /><circle
     class="st2"
     cx="64.3"
     cy="55.2"
     r="3.3"
     id="circle8196" /><circle
     class="st3"
     cx="86.8"
     cy="76"
     r="3.3"
     id="circle8198" /><circle
     cx="116.4"
     cy="53.2"
     r="11.9"
     id="circle8200" /><circle
     class="st2"
     cx="121.9"
     cy="47"
     r="3.3"
     id="circle8202" /><path
     class="st4"
     d="M72.8,96c1.3,10-4.9,19.3-14.3,22.2l-3.4-5.5l-2-3.2L37.5,84.7c3.1-3.4,7.5-5.8,12.4-6.4  C61.1,76.8,71.4,84.8,72.8,96z"
     id="path8204" /><path
     class="st4"
     d="M141.9,72.1l-8.6,27.1l-1,3.2l-2.4,7.6c-9.6-0.6-17.8-7.9-19-17.8c-1.4-11.2,6.5-21.5,17.7-22.9  C133.4,68.6,138.1,69.7,141.9,72.1z"
     id="path8206" /><circle
     class="st5"
     cx="161.2"
     cy="33.4"
     r="20.5"
     id="circle8208" /><line
     class="st6"
     x1="159.7"
     y1="34.1"
     x2="150.5"
     y2="27.8"
     id="line8210" /><line
     class="st6"
     x1="176.1"
     y1="25.2"
     x2="161.9"
     y2="34.4"
     id="line8212" /></svg>