<?xml version="1.0" encoding="UTF-8" standalone="no"?>
<svg
   xmlns:dc="http://purl.org/dc/elements/1.1/"
   xmlns:cc="http://creativecommons.org/ns#"
   xmlns:rdf="http://www.w3.org/1999/02/22-rdf-syntax-ns#"
   xmlns:svg="http://www.w3.org/2000/svg"
   xmlns="http://www.w3.org/2000/svg"
   xmlns:sodipodi="http://sodipodi.sourceforge.net/DTD/sodipodi-0.dtd"
   xmlns:inkscape="http://www.inkscape.org/namespaces/inkscape"
   version="1.1"
   x="0px"
   y="0px"
   width="64"
   height="64"
   viewBox="0 0 64 64"
   xml:space="preserve"
   id="svg4141"
   inkscape:version="0.91+devel+osxmenu r12922"
   sodipodi:docname="plate.svg"
   inkscape:export-filename="/Users/golui/git/ujio2018/Android/app/src/main/res/mipmap-mdpi/plate.png"
   inkscape:export-xdpi="12.000001"
   inkscape:export-ydpi="12.000001"><metadata
     id="metadata4152"><rdf:RDF><cc:Work
         rdf:about=""><dc:format>image/svg+xml</dc:format><dc:type
           rdf:resource="http://purl.org/dc/dcmitype/StillImage" /><dc:title></dc:title></cc:Work></rdf:RDF></metadata><defs
     id="defs4150" /><sodipodi:namedview
     pagecolor="#000000"
     bordercolor="#666666"
     borderopacity="1"
     objecttolerance="10"
     gridtolerance="10"
     guidetolerance="10"
     inkscape:pageopacity="0"
     inkscape:pageshadow="2"
     inkscape:window-width="1185"
     inkscape:window-height="624"
     id="namedview4148"
     showgrid="true"
     inkscape:snap-bbox="true"
     inkscape:bbox-nodes="true"
     inkscape:bbox-paths="true"
     inkscape:snap-nodes="true"
     inkscape:snap-center="true"
     showguides="true"
     inkscape:guide-bbox="true"
     inkscape:zoom="0.60205406"
     inkscape:cx="203.72715"
     inkscape:cy="255.56077"
     inkscape:window-x="229"
     inkscape:window-y="23"
     inkscape:window-maximized="0"
     inkscape:current-layer="svg4141"><inkscape:grid
       type="xygrid"
       id="grid4154" /></sodipodi:namedview><path
     style="fill:#ffffff;fill-rule:evenodd;stroke:none;stroke-width:0.125px;stroke-linecap:butt;stroke-linejoin:miter;stroke-opacity:1"
     d="m 2,24.6875 3,0 0,-14.5 2,0 0,14.5 3,0 0,-14.5 1.999999,0 0,18.5 -3.999999,0 0,26 -4,0 0,-26 -4,0 0,-18.5 2,0 z"
     id="path4237"
     inkscape:connector-curvature="0"
     sodipodi:nodetypes="ccccccccccccccccc" /><path
     style="opacity:1;fill:#ffffff;fill-opacity:1;stroke:none;stroke-width:2.36220479;stroke-linecap:round;stroke-linejoin:round;stroke-miterlimit:4;stroke-dasharray:none"
     d="M 34,14.687501 A 20,20 0 0 0 13.999999,34.6875 20,20 0 0 0 34,54.6875 a 20,20 0 0 0 20,-20 20,20 0 0 0 -20,-19.999999 z m 0,2 a 18.000001,18.000001 0 0 1 18,17.999999 18.000001,18.000001 0 0 1 -18,18 18.000001,18.000001 0 0 1 -18,-18 18.000001,18.000001 0 0 1 18,-17.999999 z"
     id="path4243"
     inkscape:connector-curvature="0" /><circle
     cy="34.6875"
     cx="34"
     id="circle4245"
     style="opacity:1;fill:#ffffff;fill-opacity:1;stroke:none;stroke-width:1.65354323;stroke-linecap:round;stroke-linejoin:round;stroke-miterlimit:4;stroke-dasharray:none"
     r="13.999999" /><path
     style="fill:#ffffff;fill-rule:evenodd;stroke:none;stroke-width:0.125px;stroke-linecap:butt;stroke-linejoin:miter;stroke-opacity:1"
     d="m 57.999999,30.6875 2,0 0,24 4.000001,0 0,-42 c 0,-4.4999994 -6.000001,-4.4999994 -6.000001,0 z"
     id="path4250"
     inkscape:connector-curvature="0"
     sodipodi:nodetypes="ccccccc" /></svg>